<?xml version="1.0" encoding="UTF-8" standalone="no"?>
<!-- Created with Inkscape (http://www.inkscape.org/) -->

<svg
   width="48.225639mm"
   height="57.948238mm"
   viewBox="0 0 48.225639 57.948239"
   version="1.1"
   id="svg1"
   xml:space="preserve"
   sodipodi:docname="website_data.svg"
   inkscape:version="1.3.2 (091e20e, 2023-11-25, custom)"
   xmlns:inkscape="http://www.inkscape.org/namespaces/inkscape"
   xmlns:sodipodi="http://sodipodi.sourceforge.net/DTD/sodipodi-0.dtd"
   xmlns="http://www.w3.org/2000/svg"
   xmlns:svg="http://www.w3.org/2000/svg"><sodipodi:namedview
     id="namedview1"
     pagecolor="#ffffff"
     bordercolor="#000000"
     borderopacity="0.25"
     inkscape:showpageshadow="2"
     inkscape:pageopacity="0.0"
     inkscape:pagecheckerboard="0"
     inkscape:deskcolor="#d1d1d1"
     inkscape:document-units="mm"
     inkscape:zoom="3.6762791"
     inkscape:cx="1705.5288"
     inkscape:cy="680.98747"
     inkscape:window-width="1920"
     inkscape:window-height="1009"
     inkscape:window-x="-8"
     inkscape:window-y="-8"
     inkscape:window-maximized="1"
     inkscape:current-layer="g419" /><defs
     id="defs1" /><g
     inkscape:label="Layer 1"
     inkscape:groupmode="layer"
     id="layer1"
     transform="translate(-749.72293,-10.242532)"><g
       id="g33"
       transform="translate(1.6285046,101.78154)"><path
         id="rect4"
         style="fill:#ffffff;fill-opacity:1;stroke:#000000;stroke-width:5;stroke-linecap:round;stroke-linejoin:round;stroke-miterlimit:7.2;stroke-dasharray:none;paint-order:stroke fill markers"
         d="m 693.91524,37.90316 h 25.616 v 38.55388 h -25.616 z" /><g
         id="g34"
         transform="translate(-5.6997661,2.0356307)"><path
           id="path14"
           style="fill:#ffffff;stroke:#000000;stroke-width:5;stroke-linecap:round;stroke-linejoin:round;stroke-miterlimit:7.2;stroke-dasharray:none;paint-order:stroke fill markers"
           d="m 708.44684,43.15424 h 124.9648 v 7.53524 h -124.9648 z" /><rect
           style="fill:#000000;fill-opacity:1;stroke:#000000;stroke-width:4.14432;stroke-linecap:round;stroke-linejoin:round;stroke-miterlimit:7.2;stroke-dasharray:none;paint-order:stroke fill markers"
           id="rect14"
           width="0.3335028"
           height="8.4720926"
           x="646.81311"
           y="-334.05615"
           transform="matrix(0.85444636,0.51953963,-0.48071145,0.87687884,0,0)" /><rect
           style="fill:#000000;fill-opacity:1;stroke:#000000;stroke-width:4.14432;stroke-linecap:round;stroke-linejoin:round;stroke-miterlimit:7.2;stroke-dasharray:none;paint-order:stroke fill markers"
           id="rect15"
           width="0.3335028"
           height="8.4720926"
           x="654.62268"
           y="-338.68335"
           transform="matrix(0.85444636,0.51953963,-0.48071145,0.87687884,0,0)" /><rect
           style="fill:#000000;fill-opacity:1;stroke:#000000;stroke-width:4.14432;stroke-linecap:round;stroke-linejoin:round;stroke-miterlimit:7.2;stroke-dasharray:none;paint-order:stroke fill markers"
           id="rect16"
           width="0.3335028"
           height="8.4720926"
           x="662.43231"
           y="-343.31042"
           transform="matrix(0.85444636,0.51953963,-0.48071145,0.87687884,0,0)" /><rect
           style="fill:#000000;fill-opacity:1;stroke:#000000;stroke-width:4.14432;stroke-linecap:round;stroke-linejoin:round;stroke-miterlimit:7.2;stroke-dasharray:none;paint-order:stroke fill markers"
           id="rect17"
           width="0.3335028"
           height="8.4720926"
           x="670.242"
           y="-347.93738"
           transform="matrix(0.85444636,0.51953963,-0.48071145,0.87687884,0,0)" /><rect
           style="fill:#000000;fill-opacity:1;stroke:#000000;stroke-width:4.14432;stroke-linecap:round;stroke-linejoin:round;stroke-miterlimit:7.2;stroke-dasharray:none;paint-order:stroke fill markers"
           id="rect18"
           width="0.3335028"
           height="8.4720926"
           x="678.05164"
           y="-352.56445"
           transform="matrix(0.85444636,0.51953963,-0.48071145,0.87687884,0,0)" /><rect
           style="fill:#000000;fill-opacity:1;stroke:#000000;stroke-width:4.14432;stroke-linecap:round;stroke-linejoin:round;stroke-miterlimit:7.2;stroke-dasharray:none;paint-order:stroke fill markers"
           id="rect23"
           width="0.3335028"
           height="8.4720926"
           x="685.86121"
           y="-357.19153"
           transform="matrix(0.85444636,0.51953963,-0.48071145,0.87687884,0,0)" /><rect
           style="fill:#000000;fill-opacity:1;stroke:#000000;stroke-width:4.14432;stroke-linecap:round;stroke-linejoin:round;stroke-miterlimit:7.2;stroke-dasharray:none;paint-order:stroke fill markers"
           id="rect24"
           width="0.3335028"
           height="8.4720926"
           x="693.67072"
           y="-361.8186"
           transform="matrix(0.85444636,0.51953963,-0.48071145,0.87687884,0,0)" /><rect
           style="fill:#000000;fill-opacity:1;stroke:#000000;stroke-width:4.14432;stroke-linecap:round;stroke-linejoin:round;stroke-miterlimit:7.2;stroke-dasharray:none;paint-order:stroke fill markers"
           id="rect25"
           width="0.3335028"
           height="8.4720926"
           x="709.28992"
           y="-371.07288"
           transform="matrix(0.85444636,0.51953963,-0.48071145,0.87687884,0,0)" /><rect
           style="fill:#000000;fill-opacity:1;stroke:#000000;stroke-width:4.14432;stroke-linecap:round;stroke-linejoin:round;stroke-miterlimit:7.2;stroke-dasharray:none;paint-order:stroke fill markers"
           id="rect26"
           width="0.3335028"
           height="8.4720926"
           x="701.48029"
           y="-366.44592"
           transform="matrix(0.85444636,0.51953963,-0.48071145,0.87687884,0,0)" /><rect
           style="fill:#000000;fill-opacity:1;stroke:#000000;stroke-width:4.14432;stroke-linecap:round;stroke-linejoin:round;stroke-miterlimit:7.2;stroke-dasharray:none;paint-order:stroke fill markers"
           id="rect27"
           width="0.3335028"
           height="8.4720926"
           x="717.09949"
           y="-375.70007"
           transform="matrix(0.85444636,0.51953963,-0.48071145,0.87687884,0,0)" /><rect
           style="fill:#000000;fill-opacity:1;stroke:#000000;stroke-width:4.14432;stroke-linecap:round;stroke-linejoin:round;stroke-miterlimit:7.2;stroke-dasharray:none;paint-order:stroke fill markers"
           id="rect28"
           width="0.3335028"
           height="8.4720926"
           x="724.90906"
           y="-380.32715"
           transform="matrix(0.85444636,0.51953963,-0.48071145,0.87687884,0,0)" /><rect
           style="fill:#000000;fill-opacity:1;stroke:#000000;stroke-width:4.14432;stroke-linecap:round;stroke-linejoin:round;stroke-miterlimit:7.2;stroke-dasharray:none;paint-order:stroke fill markers"
           id="rect29"
           width="0.3335028"
           height="8.4720926"
           x="740.52832"
           y="-389.58142"
           transform="matrix(0.85444636,0.51953963,-0.48071145,0.87687884,0,0)" /><rect
           style="fill:#000000;fill-opacity:1;stroke:#000000;stroke-width:4.14432;stroke-linecap:round;stroke-linejoin:round;stroke-miterlimit:7.2;stroke-dasharray:none;paint-order:stroke fill markers"
           id="rect30"
           width="0.3335028"
           height="8.4720926"
           x="732.71863"
           y="-384.95435"
           transform="matrix(0.85444636,0.51953963,-0.48071145,0.87687884,0,0)" /><rect
           style="fill:#000000;fill-opacity:1;stroke:#000000;stroke-width:4.14432;stroke-linecap:round;stroke-linejoin:round;stroke-miterlimit:7.2;stroke-dasharray:none;paint-order:stroke fill markers"
           id="rect31"
           width="0.3335028"
           height="8.4720926"
           x="748.33789"
           y="-394.2085"
           transform="matrix(0.85444636,0.51953963,-0.48071145,0.87687884,0,0)" /></g><g
         id="g227"
         transform="translate(-87.677992,-258.50199)"><path
           style="fill:#ffffff;fill-opacity:1;stroke:#000000;stroke-width:4.99999;stroke-linecap:round;stroke-linejoin:round;stroke-miterlimit:7.2;stroke-dasharray:none;paint-order:stroke fill markers"
           id="path48"
           d="m 917.79012,-195.79436 c 0.0837,0.1474 0.17616,0.29013 0.25101,0.44219 0.94991,1.92969 1.70559,4.09557 2.39953,6.11626 0.92732,2.7003 1.57168,4.84879 2.42353,7.58985 1.10758,3.63302 2.13675,7.28909 3.17104,10.94341 0.2038,0.72006 1.22213,0.43182 1.01832,-0.28824 v 0 c -1.03674,-3.66295 -2.0684,-7.32766 -3.1787,-10.96926 -0.85773,-2.7596 -1.50455,-4.91646 -2.43888,-7.6355 -0.35139,-1.02262 -0.72024,-2.03936 -1.10299,-3.05068 -0.327,-0.86404 -0.90705,-2.32641 -1.38155,-3.24569 -0.10853,-0.21022 -0.24688,-0.40364 -0.37031,-0.60546 -0.49718,-0.55933 -1.28818,0.14379 -0.791,0.70312 z" /><path
           style="fill:#ffffff;fill-opacity:1;stroke:#000000;stroke-width:4.99999;stroke-linecap:round;stroke-linejoin:round;stroke-miterlimit:7.2;stroke-dasharray:none;paint-order:stroke fill markers"
           id="path49"
           d="m 964.70196,-193.54588 c -0.25013,0.65017 -0.29239,0.79148 -0.67013,1.54569 -0.58555,1.16915 -1.69712,3.16974 -2.27635,4.20201 -1.40356,2.50137 -2.21408,3.88155 -3.67318,6.40297 -2.81334,4.86027 -5.55313,9.76284 -8.26164,14.68213 -0.36095,0.65556 0.56615,1.16602 0.92707,0.51046 v 0 c 2.70489,-4.91273 5.44103,-9.80874 8.25058,-14.66249 1.46008,-2.52318 2.27865,-3.91719 3.68356,-6.42134 0.59941,-1.06838 1.71516,-3.07648 2.3127,-4.27422 0.40896,-0.81972 0.44886,-0.96312 0.72109,-1.6811 0.21503,-0.7168 -0.79867,-1.0209 -1.0137,-0.30411 z" /><path
           id="path50"
           style="fill:#ffffff;fill-opacity:1;stroke:#000000;stroke-width:7.1472;stroke-linecap:round;stroke-linejoin:round;stroke-miterlimit:7.2;stroke-dasharray:none;paint-order:stroke fill markers"
           d="m 912.69955,-170.69321 h 55.4282 v 36.40668 h -55.4282 z" /><circle
           style="fill:#ffffff;fill-opacity:1;stroke:#000000;stroke-width:3.52221;stroke-linecap:round;stroke-linejoin:round;stroke-miterlimit:7.2;stroke-dasharray:none;paint-order:stroke fill markers"
           id="circle50"
           cx="946.90808"
           cy="-145.77765"
           r="3.041944" /><circle
           style="fill:#ffffff;fill-opacity:1;stroke:#000000;stroke-width:3.52221;stroke-linecap:round;stroke-linejoin:round;stroke-miterlimit:7.2;stroke-dasharray:none;paint-order:stroke fill markers"
           id="circle51"
           cx="958.7832"
           cy="-145.77765"
           r="3.041944" /><circle
           style="fill:#ffffff;fill-opacity:1;stroke:#000000;stroke-width:3.52221;stroke-linecap:round;stroke-linejoin:round;stroke-miterlimit:7.2;stroke-dasharray:none;paint-order:stroke fill markers"
           id="circle52"
           cx="935.03296"
           cy="-145.77765"
           r="3.041944" /><path
           style="fill:#000000;fill-opacity:1;stroke:none;stroke-width:4.99999;stroke-linecap:round;stroke-linejoin:round;stroke-miterlimit:7.2;stroke-dasharray:none;stroke-opacity:1;paint-order:stroke fill markers"
           id="path52"
           d="m 936.49268,-146.05599 c 0.0567,0.2608 0.0764,0.52769 0,0.78735 -0.0241,0.0827 -0.0598,0.16145 -0.0897,0.24217 -0.19696,0.35415 -0.50866,0.61513 -0.81267,0.8735 -0.5684,0.48675 0.11999,1.29061 0.68839,0.80383 v 0 c 0.44696,-0.38516 0.88292,-0.78378 1.12602,-1.33588 0.0438,-0.13547 0.0985,-0.26784 0.13134,-0.40635 0.10205,-0.43021 0.0732,-0.87553 -0.0403,-1.29929 -0.23665,-0.70996 -1.24066,-0.37529 -1.00402,0.33467 z" /><path
           style="fill:#000000;fill-opacity:1;stroke:none;stroke-width:4.99999;stroke-linecap:round;stroke-linejoin:round;stroke-miterlimit:7.2;stroke-dasharray:none;stroke-opacity:1;paint-order:stroke fill markers"
           id="path226"
           d="m 948.24845,-146.05599 c 0.0567,0.2608 0.0764,0.52769 0,0.78735 -0.0241,0.0827 -0.0598,0.16145 -0.0897,0.24217 -0.19696,0.35415 -0.50866,0.61513 -0.81267,0.8735 -0.5684,0.48675 0.11999,1.29061 0.68839,0.80383 v 0 c 0.44696,-0.38516 0.88292,-0.78378 1.12602,-1.33588 0.0438,-0.13547 0.0985,-0.26784 0.13134,-0.40635 0.10205,-0.43021 0.0732,-0.87553 -0.0403,-1.29929 -0.23665,-0.70996 -1.24066,-0.37529 -1.00402,0.33467 z" /><path
           style="fill:#000000;fill-opacity:1;stroke:none;stroke-width:4.99999;stroke-linecap:round;stroke-linejoin:round;stroke-miterlimit:7.2;stroke-dasharray:none;stroke-opacity:1;paint-order:stroke fill markers"
           id="path227"
           d="m 960.20778,-146.05599 c 0.0567,0.2608 0.0764,0.52769 0,0.78735 -0.0241,0.0827 -0.0598,0.16145 -0.0897,0.24217 -0.19696,0.35415 -0.50866,0.61513 -0.81267,0.8735 -0.5684,0.48675 0.11999,1.29061 0.68839,0.80383 v 0 c 0.44696,-0.38516 0.88292,-0.78378 1.12602,-1.33588 0.0438,-0.13547 0.0985,-0.26784 0.13134,-0.40635 0.10205,-0.43021 0.0732,-0.87553 -0.0403,-1.29929 -0.23665,-0.70996 -1.24066,-0.37529 -1.00402,0.33467 z" /></g><path
         style="fill:#000000;fill-opacity:1;stroke:none;stroke-width:1.89726;stroke-linecap:round;stroke-linejoin:round;stroke-miterlimit:7.2;stroke-dasharray:none;stroke-opacity:1;paint-order:stroke fill markers"
         id="path265"
         d="m 883.28546,-266.36542 c -0.091,0.2319 -0.1952,0.45804 -0.2739,0.69465 -0.03,0.0899 -0.055,0.18143 -0.083,0.27214 -0.11,0.40199 -0.1615,0.81996 -0.1158,1.23599 0.031,0.28657 0.064,0.36176 0.1415,0.63746 0.1328,0.36916 0.3168,0.72997 0.5987,1.00929 0.174,0.17248 0.2249,0.18577 0.432,0.30883 0.08,0.0317 0.1584,0.0694 0.2408,0.0952 0.351,0.10971 0.7273,0.10083 1.0814,0.01 0.092,-0.0237 0.1808,-0.059 0.2712,-0.0886 0.2585,-0.10506 0.5004,-0.24864 0.7061,-0.43851 0.068,-0.0627 0.1363,-0.12684 0.1908,-0.20162 0.1711,-0.23483 0.1995,-0.36095 0.302,-0.62788 0.1303,-0.45436 0.1602,-0.92593 0.069,-1.39081 -0.057,-0.29252 -0.105,-0.38638 -0.2079,-0.66183 -0.1909,-0.41633 -0.4515,-0.80647 -0.8031,-1.10476 -0.056,-0.0471 -0.1159,-0.0879 -0.1739,-0.1319 -0.1962,-0.13041 -0.4154,-0.22349 -0.6441,-0.27929 -0.1108,-0.027 -0.156,-0.0307 -0.2666,-0.0463 -0.2291,-0.0326 -0.4576,-0.0139 -0.6849,0.0203 -0.1745,0.0289 -0.3453,0.0762 -0.508,0.14542 -0.129,0.0589 -0.2335,0.15238 -0.3329,0.25125 -0.049,0.0482 -0.088,0.10474 -0.1254,0.16191 -0.2293,0.359 0.2785,0.68318 0.5077,0.32417 v 0 c 0.012,-0.0215 0.026,-0.0419 0.043,-0.0597 0.047,-0.0471 0.093,-0.096 0.1521,-0.12724 0.1095,-0.0549 0.2351,-0.074 0.3534,-0.10024 0.1705,-0.0259 0.3412,-0.044 0.5135,-0.019 0.223,0.0291 0.4406,0.0885 0.6319,0.21154 0.041,0.0299 0.084,0.0572 0.1231,0.0896 0.2839,0.23534 0.4936,0.54714 0.6507,0.87763 0.087,0.22452 0.1244,0.29665 0.1749,0.53424 0.077,0.36421 0.058,0.7354 -0.037,1.09431 -0.044,0.12372 -0.1023,0.31428 -0.1796,0.42924 -0.036,0.0536 -0.083,0.0994 -0.1295,0.14414 -0.1498,0.14366 -0.3273,0.25344 -0.5176,0.33442 -0.065,0.0228 -0.1288,0.0501 -0.1952,0.0684 -0.3149,0.0869 -0.6029,0.086 -0.9068,-0.0365 -0.1282,-0.0689 -0.1702,-0.081 -0.2791,-0.18408 -0.2232,-0.21119 -0.3648,-0.49301 -0.4715,-0.77638 -0.064,-0.21757 -0.092,-0.28128 -0.1195,-0.50726 -0.042,-0.34541 0,-0.69284 0.091,-1.02707 0.024,-0.0799 0.046,-0.16057 0.072,-0.23981 0.076,-0.23088 0.1794,-0.45091 0.2673,-0.67723 0.1582,-0.39548 -0.4011,-0.6192 -0.5593,-0.22372 z" /><path
         style="fill:#000000;fill-opacity:1;stroke:none;stroke-width:1.89726;stroke-linecap:round;stroke-linejoin:round;stroke-miterlimit:7.2;stroke-dasharray:none;stroke-opacity:1;paint-order:stroke fill markers"
         id="path269"
         d="m 887.09989,-252.92857 c -0.091,0.2319 -0.1952,0.45804 -0.2739,0.69465 -0.03,0.0899 -0.055,0.18143 -0.083,0.27214 -0.11,0.40199 -0.1615,0.81996 -0.1158,1.23599 0.031,0.28657 0.064,0.36176 0.1415,0.63746 0.1328,0.36916 0.3168,0.72997 0.5987,1.00929 0.174,0.17248 0.2249,0.18577 0.432,0.30883 0.08,0.0317 0.1584,0.0694 0.2408,0.0952 0.351,0.10971 0.7273,0.10083 1.0814,0.01 0.092,-0.0237 0.1808,-0.059 0.2712,-0.0886 0.2585,-0.10506 0.5004,-0.24864 0.7061,-0.43851 0.068,-0.0627 0.1363,-0.12684 0.1908,-0.20162 0.1711,-0.23483 0.1995,-0.36095 0.302,-0.62788 0.1303,-0.45436 0.1602,-0.92593 0.069,-1.39081 -0.057,-0.29252 -0.105,-0.38638 -0.2079,-0.66183 -0.1909,-0.41633 -0.4515,-0.80647 -0.8031,-1.10476 -0.056,-0.0471 -0.1159,-0.0879 -0.1739,-0.1319 -0.1962,-0.13041 -0.4154,-0.22349 -0.6441,-0.27929 -0.1108,-0.027 -0.156,-0.0307 -0.2666,-0.0463 -0.2291,-0.0326 -0.4576,-0.0139 -0.6849,0.0203 -0.1745,0.0289 -0.3453,0.0762 -0.508,0.14542 -0.129,0.0589 -0.2335,0.15238 -0.3329,0.25125 -0.049,0.0482 -0.088,0.10474 -0.1254,0.16191 -0.2293,0.359 0.2785,0.68318 0.5077,0.32417 v 0 c 0.012,-0.0215 0.026,-0.0419 0.043,-0.0597 0.047,-0.0471 0.093,-0.096 0.1521,-0.12724 0.1095,-0.0549 0.2351,-0.074 0.3534,-0.10024 0.1705,-0.0259 0.3412,-0.044 0.5135,-0.019 0.223,0.0291 0.4406,0.0885 0.6319,0.21154 0.041,0.0299 0.084,0.0572 0.1231,0.0896 0.2839,0.23534 0.4936,0.54714 0.6507,0.87763 0.087,0.22452 0.1244,0.29665 0.1749,0.53424 0.077,0.36421 0.058,0.7354 -0.037,1.09431 -0.044,0.12372 -0.1023,0.31428 -0.1796,0.42924 -0.036,0.0536 -0.083,0.0994 -0.1295,0.14414 -0.1498,0.14366 -0.3273,0.25344 -0.5176,0.33442 -0.065,0.0228 -0.1288,0.0501 -0.1952,0.0684 -0.3149,0.0869 -0.6029,0.086 -0.9068,-0.0365 -0.1282,-0.0689 -0.1702,-0.081 -0.2791,-0.18408 -0.2232,-0.21119 -0.3648,-0.49301 -0.4715,-0.77638 -0.064,-0.21757 -0.092,-0.28128 -0.1195,-0.50726 -0.042,-0.34541 0,-0.69284 0.091,-1.02707 0.024,-0.0799 0.046,-0.16057 0.072,-0.23981 0.076,-0.23088 0.1794,-0.45091 0.2673,-0.67723 0.1582,-0.39548 -0.4011,-0.6192 -0.5593,-0.22372 z" /><path
         style="fill:#000000;fill-opacity:1;stroke:none;stroke-width:1.89726;stroke-linecap:round;stroke-linejoin:round;stroke-miterlimit:7.2;stroke-dasharray:none;stroke-opacity:1;paint-order:stroke fill markers"
         id="path270"
         d="m 791.57161,-381.6993 c -0.091,0.2319 -0.1952,0.45804 -0.2739,0.69465 -0.03,0.0899 -0.055,0.18143 -0.083,0.27214 -0.11,0.40199 -0.1615,0.81996 -0.1158,1.23599 0.031,0.28657 0.064,0.36176 0.1415,0.63746 0.1328,0.36916 0.3168,0.72997 0.5987,1.00929 0.174,0.17248 0.2249,0.18577 0.432,0.30883 0.08,0.0317 0.1584,0.0694 0.2408,0.0952 0.351,0.10971 0.7273,0.10083 1.0814,0.01 0.092,-0.0237 0.1808,-0.059 0.2712,-0.0886 0.2585,-0.10506 0.5004,-0.24864 0.7061,-0.43851 0.068,-0.0627 0.1363,-0.12684 0.1908,-0.20162 0.1711,-0.23483 0.1995,-0.36095 0.302,-0.62788 0.1303,-0.45436 0.1602,-0.92593 0.069,-1.39081 -0.057,-0.29252 -0.105,-0.38638 -0.2079,-0.66183 -0.1909,-0.41633 -0.4515,-0.80647 -0.8031,-1.10476 -0.056,-0.0471 -0.1159,-0.0879 -0.1739,-0.1319 -0.1962,-0.13041 -0.4154,-0.22349 -0.6441,-0.27929 -0.1108,-0.027 -0.156,-0.0307 -0.2666,-0.0463 -0.2291,-0.0326 -0.4576,-0.0139 -0.6849,0.0203 -0.1745,0.0289 -0.3453,0.0762 -0.508,0.14542 -0.129,0.0589 -0.2335,0.15238 -0.3329,0.25125 -0.049,0.0482 -0.088,0.10474 -0.1254,0.16191 -0.2293,0.359 0.2785,0.68318 0.5077,0.32417 v 0 c 0.012,-0.0215 0.026,-0.0419 0.043,-0.0597 0.047,-0.0471 0.093,-0.096 0.1521,-0.12724 0.1095,-0.0549 0.2351,-0.074 0.3534,-0.10024 0.1705,-0.0259 0.3412,-0.044 0.5135,-0.019 0.223,0.0291 0.4406,0.0885 0.6319,0.21154 0.041,0.0299 0.084,0.0572 0.1231,0.0896 0.2839,0.23534 0.4936,0.54714 0.6507,0.87763 0.087,0.22452 0.1244,0.29665 0.1749,0.53424 0.077,0.36421 0.058,0.7354 -0.037,1.09431 -0.044,0.12372 -0.1023,0.31428 -0.1796,0.42924 -0.036,0.0536 -0.083,0.0994 -0.1295,0.14414 -0.1498,0.14366 -0.3273,0.25344 -0.5176,0.33442 -0.065,0.0228 -0.1288,0.0501 -0.1952,0.0684 -0.3149,0.0869 -0.6029,0.086 -0.9068,-0.0365 -0.1282,-0.0689 -0.1702,-0.081 -0.2791,-0.18408 -0.2232,-0.21119 -0.3648,-0.49301 -0.4715,-0.77638 -0.064,-0.21757 -0.092,-0.28128 -0.1195,-0.50726 -0.042,-0.34541 0,-0.69284 0.091,-1.02707 0.024,-0.0799 0.046,-0.16057 0.072,-0.23981 0.076,-0.23088 0.1794,-0.45091 0.2673,-0.67723 0.1582,-0.39548 -0.4011,-0.6192 -0.5593,-0.22372 z" /><path
         style="fill:#000000;fill-opacity:1;stroke:none;stroke-width:1.89726;stroke-linecap:round;stroke-linejoin:round;stroke-miterlimit:7.2;stroke-dasharray:none;stroke-opacity:1;paint-order:stroke fill markers"
         id="path272"
         d="m 887.09989,-252.92857 c -0.091,0.2319 -0.1952,0.45804 -0.2739,0.69465 -0.03,0.0899 -0.055,0.18143 -0.083,0.27214 -0.11,0.40199 -0.1615,0.81996 -0.1158,1.23599 0.031,0.28657 0.064,0.36176 0.1415,0.63746 0.1328,0.36916 0.3168,0.72997 0.5987,1.00929 0.174,0.17248 0.2249,0.18577 0.432,0.30883 0.08,0.0317 0.1584,0.0694 0.2408,0.0952 0.351,0.10971 0.7273,0.10083 1.0814,0.01 0.092,-0.0237 0.1808,-0.059 0.2712,-0.0886 0.2585,-0.10506 0.5004,-0.24864 0.7061,-0.43851 0.068,-0.0627 0.1363,-0.12684 0.1908,-0.20162 0.1711,-0.23483 0.1995,-0.36095 0.302,-0.62788 0.1303,-0.45436 0.1602,-0.92593 0.069,-1.39081 -0.057,-0.29252 -0.105,-0.38638 -0.2079,-0.66183 -0.1909,-0.41633 -0.4515,-0.80647 -0.8031,-1.10476 -0.056,-0.0471 -0.1159,-0.0879 -0.1739,-0.1319 -0.1962,-0.13041 -0.4154,-0.22349 -0.6441,-0.27929 -0.1108,-0.027 -0.156,-0.0307 -0.2666,-0.0463 -0.2291,-0.0326 -0.4576,-0.0139 -0.6849,0.0203 -0.1745,0.0289 -0.3453,0.0762 -0.508,0.14542 -0.129,0.0589 -0.2335,0.15238 -0.3329,0.25125 -0.049,0.0482 -0.088,0.10474 -0.1254,0.16191 -0.2293,0.359 0.2785,0.68318 0.5077,0.32417 v 0 c 0.012,-0.0215 0.026,-0.0419 0.043,-0.0597 0.047,-0.0471 0.093,-0.096 0.1521,-0.12724 0.1095,-0.0549 0.2351,-0.074 0.3534,-0.10024 0.1705,-0.0259 0.3412,-0.044 0.5135,-0.019 0.223,0.0291 0.4406,0.0885 0.6319,0.21154 0.041,0.0299 0.084,0.0572 0.1231,0.0896 0.2839,0.23534 0.4936,0.54714 0.6507,0.87763 0.087,0.22452 0.1244,0.29665 0.1749,0.53424 0.077,0.36421 0.058,0.7354 -0.037,1.09431 -0.044,0.12372 -0.1023,0.31428 -0.1796,0.42924 -0.036,0.0536 -0.083,0.0994 -0.1295,0.14414 -0.1498,0.14366 -0.3273,0.25344 -0.5176,0.33442 -0.065,0.0228 -0.1288,0.0501 -0.1952,0.0684 -0.3149,0.0869 -0.6029,0.086 -0.9068,-0.0365 -0.1282,-0.0689 -0.1702,-0.081 -0.2791,-0.18408 -0.2232,-0.21119 -0.3648,-0.49301 -0.4715,-0.77638 -0.064,-0.21757 -0.092,-0.28128 -0.1195,-0.50726 -0.042,-0.34541 0,-0.69284 0.091,-1.02707 0.024,-0.0799 0.046,-0.16057 0.072,-0.23981 0.076,-0.23088 0.1794,-0.45091 0.2673,-0.67723 0.1582,-0.39548 -0.4011,-0.6192 -0.5593,-0.22372 z" /><g
         id="g419"
         transform="matrix(0.3154681,0,0,0.3154681,487.19806,-19.132937)"
         inkscape:export-filename="betterWebsite\public\img\natpass.svg"
         inkscape:export-xdpi="96"
         inkscape:export-ydpi="96"><g
           id="g420"
           transform="matrix(0.97556863,0,0,0.97556863,-188.91888,48.318563)"
           inkscape:export-filename="betterWebsite\public\img\natpass.svg"
           inkscape:export-xdpi="96"
           inkscape:export-ydpi="96"><g
             id="g421"><path
               style="fill:#ffffff;fill-opacity:1;stroke:#000000;stroke-width:4.99999;stroke-linecap:round;stroke-linejoin:round;stroke-miterlimit:7.2;stroke-dasharray:none;paint-order:stroke fill markers"
               id="path36"
               d="m 1094.0468,-230.1806 c 0.084,0.14741 0.1761,0.29014 0.251,0.4422 0.9499,1.92968 1.7056,4.09557 2.3995,6.11626 0.9273,2.7003 1.5717,4.84879 2.4236,7.58985 1.1075,3.63302 2.1367,7.28909 3.171,10.94341 0.2038,0.72006 1.2221,0.43182 1.0183,-0.28824 v 0 c -1.0367,-3.66295 -2.0684,-7.32766 -3.1787,-10.96926 -0.8577,-2.7596 -1.5045,-4.91646 -2.4389,-7.6355 -0.3514,-1.02262 -0.7202,-2.03936 -1.103,-3.05068 -0.327,-0.86404 -0.907,-2.32641 -1.3815,-3.24569 -0.1085,-0.21022 -0.2469,-0.40364 -0.3703,-0.60546 -0.4972,-0.55933 -1.2882,0.14379 -0.791,0.70311 z" /><path
               style="fill:#ffffff;fill-opacity:1;stroke:#000000;stroke-width:4.99999;stroke-linecap:round;stroke-linejoin:round;stroke-miterlimit:7.2;stroke-dasharray:none;paint-order:stroke fill markers"
               id="path37"
               d="m 1140.9587,-227.93212 c -0.2502,0.65017 -0.2924,0.79149 -0.6702,1.5457 -0.5855,1.16915 -1.6971,3.16973 -2.2763,4.20201 -1.4036,2.50137 -2.2141,3.88155 -3.6732,6.40297 -2.8133,4.86027 -5.5531,9.76284 -8.2617,14.68213 -0.3609,0.65556 0.5662,1.16602 0.9271,0.51046 v 0 c 2.7049,-4.91273 5.4411,-9.80874 8.2506,-14.66249 1.4601,-2.52318 2.2787,-3.91719 3.6836,-6.42134 0.5994,-1.06838 1.7151,-3.07648 2.3127,-4.27422 0.4089,-0.81972 0.4488,-0.96312 0.7211,-1.6811 0.215,-0.7168 -0.7987,-1.0209 -1.0137,-0.30412 z" /><path
               id="path34"
               style="fill:#ffffff;fill-opacity:1;stroke:#000000;stroke-width:7;stroke-linecap:round;stroke-linejoin:round;stroke-miterlimit:7.2;stroke-dasharray:none;paint-order:stroke fill markers"
               d="m 1092.0096,-205.07944 h 55.4283 v 36.40668 h -55.4283 z" /><circle
               style="fill:#ffffff;fill-opacity:1;stroke:#000000;stroke-width:3.52221;stroke-linecap:round;stroke-linejoin:round;stroke-miterlimit:7.2;stroke-dasharray:none;paint-order:stroke fill markers"
               id="circle35"
               cx="1135.0398"
               cy="-180.16389"
               r="3.041944" /><circle
               style="fill:#ffffff;fill-opacity:1;stroke:#000000;stroke-width:3.52221;stroke-linecap:round;stroke-linejoin:round;stroke-miterlimit:7.2;stroke-dasharray:none;paint-order:stroke fill markers"
               id="circle36"
               cx="1111.2897"
               cy="-180.16389"
               r="3.041944" /><path
               style="fill:#000000;fill-opacity:1;stroke:none;stroke-width:4.99999;stroke-linecap:round;stroke-linejoin:round;stroke-miterlimit:7.2;stroke-dasharray:none;stroke-opacity:1;paint-order:stroke fill markers"
               id="path44"
               d="m 1112.7493,-180.44223 c 0.057,0.2608 0.076,0.5277 0,0.78736 -0.024,0.0827 -0.06,0.16145 -0.09,0.24216 -0.1969,0.35415 -0.5086,0.61513 -0.8126,0.8735 -0.5684,0.48675 0.12,1.29061 0.6884,0.80384 v 0 c 0.4469,-0.38517 0.8829,-0.78379 1.126,-1.33589 0.044,-0.13546 0.099,-0.26784 0.1313,-0.40635 0.1021,-0.4302 0.073,-0.87553 -0.04,-1.29929 -0.2366,-0.70996 -1.2406,-0.37529 -1.004,0.33467 z" /><g
               id="g273"
               transform="translate(176.25667,-34.386239)"><circle
                 style="fill:#ffffff;fill-opacity:1;stroke:#000000;stroke-width:3.52221;stroke-linecap:round;stroke-linejoin:round;stroke-miterlimit:7.2;stroke-dasharray:none;paint-order:stroke fill markers"
                 id="path35"
                 cx="946.90808"
                 cy="-145.77765"
                 r="3.041944" /><path
                 style="fill:#000000;fill-opacity:1;stroke:none;stroke-width:4.99999;stroke-linecap:round;stroke-linejoin:round;stroke-miterlimit:7.2;stroke-dasharray:none;stroke-opacity:1;paint-order:stroke fill markers"
                 id="path46"
                 d="m 948.24845,-146.05599 c 0.0567,0.2608 0.0764,0.52769 0,0.78735 -0.0241,0.0827 -0.0598,0.16145 -0.0897,0.24217 -0.19696,0.35415 -0.50866,0.61513 -0.81267,0.8735 -0.5684,0.48675 0.11999,1.29061 0.68839,0.80383 v 0 c 0.44696,-0.38516 0.88292,-0.78378 1.12602,-1.33588 0.0438,-0.13547 0.0985,-0.26784 0.13134,-0.40635 0.10205,-0.43021 0.0732,-0.87553 -0.0403,-1.29929 -0.23665,-0.70996 -1.24066,-0.37529 -1.00402,0.33467 z" /></g><path
               style="fill:#000000;fill-opacity:1;stroke:none;stroke-width:4.99999;stroke-linecap:round;stroke-linejoin:round;stroke-miterlimit:7.2;stroke-dasharray:none;stroke-opacity:1;paint-order:stroke fill markers"
               id="path47"
               d="m 1136.4645,-180.44223 c 0.057,0.2608 0.076,0.5277 0,0.78736 -0.024,0.0827 -0.06,0.16145 -0.09,0.24216 -0.197,0.35415 -0.5087,0.61513 -0.8127,0.8735 -0.5684,0.48675 0.12,1.29061 0.6884,0.80384 v 0 c 0.447,-0.38517 0.8829,-0.78379 1.126,-1.33589 0.044,-0.13546 0.098,-0.26784 0.1314,-0.40635 0.102,-0.4302 0.073,-0.87553 -0.04,-1.29929 -0.2367,-0.70996 -1.2407,-0.37529 -1.004,0.33467 z" /><g
               id="g418"
               transform="translate(130.06778,-15.470794)"><g
                 id="g259"
                 transform="matrix(0.29350279,0,0,0.29350279,699.05197,-179.68846)"><path
                   style="fill:#000000;fill-opacity:1;stroke:none;stroke-width:4.99999;stroke-linecap:round;stroke-linejoin:round;stroke-miterlimit:7.2;stroke-dasharray:none;stroke-opacity:1;paint-order:stroke fill markers"
                   id="path249"
                   d="m 984.24252,-233.57056 c 0.93414,0 1.86831,0 2.80244,0 2.19165,-5.3e-4 4.38325,-0.016 6.57487,-0.0261 0.79576,-0.004 1.59153,-0.006 2.38731,-0.009 1.12252,-0.003 1.11813,-1.5906 -0.005,-1.58749 v 0 c -0.79676,0.002 -1.5935,0.005 -2.39024,0.009 -2.18916,0.0101 -4.37835,0.0255 -6.56754,0.0261 -0.93414,0 -1.8683,0 -2.80244,0 -1.12255,0 -1.12255,1.5875 0,1.5875 z" /><path
                   style="fill:#000000;fill-opacity:1;stroke:none;stroke-width:4.99999;stroke-linecap:round;stroke-linejoin:round;stroke-miterlimit:7.2;stroke-dasharray:none;stroke-opacity:1;paint-order:stroke fill markers"
                   id="path250"
                   d="m 985.30038,-244.86165 c 0.43564,-0.3668 0.89562,-0.70079 1.36218,-1.02674 0.96192,-0.64577 1.9154,-1.30364 2.86136,-1.97252 0.51967,-0.37065 1.03384,-0.75021 1.58438,-1.07436 0.9661,-0.57162 0.15769,-1.93788 -0.80838,-1.36625 v 0 c -0.58626,0.34823 -1.13974,0.74589 -1.69254,1.14441 -0.94371,0.66732 -1.89516,1.32332 -2.85464,1.96781 -0.48048,0.33638 -0.95708,0.67803 -1.40486,1.05765 -0.89802,0.67352 0.0545,1.94352 0.9525,1.27 z" /><path
                   style="fill:#000000;fill-opacity:1;stroke:none;stroke-width:4.99999;stroke-linecap:round;stroke-linejoin:round;stroke-miterlimit:7.2;stroke-dasharray:none;stroke-opacity:1;paint-order:stroke fill markers"
                   id="path251"
                   d="m 990.45452,-249.77183 c -0.003,0.001 -0.004,0.002 -0.005,0.004 -0.0167,0.12983 -0.0271,0.26037 -0.0421,0.3904 -0.044,0.3827 -0.0855,0.7649 -0.12121,1.14851 -0.013,0.15326 -0.027,0.30643 -0.0388,0.45978 -0.0389,0.5031 -0.0291,0.47648 -0.0725,0.99355 -0.0454,0.54278 -0.10318,1.08467 -0.15734,1.62663 -0.0679,0.6208 -0.10319,1.24462 -0.16307,1.86611 -0.0257,0.26673 -0.0587,0.52958 -0.0906,0.79559 -0.0821,0.52283 -0.12528,1.05031 -0.181,1.57621 -0.0329,0.31082 -0.0464,0.39272 -0.0885,0.70129 -0.11586,0.69487 -0.19799,1.39407 -0.27064,2.09449 -0.0426,0.46208 -0.0848,0.92429 -0.11555,1.38734 -0.0175,0.26047 -0.0206,0.52154 -0.0222,0.7825 0.005,0.14606 -0.0106,0.29122 -0.0199,0.43679 -0.0201,0.0776 0,0.16892 -0.0295,0.24417 -0.003,0.006 0,-0.0122 0,-0.0184 -0.28617,1.08545 1.24889,1.49013 1.53503,0.40468 v 0 c 0.0408,-0.17468 0.0655,-0.35094 0.0781,-0.53002 0.0111,-0.17574 0.0279,-0.35134 0.023,-0.52766 0.003,-0.22918 0.004,-0.45847 0.019,-0.68723 0.0293,-0.44338 0.0701,-0.88591 0.11052,-1.32838 0.0709,-0.68377 0.15134,-1.36626 0.26466,-2.04459 0.0468,-0.34537 0.0588,-0.415 0.0956,-0.76263 0.0545,-0.51383 0.0964,-1.02924 0.17709,-1.54003 0.0363,-0.30361 0.0667,-0.54401 0.0961,-0.8495 0.059,-0.61377 0.094,-1.22981 0.16092,-1.8429 0.0555,-0.55492 0.11425,-1.10977 0.16076,-1.66554 0.0474,-0.56634 0.03,-0.44401 0.0713,-0.97899 0.0116,-0.14896 0.0251,-0.29776 0.0376,-0.44663 0.0522,-0.56402 0.12483,-1.12573 0.1746,-1.68988 0,-1.12253 -1.5875,-1.12253 -1.5875,0 z" /></g><g
                 id="g261"
                 transform="matrix(0.29350279,0,0,0.29350279,699.05197,-164.44968)"><path
                   style="fill:#000000;fill-opacity:1;stroke:none;stroke-width:4.99999;stroke-linecap:round;stroke-linejoin:round;stroke-miterlimit:7.2;stroke-dasharray:none;stroke-opacity:1;paint-order:stroke fill markers"
                   id="path259"
                   d="m 984.24252,-233.57056 c 0.93414,0 1.86831,0 2.80244,0 2.19165,-5.3e-4 4.38325,-0.016 6.57487,-0.0261 0.79576,-0.004 1.59153,-0.006 2.38731,-0.009 1.12252,-0.003 1.11813,-1.5906 -0.005,-1.58749 v 0 c -0.79676,0.002 -1.5935,0.005 -2.39024,0.009 -2.18916,0.0101 -4.37835,0.0255 -6.56754,0.0261 -0.93414,0 -1.8683,0 -2.80244,0 -1.12255,0 -1.12255,1.5875 0,1.5875 z" /><path
                   style="fill:#000000;fill-opacity:1;stroke:none;stroke-width:4.99999;stroke-linecap:round;stroke-linejoin:round;stroke-miterlimit:7.2;stroke-dasharray:none;stroke-opacity:1;paint-order:stroke fill markers"
                   id="path260"
                   d="m 985.30038,-244.86165 c 0.43564,-0.3668 0.89562,-0.70079 1.36218,-1.02674 0.96192,-0.64577 1.9154,-1.30364 2.86136,-1.97252 0.51967,-0.37065 1.03384,-0.75021 1.58438,-1.07436 0.9661,-0.57162 0.15769,-1.93788 -0.80838,-1.36625 v 0 c -0.58626,0.34823 -1.13974,0.74589 -1.69254,1.14441 -0.94371,0.66732 -1.89516,1.32332 -2.85464,1.96781 -0.48048,0.33638 -0.95708,0.67803 -1.40486,1.05765 -0.89802,0.67352 0.0545,1.94352 0.9525,1.27 z" /><path
                   style="fill:#000000;fill-opacity:1;stroke:none;stroke-width:4.99999;stroke-linecap:round;stroke-linejoin:round;stroke-miterlimit:7.2;stroke-dasharray:none;stroke-opacity:1;paint-order:stroke fill markers"
                   id="path261"
                   d="m 990.45452,-249.77183 c -0.003,0.001 -0.004,0.002 -0.005,0.004 -0.0167,0.12983 -0.0271,0.26037 -0.0421,0.3904 -0.044,0.3827 -0.0855,0.7649 -0.12121,1.14851 -0.013,0.15326 -0.027,0.30643 -0.0388,0.45978 -0.0389,0.5031 -0.0291,0.47648 -0.0725,0.99355 -0.0454,0.54278 -0.10318,1.08467 -0.15734,1.62663 -0.0679,0.6208 -0.10319,1.24462 -0.16307,1.86611 -0.0257,0.26673 -0.0587,0.52958 -0.0906,0.79559 -0.0821,0.52283 -0.12528,1.05031 -0.181,1.57621 -0.0329,0.31082 -0.0464,0.39272 -0.0885,0.70129 -0.11586,0.69487 -0.19799,1.39407 -0.27064,2.09449 -0.0426,0.46208 -0.0848,0.92429 -0.11555,1.38734 -0.0175,0.26047 -0.0206,0.52154 -0.0222,0.7825 0.005,0.14606 -0.0106,0.29122 -0.0199,0.43679 -0.0201,0.0776 0,0.16892 -0.0295,0.24417 -0.003,0.006 0,-0.0122 0,-0.0184 -0.28617,1.08545 1.24889,1.49013 1.53503,0.40468 v 0 c 0.0408,-0.17468 0.0655,-0.35094 0.0781,-0.53002 0.0111,-0.17574 0.0279,-0.35134 0.023,-0.52766 0.003,-0.22918 0.004,-0.45847 0.019,-0.68723 0.0293,-0.44338 0.0701,-0.88591 0.11052,-1.32838 0.0709,-0.68377 0.15134,-1.36626 0.26466,-2.04459 0.0468,-0.34537 0.0588,-0.415 0.0956,-0.76263 0.0545,-0.51383 0.0964,-1.02924 0.17709,-1.54003 0.0363,-0.30361 0.0667,-0.54401 0.0961,-0.8495 0.059,-0.61377 0.094,-1.22981 0.16092,-1.8429 0.0555,-0.55492 0.11425,-1.10977 0.16076,-1.66554 0.0474,-0.56634 0.03,-0.44401 0.0713,-0.97899 0.0116,-0.14896 0.0251,-0.29776 0.0376,-0.44663 0.0522,-0.56402 0.12483,-1.12573 0.1746,-1.68988 0,-1.12253 -1.5875,-1.12253 -1.5875,0 z" /></g><g
                 id="g264"
                 transform="matrix(0.29350279,0,0,0.29350279,699.05197,-156.67696)"><path
                   style="fill:#000000;fill-opacity:1;stroke:none;stroke-width:4.99999;stroke-linecap:round;stroke-linejoin:round;stroke-miterlimit:7.2;stroke-dasharray:none;stroke-opacity:1;paint-order:stroke fill markers"
                   id="path262"
                   d="m 984.24252,-233.57056 c 0.93414,0 1.86831,0 2.80244,0 2.19165,-5.3e-4 4.38325,-0.016 6.57487,-0.0261 0.79576,-0.004 1.59153,-0.006 2.38731,-0.009 1.12252,-0.003 1.11813,-1.5906 -0.005,-1.58749 v 0 c -0.79676,0.002 -1.5935,0.005 -2.39024,0.009 -2.18916,0.0101 -4.37835,0.0255 -6.56754,0.0261 -0.93414,0 -1.8683,0 -2.80244,0 -1.12255,0 -1.12255,1.5875 0,1.5875 z" /><path
                   style="fill:#000000;fill-opacity:1;stroke:none;stroke-width:4.99999;stroke-linecap:round;stroke-linejoin:round;stroke-miterlimit:7.2;stroke-dasharray:none;stroke-opacity:1;paint-order:stroke fill markers"
                   id="path263"
                   d="m 985.30038,-244.86165 c 0.43564,-0.3668 0.89562,-0.70079 1.36218,-1.02674 0.96192,-0.64577 1.9154,-1.30364 2.86136,-1.97252 0.51967,-0.37065 1.03384,-0.75021 1.58438,-1.07436 0.9661,-0.57162 0.15769,-1.93788 -0.80838,-1.36625 v 0 c -0.58626,0.34823 -1.13974,0.74589 -1.69254,1.14441 -0.94371,0.66732 -1.89516,1.32332 -2.85464,1.96781 -0.48048,0.33638 -0.95708,0.67803 -1.40486,1.05765 -0.89802,0.67352 0.0545,1.94352 0.9525,1.27 z" /><path
                   style="fill:#000000;fill-opacity:1;stroke:none;stroke-width:4.99999;stroke-linecap:round;stroke-linejoin:round;stroke-miterlimit:7.2;stroke-dasharray:none;stroke-opacity:1;paint-order:stroke fill markers"
                   id="path264"
                   d="m 990.45452,-249.77183 c -0.003,0.001 -0.004,0.002 -0.005,0.004 -0.0167,0.12983 -0.0271,0.26037 -0.0421,0.3904 -0.044,0.3827 -0.0855,0.7649 -0.12121,1.14851 -0.013,0.15326 -0.027,0.30643 -0.0388,0.45978 -0.0389,0.5031 -0.0291,0.47648 -0.0725,0.99355 -0.0454,0.54278 -0.10318,1.08467 -0.15734,1.62663 -0.0679,0.6208 -0.10319,1.24462 -0.16307,1.86611 -0.0257,0.26673 -0.0587,0.52958 -0.0906,0.79559 -0.0821,0.52283 -0.12528,1.05031 -0.181,1.57621 -0.0329,0.31082 -0.0464,0.39272 -0.0885,0.70129 -0.11586,0.69487 -0.19799,1.39407 -0.27064,2.09449 -0.0426,0.46208 -0.0848,0.92429 -0.11555,1.38734 -0.0175,0.26047 -0.0206,0.52154 -0.0222,0.7825 0.005,0.14606 -0.0106,0.29122 -0.0199,0.43679 -0.0201,0.0776 0,0.16892 -0.0295,0.24417 -0.003,0.006 0,-0.0122 0,-0.0184 -0.28617,1.08545 1.24889,1.49013 1.53503,0.40468 v 0 c 0.0408,-0.17468 0.0655,-0.35094 0.0781,-0.53002 0.0111,-0.17574 0.0279,-0.35134 0.023,-0.52766 0.003,-0.22918 0.004,-0.45847 0.019,-0.68723 0.0293,-0.44338 0.0701,-0.88591 0.11052,-1.32838 0.0709,-0.68377 0.15134,-1.36626 0.26466,-2.04459 0.0468,-0.34537 0.0588,-0.415 0.0956,-0.76263 0.0545,-0.51383 0.0964,-1.02924 0.17709,-1.54003 0.0363,-0.30361 0.0667,-0.54401 0.0961,-0.8495 0.059,-0.61377 0.094,-1.22981 0.16092,-1.8429 0.0555,-0.55492 0.11425,-1.10977 0.16076,-1.66554 0.0474,-0.56634 0.03,-0.44401 0.0713,-0.97899 0.0116,-0.14896 0.0251,-0.29776 0.0376,-0.44663 0.0522,-0.56402 0.12483,-1.12573 0.1746,-1.68988 0,-1.12253 -1.5875,-1.12253 -1.5875,0 z" /></g><g
                 id="g268"
                 transform="matrix(0.29350279,0,0,0.29350279,699.05197,-141.43818)"><path
                   style="fill:#000000;fill-opacity:1;stroke:none;stroke-width:4.99999;stroke-linecap:round;stroke-linejoin:round;stroke-miterlimit:7.2;stroke-dasharray:none;stroke-opacity:1;paint-order:stroke fill markers"
                   id="path266"
                   d="m 984.24252,-233.57056 c 0.93414,0 1.86831,0 2.80244,0 2.19165,-5.3e-4 4.38325,-0.016 6.57487,-0.0261 0.79576,-0.004 1.59153,-0.006 2.38731,-0.009 1.12252,-0.003 1.11813,-1.5906 -0.005,-1.58749 v 0 c -0.79676,0.002 -1.5935,0.005 -2.39024,0.009 -2.18916,0.0101 -4.37835,0.0255 -6.56754,0.0261 -0.93414,0 -1.8683,0 -2.80244,0 -1.12255,0 -1.12255,1.5875 0,1.5875 z" /><path
                   style="fill:#000000;fill-opacity:1;stroke:none;stroke-width:4.99999;stroke-linecap:round;stroke-linejoin:round;stroke-miterlimit:7.2;stroke-dasharray:none;stroke-opacity:1;paint-order:stroke fill markers"
                   id="path267"
                   d="m 985.30038,-244.86165 c 0.43564,-0.3668 0.89562,-0.70079 1.36218,-1.02674 0.96192,-0.64577 1.9154,-1.30364 2.86136,-1.97252 0.51967,-0.37065 1.03384,-0.75021 1.58438,-1.07436 0.9661,-0.57162 0.15769,-1.93788 -0.80838,-1.36625 v 0 c -0.58626,0.34823 -1.13974,0.74589 -1.69254,1.14441 -0.94371,0.66732 -1.89516,1.32332 -2.85464,1.96781 -0.48048,0.33638 -0.95708,0.67803 -1.40486,1.05765 -0.89802,0.67352 0.0545,1.94352 0.9525,1.27 z" /><path
                   style="fill:#000000;fill-opacity:1;stroke:none;stroke-width:4.99999;stroke-linecap:round;stroke-linejoin:round;stroke-miterlimit:7.2;stroke-dasharray:none;stroke-opacity:1;paint-order:stroke fill markers"
                   id="path268"
                   d="m 990.45452,-249.77183 c -0.003,0.001 -0.004,0.002 -0.005,0.004 -0.0167,0.12983 -0.0271,0.26037 -0.0421,0.3904 -0.044,0.3827 -0.0855,0.7649 -0.12121,1.14851 -0.013,0.15326 -0.027,0.30643 -0.0388,0.45978 -0.0389,0.5031 -0.0291,0.47648 -0.0725,0.99355 -0.0454,0.54278 -0.10318,1.08467 -0.15734,1.62663 -0.0679,0.6208 -0.10319,1.24462 -0.16307,1.86611 -0.0257,0.26673 -0.0587,0.52958 -0.0906,0.79559 -0.0821,0.52283 -0.12528,1.05031 -0.181,1.57621 -0.0329,0.31082 -0.0464,0.39272 -0.0885,0.70129 -0.11586,0.69487 -0.19799,1.39407 -0.27064,2.09449 -0.0426,0.46208 -0.0848,0.92429 -0.11555,1.38734 -0.0175,0.26047 -0.0206,0.52154 -0.0222,0.7825 0.005,0.14606 -0.0106,0.29122 -0.0199,0.43679 -0.0201,0.0776 0,0.16892 -0.0295,0.24417 -0.003,0.006 0,-0.0122 0,-0.0184 -0.28617,1.08545 1.24889,1.49013 1.53503,0.40468 v 0 c 0.0408,-0.17468 0.0655,-0.35094 0.0781,-0.53002 0.0111,-0.17574 0.0279,-0.35134 0.023,-0.52766 0.003,-0.22918 0.004,-0.45847 0.019,-0.68723 0.0293,-0.44338 0.0701,-0.88591 0.11052,-1.32838 0.0709,-0.68377 0.15134,-1.36626 0.26466,-2.04459 0.0468,-0.34537 0.0588,-0.415 0.0956,-0.76263 0.0545,-0.51383 0.0964,-1.02924 0.17709,-1.54003 0.0363,-0.30361 0.0667,-0.54401 0.0961,-0.8495 0.059,-0.61377 0.094,-1.22981 0.16092,-1.8429 0.0555,-0.55492 0.11425,-1.10977 0.16076,-1.66554 0.0474,-0.56634 0.03,-0.44401 0.0713,-0.97899 0.0116,-0.14896 0.0251,-0.29776 0.0376,-0.44663 0.0522,-0.56402 0.12483,-1.12573 0.1746,-1.68988 0,-1.12253 -1.5875,-1.12253 -1.5875,0 z" /></g><ellipse
                 style="fill:none;fill-opacity:1;stroke:#000000;stroke-width:0.572849;stroke-linecap:round;stroke-linejoin:round;stroke-miterlimit:7.2;stroke-dasharray:none;stroke-opacity:1;paint-order:stroke fill markers"
                 id="path271"
                 cx="989.65594"
                 cy="-243.12384"
                 rx="1.6491261"
                 ry="2.0614076" /><ellipse
                 style="fill:none;fill-opacity:1;stroke:#000000;stroke-width:0.572849;stroke-linecap:round;stroke-linejoin:round;stroke-miterlimit:7.2;stroke-dasharray:none;stroke-opacity:1;paint-order:stroke fill markers"
                 id="ellipse271"
                 cx="989.65594"
                 cy="-220.11235"
                 rx="1.6491261"
                 ry="2.0614076" /><ellipse
                 style="fill:none;fill-opacity:1;stroke:#000000;stroke-width:0.572849;stroke-linecap:round;stroke-linejoin:round;stroke-miterlimit:7.2;stroke-dasharray:none;stroke-opacity:1;paint-order:stroke fill markers"
                 id="ellipse272"
                 cx="989.65594"
                 cy="-204.87357"
                 rx="1.6491261"
                 ry="2.0614076" /><ellipse
                 style="fill:none;fill-opacity:1;stroke:#000000;stroke-width:0.572849;stroke-linecap:round;stroke-linejoin:round;stroke-miterlimit:7.2;stroke-dasharray:none;stroke-opacity:1;paint-order:stroke fill markers"
                 id="ellipse273"
                 cx="989.65594"
                 cy="-197.4075"
                 rx="1.6491261"
                 ry="2.0614076" /></g><g
               id="g416"
               transform="translate(141.46731,-17.099298)"><g
                 id="g407"
                 transform="matrix(0.29350279,0,0,0.29350279,687.65244,-65.314463)"><path
                   style="fill:#000000;fill-opacity:1;stroke:none;stroke-width:4.99999;stroke-linecap:round;stroke-linejoin:round;stroke-miterlimit:7.2;stroke-dasharray:none;stroke-opacity:1;paint-order:stroke fill markers"
                   id="path405"
                   d="m 984.24252,-233.57056 c 0.93414,0 1.86831,0 2.80244,0 2.19165,-5.3e-4 4.38325,-0.016 6.57487,-0.0261 0.79576,-0.004 1.59153,-0.006 2.38731,-0.009 1.12252,-0.003 1.11813,-1.5906 -0.005,-1.58749 v 0 c -0.79676,0.002 -1.5935,0.005 -2.39024,0.009 -2.18916,0.0101 -4.37835,0.0255 -6.56754,0.0261 -0.93414,0 -1.8683,0 -2.80244,0 -1.12255,0 -1.12255,1.5875 0,1.5875 z" /><path
                   style="fill:#000000;fill-opacity:1;stroke:none;stroke-width:4.99999;stroke-linecap:round;stroke-linejoin:round;stroke-miterlimit:7.2;stroke-dasharray:none;stroke-opacity:1;paint-order:stroke fill markers"
                   id="path406"
                   d="m 985.30038,-244.86165 c 0.43564,-0.3668 0.89562,-0.70079 1.36218,-1.02674 0.96192,-0.64577 1.9154,-1.30364 2.86136,-1.97252 0.51967,-0.37065 1.03384,-0.75021 1.58438,-1.07436 0.9661,-0.57162 0.15769,-1.93788 -0.80838,-1.36625 v 0 c -0.58626,0.34823 -1.13974,0.74589 -1.69254,1.14441 -0.94371,0.66732 -1.89516,1.32332 -2.85464,1.96781 -0.48048,0.33638 -0.95708,0.67803 -1.40486,1.05765 -0.89802,0.67352 0.0545,1.94352 0.9525,1.27 z" /><path
                   style="fill:#000000;fill-opacity:1;stroke:none;stroke-width:4.99999;stroke-linecap:round;stroke-linejoin:round;stroke-miterlimit:7.2;stroke-dasharray:none;stroke-opacity:1;paint-order:stroke fill markers"
                   id="path407"
                   d="m 990.45452,-249.77183 c -0.003,0.001 -0.004,0.002 -0.005,0.004 -0.0167,0.12983 -0.0271,0.26037 -0.0421,0.3904 -0.044,0.3827 -0.0855,0.7649 -0.12121,1.14851 -0.013,0.15326 -0.027,0.30643 -0.0388,0.45978 -0.0389,0.5031 -0.0291,0.47648 -0.0725,0.99355 -0.0454,0.54278 -0.10318,1.08467 -0.15734,1.62663 -0.0679,0.6208 -0.10319,1.24462 -0.16307,1.86611 -0.0257,0.26673 -0.0587,0.52958 -0.0906,0.79559 -0.0821,0.52283 -0.12528,1.05031 -0.181,1.57621 -0.0329,0.31082 -0.0464,0.39272 -0.0885,0.70129 -0.11586,0.69487 -0.19799,1.39407 -0.27064,2.09449 -0.0426,0.46208 -0.0848,0.92429 -0.11555,1.38734 -0.0175,0.26047 -0.0206,0.52154 -0.0222,0.7825 0.005,0.14606 -0.0106,0.29122 -0.0199,0.43679 -0.0201,0.0776 0,0.16892 -0.0295,0.24417 -0.003,0.006 0,-0.0122 0,-0.0184 -0.28617,1.08545 1.24889,1.49013 1.53503,0.40468 v 0 c 0.0408,-0.17468 0.0655,-0.35094 0.0781,-0.53002 0.0111,-0.17574 0.0279,-0.35134 0.023,-0.52766 0.003,-0.22918 0.004,-0.45847 0.019,-0.68723 0.0293,-0.44338 0.0701,-0.88591 0.11052,-1.32838 0.0709,-0.68377 0.15134,-1.36626 0.26466,-2.04459 0.0468,-0.34537 0.0588,-0.415 0.0956,-0.76263 0.0545,-0.51383 0.0964,-1.02924 0.17709,-1.54003 0.0363,-0.30361 0.0667,-0.54401 0.0961,-0.8495 0.059,-0.61377 0.094,-1.22981 0.16092,-1.8429 0.0555,-0.55492 0.11425,-1.10977 0.16076,-1.66554 0.0474,-0.56634 0.03,-0.44401 0.0713,-0.97899 0.0116,-0.14896 0.0251,-0.29776 0.0376,-0.44663 0.0522,-0.56402 0.12483,-1.12573 0.1746,-1.68988 0,-1.12253 -1.5875,-1.12253 -1.5875,0 z" /></g><g
                 id="g410"
                 transform="matrix(0.29350279,0,0,0.29350279,687.65244,-57.541743)"><path
                   style="fill:#000000;fill-opacity:1;stroke:none;stroke-width:4.99999;stroke-linecap:round;stroke-linejoin:round;stroke-miterlimit:7.2;stroke-dasharray:none;stroke-opacity:1;paint-order:stroke fill markers"
                   id="path408"
                   d="m 984.24252,-233.57056 c 0.93414,0 1.86831,0 2.80244,0 2.19165,-5.3e-4 4.38325,-0.016 6.57487,-0.0261 0.79576,-0.004 1.59153,-0.006 2.38731,-0.009 1.12252,-0.003 1.11813,-1.5906 -0.005,-1.58749 v 0 c -0.79676,0.002 -1.5935,0.005 -2.39024,0.009 -2.18916,0.0101 -4.37835,0.0255 -6.56754,0.0261 -0.93414,0 -1.8683,0 -2.80244,0 -1.12255,0 -1.12255,1.5875 0,1.5875 z" /><path
                   style="fill:#000000;fill-opacity:1;stroke:none;stroke-width:4.99999;stroke-linecap:round;stroke-linejoin:round;stroke-miterlimit:7.2;stroke-dasharray:none;stroke-opacity:1;paint-order:stroke fill markers"
                   id="path409"
                   d="m 985.30038,-244.86165 c 0.43564,-0.3668 0.89562,-0.70079 1.36218,-1.02674 0.96192,-0.64577 1.9154,-1.30364 2.86136,-1.97252 0.51967,-0.37065 1.03384,-0.75021 1.58438,-1.07436 0.9661,-0.57162 0.15769,-1.93788 -0.80838,-1.36625 v 0 c -0.58626,0.34823 -1.13974,0.74589 -1.69254,1.14441 -0.94371,0.66732 -1.89516,1.32332 -2.85464,1.96781 -0.48048,0.33638 -0.95708,0.67803 -1.40486,1.05765 -0.89802,0.67352 0.0545,1.94352 0.9525,1.27 z" /><path
                   style="fill:#000000;fill-opacity:1;stroke:none;stroke-width:4.99999;stroke-linecap:round;stroke-linejoin:round;stroke-miterlimit:7.2;stroke-dasharray:none;stroke-opacity:1;paint-order:stroke fill markers"
                   id="path410"
                   d="m 990.45452,-249.77183 c -0.003,0.001 -0.004,0.002 -0.005,0.004 -0.0167,0.12983 -0.0271,0.26037 -0.0421,0.3904 -0.044,0.3827 -0.0855,0.7649 -0.12121,1.14851 -0.013,0.15326 -0.027,0.30643 -0.0388,0.45978 -0.0389,0.5031 -0.0291,0.47648 -0.0725,0.99355 -0.0454,0.54278 -0.10318,1.08467 -0.15734,1.62663 -0.0679,0.6208 -0.10319,1.24462 -0.16307,1.86611 -0.0257,0.26673 -0.0587,0.52958 -0.0906,0.79559 -0.0821,0.52283 -0.12528,1.05031 -0.181,1.57621 -0.0329,0.31082 -0.0464,0.39272 -0.0885,0.70129 -0.11586,0.69487 -0.19799,1.39407 -0.27064,2.09449 -0.0426,0.46208 -0.0848,0.92429 -0.11555,1.38734 -0.0175,0.26047 -0.0206,0.52154 -0.0222,0.7825 0.005,0.14606 -0.0106,0.29122 -0.0199,0.43679 -0.0201,0.0776 0,0.16892 -0.0295,0.24417 -0.003,0.006 0,-0.0122 0,-0.0184 -0.28617,1.08545 1.24889,1.49013 1.53503,0.40468 v 0 c 0.0408,-0.17468 0.0655,-0.35094 0.0781,-0.53002 0.0111,-0.17574 0.0279,-0.35134 0.023,-0.52766 0.003,-0.22918 0.004,-0.45847 0.019,-0.68723 0.0293,-0.44338 0.0701,-0.88591 0.11052,-1.32838 0.0709,-0.68377 0.15134,-1.36626 0.26466,-2.04459 0.0468,-0.34537 0.0588,-0.415 0.0956,-0.76263 0.0545,-0.51383 0.0964,-1.02924 0.17709,-1.54003 0.0363,-0.30361 0.0667,-0.54401 0.0961,-0.8495 0.059,-0.61377 0.094,-1.22981 0.16092,-1.8429 0.0555,-0.55492 0.11425,-1.10977 0.16076,-1.66554 0.0474,-0.56634 0.03,-0.44401 0.0713,-0.97899 0.0116,-0.14896 0.0251,-0.29776 0.0376,-0.44663 0.0522,-0.56402 0.12483,-1.12573 0.1746,-1.68988 0,-1.12253 -1.5875,-1.12253 -1.5875,0 z" /></g><g
                 id="g413"
                 transform="matrix(0.29350279,0,0,0.29350279,687.65244,-42.302963)"><path
                   style="fill:#000000;fill-opacity:1;stroke:none;stroke-width:4.99999;stroke-linecap:round;stroke-linejoin:round;stroke-miterlimit:7.2;stroke-dasharray:none;stroke-opacity:1;paint-order:stroke fill markers"
                   id="path411"
                   d="m 984.24252,-233.57056 c 0.93414,0 1.86831,0 2.80244,0 2.19165,-5.3e-4 4.38325,-0.016 6.57487,-0.0261 0.79576,-0.004 1.59153,-0.006 2.38731,-0.009 1.12252,-0.003 1.11813,-1.5906 -0.005,-1.58749 v 0 c -0.79676,0.002 -1.5935,0.005 -2.39024,0.009 -2.18916,0.0101 -4.37835,0.0255 -6.56754,0.0261 -0.93414,0 -1.8683,0 -2.80244,0 -1.12255,0 -1.12255,1.5875 0,1.5875 z" /><path
                   style="fill:#000000;fill-opacity:1;stroke:none;stroke-width:4.99999;stroke-linecap:round;stroke-linejoin:round;stroke-miterlimit:7.2;stroke-dasharray:none;stroke-opacity:1;paint-order:stroke fill markers"
                   id="path412"
                   d="m 985.30038,-244.86165 c 0.43564,-0.3668 0.89562,-0.70079 1.36218,-1.02674 0.96192,-0.64577 1.9154,-1.30364 2.86136,-1.97252 0.51967,-0.37065 1.03384,-0.75021 1.58438,-1.07436 0.9661,-0.57162 0.15769,-1.93788 -0.80838,-1.36625 v 0 c -0.58626,0.34823 -1.13974,0.74589 -1.69254,1.14441 -0.94371,0.66732 -1.89516,1.32332 -2.85464,1.96781 -0.48048,0.33638 -0.95708,0.67803 -1.40486,1.05765 -0.89802,0.67352 0.0545,1.94352 0.9525,1.27 z" /><path
                   style="fill:#000000;fill-opacity:1;stroke:none;stroke-width:4.99999;stroke-linecap:round;stroke-linejoin:round;stroke-miterlimit:7.2;stroke-dasharray:none;stroke-opacity:1;paint-order:stroke fill markers"
                   id="path413"
                   d="m 990.45452,-249.77183 c -0.003,0.001 -0.004,0.002 -0.005,0.004 -0.0167,0.12983 -0.0271,0.26037 -0.0421,0.3904 -0.044,0.3827 -0.0855,0.7649 -0.12121,1.14851 -0.013,0.15326 -0.027,0.30643 -0.0388,0.45978 -0.0389,0.5031 -0.0291,0.47648 -0.0725,0.99355 -0.0454,0.54278 -0.10318,1.08467 -0.15734,1.62663 -0.0679,0.6208 -0.10319,1.24462 -0.16307,1.86611 -0.0257,0.26673 -0.0587,0.52958 -0.0906,0.79559 -0.0821,0.52283 -0.12528,1.05031 -0.181,1.57621 -0.0329,0.31082 -0.0464,0.39272 -0.0885,0.70129 -0.11586,0.69487 -0.19799,1.39407 -0.27064,2.09449 -0.0426,0.46208 -0.0848,0.92429 -0.11555,1.38734 -0.0175,0.26047 -0.0206,0.52154 -0.0222,0.7825 0.005,0.14606 -0.0106,0.29122 -0.0199,0.43679 -0.0201,0.0776 0,0.16892 -0.0295,0.24417 -0.003,0.006 0,-0.0122 0,-0.0184 -0.28617,1.08545 1.24889,1.49013 1.53503,0.40468 v 0 c 0.0408,-0.17468 0.0655,-0.35094 0.0781,-0.53002 0.0111,-0.17574 0.0279,-0.35134 0.023,-0.52766 0.003,-0.22918 0.004,-0.45847 0.019,-0.68723 0.0293,-0.44338 0.0701,-0.88591 0.11052,-1.32838 0.0709,-0.68377 0.15134,-1.36626 0.26466,-2.04459 0.0468,-0.34537 0.0588,-0.415 0.0956,-0.76263 0.0545,-0.51383 0.0964,-1.02924 0.17709,-1.54003 0.0363,-0.30361 0.0667,-0.54401 0.0961,-0.8495 0.059,-0.61377 0.094,-1.22981 0.16092,-1.8429 0.0555,-0.55492 0.11425,-1.10977 0.16076,-1.66554 0.0474,-0.56634 0.03,-0.44401 0.0713,-0.97899 0.0116,-0.14896 0.0251,-0.29776 0.0376,-0.44663 0.0522,-0.56402 0.12483,-1.12573 0.1746,-1.68988 0,-1.12253 -1.5875,-1.12253 -1.5875,0 z" /></g><ellipse
                 style="fill:none;fill-opacity:1;stroke:#000000;stroke-width:0.572849;stroke-linecap:round;stroke-linejoin:round;stroke-miterlimit:7.2;stroke-dasharray:none;stroke-opacity:1;paint-order:stroke fill markers"
                 id="ellipse413"
                 cx="978.25641"
                 cy="-143.98862"
                 rx="1.6491261"
                 ry="2.0614076" /><ellipse
                 style="fill:none;fill-opacity:1;stroke:#000000;stroke-width:0.572849;stroke-linecap:round;stroke-linejoin:round;stroke-miterlimit:7.2;stroke-dasharray:none;stroke-opacity:1;paint-order:stroke fill markers"
                 id="ellipse414"
                 cx="978.25641"
                 cy="-120.97713"
                 rx="1.6491261"
                 ry="2.0614076" /><ellipse
                 style="fill:none;fill-opacity:1;stroke:#000000;stroke-width:0.572849;stroke-linecap:round;stroke-linejoin:round;stroke-miterlimit:7.2;stroke-dasharray:none;stroke-opacity:1;paint-order:stroke fill markers"
                 id="ellipse415"
                 cx="978.25641"
                 cy="-105.73835"
                 rx="1.6491261"
                 ry="2.0614076" /><ellipse
                 style="fill:none;fill-opacity:1;stroke:#000000;stroke-width:0.572849;stroke-linecap:round;stroke-linejoin:round;stroke-miterlimit:7.2;stroke-dasharray:none;stroke-opacity:1;paint-order:stroke fill markers"
                 id="ellipse416"
                 cx="978.25641"
                 cy="-98.272285"
                 rx="1.6491261"
                 ry="2.0614076" /></g><g
               id="g417"
               transform="translate(129.26255,-26.21411)"><rect
                 style="fill:#ffffff;fill-opacity:1;stroke:#000000;stroke-width:7;stroke-linecap:round;stroke-linejoin:round;stroke-miterlimit:7.2;stroke-dasharray:none;stroke-opacity:1;paint-order:stroke fill markers"
                 id="rect229"
                 width="149.69847"
                 height="29.939692"
                 x="915.61194"
                 y="-103.73168" /><g
                 id="g277"
                 transform="translate(1.0178154,13.638726)"><g
                   id="g276"
                   transform="translate(49.233315,-18.915445)"><g
                     id="g274"
                     transform="translate(57.000569,68.515835)"><circle
                       style="fill:#ffffff;fill-opacity:1;stroke:#000000;stroke-width:3.52221;stroke-linecap:round;stroke-linejoin:round;stroke-miterlimit:7.2;stroke-dasharray:none;paint-order:stroke fill markers"
                       id="circle273"
                       cx="946.90808"
                       cy="-145.77765"
                       r="3.041944" /><path
                       style="fill:#000000;fill-opacity:1;stroke:none;stroke-width:4.99999;stroke-linecap:round;stroke-linejoin:round;stroke-miterlimit:7.2;stroke-dasharray:none;stroke-opacity:1;paint-order:stroke fill markers"
                       id="path273"
                       d="m 948.24845,-146.05599 c 0.0567,0.2608 0.0764,0.52769 0,0.78735 -0.0241,0.0827 -0.0598,0.16145 -0.0897,0.24217 -0.19696,0.35415 -0.50866,0.61513 -0.81267,0.8735 -0.5684,0.48675 0.11999,1.29061 0.68839,0.80383 v 0 c 0.44696,-0.38516 0.88292,-0.78378 1.12602,-1.33588 0.0438,-0.13547 0.0985,-0.26784 0.13134,-0.40635 0.10205,-0.43021 0.0732,-0.87553 -0.0403,-1.29929 -0.23665,-0.70996 -1.24066,-0.37529 -1.00402,0.33467 z" /></g></g></g><g
                 id="g281"
                 transform="translate(-10.788843,13.638726)"><g
                   id="g280"
                   transform="translate(49.233315,-18.915445)"><g
                     id="g279"
                     transform="translate(57.000569,68.515835)"><circle
                       style="fill:#ffffff;fill-opacity:1;stroke:#000000;stroke-width:3.52221;stroke-linecap:round;stroke-linejoin:round;stroke-miterlimit:7.2;stroke-dasharray:none;paint-order:stroke fill markers"
                       id="circle277"
                       cx="946.90808"
                       cy="-145.77765"
                       r="3.041944" /><path
                       style="fill:#000000;fill-opacity:1;stroke:none;stroke-width:4.99999;stroke-linecap:round;stroke-linejoin:round;stroke-miterlimit:7.2;stroke-dasharray:none;stroke-opacity:1;paint-order:stroke fill markers"
                       id="path277"
                       d="m 948.24845,-146.05599 c 0.0567,0.2608 0.0764,0.52769 0,0.78735 -0.0241,0.0827 -0.0598,0.16145 -0.0897,0.24217 -0.19696,0.35415 -0.50866,0.61513 -0.81267,0.8735 -0.5684,0.48675 0.11999,1.29061 0.68839,0.80383 v 0 c 0.44696,-0.38516 0.88292,-0.78378 1.12602,-1.33588 0.0438,-0.13547 0.0985,-0.26784 0.13134,-0.40635 0.10205,-0.43021 0.0732,-0.87553 -0.0403,-1.29929 -0.23665,-0.70996 -1.24066,-0.37529 -1.00402,0.33467 z" /></g></g></g><path
                 style="fill:#ffffff;fill-opacity:1;stroke:#000000;stroke-width:4;stroke-linecap:round;stroke-linejoin:round;stroke-miterlimit:7.2;stroke-dasharray:none;stroke-opacity:1;paint-order:stroke fill markers"
                 id="path281"
                 d="m 998.7269,-81.642326 c 2.3259,0 4.6518,0 6.9777,0 3.6477,-0.03704 7.2946,-0.119107 10.9422,-0.166737 3.2574,-0.03211 6.515,-0.03495 9.7726,-0.03767 1.3543,-7.94e-4 2.7086,-5.29e-4 4.0629,-2.46e-4 1.1225,2.64e-4 1.123,-1.587175 0,-1.5875 v 0 c -1.3549,-2.65e-4 -2.7098,-5.3e-4 -4.0647,2.48e-4 -3.264,0.0027 -6.5281,0.0056 -9.792,0.03781 -3.6406,0.04756 -7.2807,0.129286 -10.9215,0.166602 -2.3259,0 -4.6518,0 -6.97768,0 -1.12255,0 -1.12255,1.5875 0,1.5875 z" /><g
                 id="g284"
                 transform="translate(-127.22692,0.81425229)"><g
                   id="g283"
                   transform="translate(49.233315,-18.915445)"><g
                     id="g282"
                     transform="translate(57.000569,68.515835)"><circle
                       style="fill:#ffffff;fill-opacity:1;stroke:#000000;stroke-width:3.52221;stroke-linecap:round;stroke-linejoin:round;stroke-miterlimit:7.2;stroke-dasharray:none;paint-order:stroke fill markers"
                       id="circle281"
                       cx="946.90808"
                       cy="-145.77765"
                       r="3.041944" /><path
                       style="fill:#000000;fill-opacity:1;stroke:none;stroke-width:4.99999;stroke-linecap:round;stroke-linejoin:round;stroke-miterlimit:7.2;stroke-dasharray:none;stroke-opacity:1;paint-order:stroke fill markers"
                       id="path282"
                       d="m 948.24845,-146.05599 c 0.0567,0.2608 0.0764,0.52769 0,0.78735 -0.0241,0.0827 -0.0598,0.16145 -0.0897,0.24217 -0.19696,0.35415 -0.50866,0.61513 -0.81267,0.8735 -0.5684,0.48675 0.11999,1.29061 0.68839,0.80383 v 0 c 0.44696,-0.38516 0.88292,-0.78378 1.12602,-1.33588 0.0438,-0.13547 0.0985,-0.26784 0.13134,-0.40635 0.10205,-0.43021 0.0732,-0.87553 -0.0403,-1.29929 -0.23665,-0.70996 -1.24066,-0.37529 -1.00402,0.33467 z" /></g></g></g><g
                 id="g287"
                 transform="translate(-115.62382,0.81425229)"><g
                   id="g286"
                   transform="translate(49.233315,-18.915445)"><g
                     id="g285"
                     transform="translate(57.000569,68.515835)"><circle
                       style="fill:#ffffff;fill-opacity:1;stroke:#000000;stroke-width:3.52221;stroke-linecap:round;stroke-linejoin:round;stroke-miterlimit:7.2;stroke-dasharray:none;paint-order:stroke fill markers"
                       id="circle284"
                       cx="946.90808"
                       cy="-145.77765"
                       r="3.041944" /><path
                       style="fill:#000000;fill-opacity:1;stroke:none;stroke-width:4.99999;stroke-linecap:round;stroke-linejoin:round;stroke-miterlimit:7.2;stroke-dasharray:none;stroke-opacity:1;paint-order:stroke fill markers"
                       id="path284"
                       d="m 948.24845,-146.05599 c 0.0567,0.2608 0.0764,0.52769 0,0.78735 -0.0241,0.0827 -0.0598,0.16145 -0.0897,0.24217 -0.19696,0.35415 -0.50866,0.61513 -0.81267,0.8735 -0.5684,0.48675 0.11999,1.29061 0.68839,0.80383 v 0 c 0.44696,-0.38516 0.88292,-0.78378 1.12602,-1.33588 0.0438,-0.13547 0.0985,-0.26784 0.13134,-0.40635 0.10205,-0.43021 0.0732,-0.87553 -0.0403,-1.29929 -0.23665,-0.70996 -1.24066,-0.37529 -1.00402,0.33467 z" /></g></g></g></g><g
               id="g249"
               transform="translate(126.61321,6.7466882)"
               style="stroke-width:6.49855;stroke-dasharray:none"><rect
                 style="fill:#ffffff;fill-opacity:1;stroke:#000000;stroke-width:6.49855;stroke-linecap:round;stroke-linejoin:round;stroke-miterlimit:7.2;stroke-dasharray:none;stroke-opacity:1;paint-order:stroke fill markers"
                 id="rect230"
                 width="31.497553"
                 height="41.693752"
                 x="-288.2934"
                 y="-1013.9574"
                 transform="rotate(90)" /><path
                 style="fill:#000000;fill-opacity:1;stroke:none;stroke-width:6.49855;stroke-linecap:round;stroke-linejoin:round;stroke-miterlimit:7.2;stroke-dasharray:none;stroke-opacity:1;paint-order:stroke fill markers"
                 id="path230"
                 d="m 974.06424,-284.37115 c 0.75439,1.1212 1.62219,2.16026 2.49286,3.19173 0.17286,0.2055 0.55792,0.65316 0.72773,0.88983 0.0706,0.0986 0.15928,0.19214 0.19245,0.30881 0.0445,0.15653 -0.45948,0.81284 -0.49904,0.86803 -0.63537,0.77532 -1.38657,1.44208 -2.09686,2.14601 -0.52223,0.51773 0.20998,1.25632 0.73221,0.73858 v 0 c 0.7586,-0.75225 1.5639,-1.46296 2.22785,-2.30448 0.29323,-0.45605 0.57832,-0.76632 0.61922,-1.33429 0.016,-0.22571 -0.0327,-0.45629 -0.10498,-0.67072 -0.0502,-0.14898 -0.16311,-0.26922 -0.25491,-0.39684 -0.17554,-0.24397 -0.56626,-0.69861 -0.74894,-0.91581 -0.86191,-1.02086 -1.7196,-2.04981 -2.46662,-3.15936 -0.45148,-0.58048 -1.27242,0.058 -0.82095,0.63851 z" /><path
                 style="fill:#000000;fill-opacity:1;stroke:none;stroke-width:6.49855;stroke-linecap:round;stroke-linejoin:round;stroke-miterlimit:7.2;stroke-dasharray:none;stroke-opacity:1;paint-order:stroke fill markers"
                 id="path231"
                 d="m 980.76533,-275.87648 c 2.66929,0 5.3386,0 8.00788,0 0.73539,0 0.73539,-1.04 0,-1.04 v 0 c -2.66928,0 -5.33859,0 -8.00788,0 -0.73542,0 -0.73542,1.04 0,1.04 z" /><g
                 id="g246"
                 transform="matrix(0.63963507,0,0,0.63963507,364.27093,-87.322584)"
                 style="stroke-width:10.1598;stroke-dasharray:none"><path
                   style="fill:#000000;fill-opacity:1;stroke:none;stroke-width:10.1598;stroke-linecap:round;stroke-linejoin:round;stroke-miterlimit:7.2;stroke-dasharray:none;stroke-opacity:1;paint-order:stroke fill markers"
                   id="path241"
                   d="m 972.72096,-284.11465 c -0.0338,-0.0913 -0.0619,-0.18483 -0.10136,-0.27376 -0.0285,-0.0641 -0.19558,-0.35529 -0.23141,-0.41713 -0.14364,-0.24786 -0.29633,-0.48581 -0.45847,-0.72194 -0.39536,-0.54987 -0.94548,-0.93801 -1.57638,-1.17655 -0.13902,-0.0526 -0.28327,-0.0901 -0.42487,-0.13522 -0.82968,-0.21783 -1.7032,-0.21525 -2.53444,0.002 -0.20138,0.0525 -0.39632,0.12722 -0.59447,0.19084 -0.82484,0.30711 -1.60597,0.73836 -2.25364,1.34032 -0.10877,0.10109 -0.20794,0.21206 -0.31189,0.31809 -0.37645,0.4479 -0.67054,0.95689 -0.81995,1.5256 -0.0997,0.37964 -0.10133,0.55522 -0.13851,0.941 -0.0357,0.8018 0.13155,1.58707 0.42233,2.33127 0.0542,0.13873 0.11734,0.27381 0.176,0.41072 0.28882,0.58105 0.62408,1.17107 1.10281,1.62069 0.10121,0.095 0.21339,0.17766 0.32007,0.26649 0.58153,0.33905 1.23436,0.52076 1.90349,0.57655 0.39219,0.0327 0.55081,0.0135 0.93745,-0.004 0.719,-0.0723 1.42967,-0.2026 2.14857,-0.2772 0.22379,-0.0116 0.46532,-0.0625 0.68543,0.007 0.0656,0.0208 0.14153,0.0602 0.20201,0.0891 0.27154,0.16778 0.4123,0.4603 0.53554,0.74274 0.13584,0.44067 0.20987,0.91726 0.21731,1.3789 0.003,0.0993 -0.008,0.1985 -0.0124,0.29776 -0.063,0.66079 -0.29191,1.29182 -0.59499,1.87898 -0.07,0.13569 -0.1501,0.26598 -0.22516,0.39897 -0.36444,0.58611 -0.79751,1.13371 -1.31186,1.59633 -0.0955,0.0859 -0.1978,0.16375 -0.29673,0.24563 -0.61915,0.43011 -1.2954,0.78914 -2.01904,1.0086 -0.12792,0.0388 -0.25868,0.0675 -0.38801,0.10118 -0.56793,0.14234 -1.11987,0.16928 -1.69275,0.0412 -0.10261,-0.0229 -0.20262,-0.0562 -0.30393,-0.0843 -0.57136,-0.2137 -0.83309,-0.49373 -1.14498,-0.99922 -0.13888,-0.29576 -0.0799,-0.14501 -0.17778,-0.45193 -0.36827,-1.0604 -1.8679,-0.53957 -1.49963,0.52083 v 0 c 0.19712,0.54279 0.0831,0.28078 0.34023,0.78673 0.0783,0.1197 0.15015,0.24389 0.23492,0.3591 0.46414,0.63079 1.09673,1.07727 1.84076,1.31907 0.15103,0.0387 0.30036,0.0847 0.45302,0.1162 0.78613,0.16234 1.5833,0.1222 2.35929,-0.0738 0.16743,-0.0454 0.33666,-0.0846 0.50223,-0.1363 0.90443,-0.28258 1.75051,-0.73513 2.51537,-1.29064 0.12909,-0.10921 0.26218,-0.21385 0.38725,-0.32762 0.62417,-0.56775 1.14829,-1.23907 1.58771,-1.95711 0.0925,-0.16711 0.19116,-0.33099 0.27755,-0.50134 0.39716,-0.78308 0.67818,-1.62696 0.74342,-2.50597 0.003,-0.15239 0.0122,-0.30478 0.009,-0.45715 -0.003,-0.12192 -0.0159,-0.2434 -0.0269,-0.36484 -0.0487,-0.5312 -0.13029,-1.0621 -0.33031,-1.56004 -0.0517,-0.11 -0.0981,-0.22267 -0.15518,-0.32999 -0.2727,-0.51296 -0.66736,-0.94544 -1.19033,-1.20758 -0.23146,-0.0966 -0.31089,-0.14155 -0.55946,-0.19678 -0.37053,-0.0823 -0.75174,-0.0608 -1.12602,-0.0229 -0.69075,0.0723 -1.37456,0.1896 -2.06401,0.27067 -0.25157,0.0144 -0.40606,0.0312 -0.65773,0.0146 -0.3819,-0.0251 -0.74972,-0.12458 -1.11218,-0.24182 -0.0503,-0.0366 -0.10453,-0.0684 -0.15089,-0.10989 -0.35398,-0.31672 -0.59214,-0.7522 -0.80613,-1.16772 -0.27477,-0.62662 -0.49731,-1.27637 -0.47392,-1.97095 0.0222,-0.28502 0.0386,-0.57618 0.13882,-0.84764 0.088,-0.23824 0.23024,-0.45568 0.38122,-0.65759 0.0664,-0.0707 0.12893,-0.14532 0.19928,-0.21213 0.49281,-0.468 1.08992,-0.80193 1.7227,-1.04117 0.13621,-0.0472 0.26975,-0.1028 0.4086,-0.14152 0.57242,-0.15968 1.17655,-0.18329 1.75363,-0.0407 0.26281,0.0768 0.49541,0.15715 0.73245,0.29618 0.052,0.0305 0.10609,0.0589 0.15266,0.0973 0.0912,0.0751 0.20077,0.21266 0.27705,0.30297 0.13761,0.19799 0.26514,0.39844 0.38621,0.60704 0.0361,0.0622 0.0711,0.12497 0.10697,0.18728 0.0185,0.0324 0.0243,0.0779 0.0566,0.0968 0.0199,0.0117 -0.006,-0.0459 -0.009,-0.0688 0.22016,1.10073 1.77684,0.78939 1.55668,-0.31134 z" /><path
                   style="fill:#000000;fill-opacity:1;stroke:none;stroke-width:10.1598;stroke-linecap:round;stroke-linejoin:round;stroke-miterlimit:7.2;stroke-dasharray:none;stroke-opacity:1;paint-order:stroke fill markers"
                   id="path242"
                   d="m 987.5391,-284.11465 c -0.034,-0.0913 -0.062,-0.18483 -0.1013,-0.27376 -0.029,-0.0641 -0.1956,-0.35529 -0.2314,-0.41713 -0.14361,-0.24786 -0.2963,-0.48581 -0.45844,-0.72194 -0.39536,-0.54987 -0.94548,-0.93801 -1.57638,-1.17655 -0.13902,-0.0526 -0.28327,-0.0901 -0.42487,-0.13522 -0.82968,-0.21783 -1.7032,-0.21525 -2.53444,0.002 -0.20138,0.0525 -0.39632,0.12722 -0.59447,0.19084 -0.82484,0.30711 -1.60597,0.73836 -2.25364,1.34032 -0.10877,0.10109 -0.20794,0.21206 -0.31189,0.31809 -0.37645,0.4479 -0.67054,0.95689 -0.81995,1.5256 -0.0997,0.37964 -0.10133,0.55522 -0.13851,0.941 -0.0357,0.8018 0.13155,1.58707 0.42233,2.33127 0.0542,0.13873 0.11734,0.27381 0.176,0.41072 0.28882,0.58105 0.62408,1.17107 1.10281,1.62069 0.10121,0.095 0.21339,0.17766 0.32007,0.26649 0.58153,0.33905 1.23436,0.52076 1.90349,0.57655 0.39219,0.0327 0.55081,0.0135 0.93745,-0.004 0.719,-0.0723 1.42967,-0.2026 2.14857,-0.2772 0.22379,-0.0116 0.46532,-0.0625 0.68543,0.007 0.0656,0.0208 0.14153,0.0602 0.20201,0.0891 0.27154,0.16778 0.4123,0.4603 0.53554,0.74274 0.13584,0.44067 0.20987,0.91726 0.21731,1.3789 0.003,0.0993 -0.008,0.1985 -0.0124,0.29776 -0.063,0.66079 -0.29191,1.29182 -0.59499,1.87898 -0.07,0.13569 -0.1501,0.26598 -0.22516,0.39897 -0.36444,0.58611 -0.79751,1.13371 -1.31186,1.59633 -0.0955,0.0859 -0.1978,0.16375 -0.29673,0.24563 -0.61915,0.43011 -1.2954,0.78914 -2.01904,1.0086 -0.12792,0.0388 -0.25868,0.0675 -0.38801,0.10118 -0.56793,0.14234 -1.11987,0.16928 -1.69275,0.0412 -0.10261,-0.0229 -0.20262,-0.0562 -0.30393,-0.0843 -0.57136,-0.2137 -0.83309,-0.49373 -1.14498,-0.99922 -0.13888,-0.29576 -0.0799,-0.14501 -0.17778,-0.45193 -0.36827,-1.0604 -1.8679,-0.53957 -1.49963,0.52083 v 0 c 0.19712,0.54279 0.0831,0.28078 0.34023,0.78673 0.0783,0.1197 0.15015,0.24389 0.23492,0.3591 0.46414,0.63079 1.09673,1.07727 1.84076,1.31907 0.15103,0.0387 0.30036,0.0847 0.45302,0.1162 0.78613,0.16234 1.5833,0.1222 2.35929,-0.0738 0.16743,-0.0454 0.33666,-0.0846 0.50223,-0.1363 0.90443,-0.28258 1.75051,-0.73513 2.51537,-1.29064 0.12909,-0.10921 0.26218,-0.21385 0.38725,-0.32762 0.62417,-0.56775 1.14829,-1.23907 1.58767,-1.95711 0.093,-0.16711 0.1911,-0.33099 0.2775,-0.50134 0.3972,-0.78308 0.6782,-1.62696 0.7434,-2.50597 0,-0.15239 0.012,-0.30478 0.01,-0.45715 0,-0.12192 -0.016,-0.2434 -0.027,-0.36484 -0.049,-0.5312 -0.1302,-1.0621 -0.3303,-1.56004 -0.052,-0.11 -0.098,-0.22267 -0.1551,-0.32999 -0.2727,-0.51296 -0.6674,-0.94544 -1.19031,-1.20758 -0.23146,-0.0966 -0.31089,-0.14155 -0.55946,-0.19678 -0.37053,-0.0823 -0.75174,-0.0608 -1.12602,-0.0229 -0.69075,0.0723 -1.37456,0.1896 -2.06401,0.27067 -0.25157,0.0144 -0.40606,0.0312 -0.65773,0.0146 -0.3819,-0.0251 -0.74972,-0.12458 -1.11218,-0.24182 -0.0503,-0.0366 -0.10453,-0.0684 -0.15089,-0.10989 -0.35398,-0.31672 -0.59214,-0.7522 -0.80613,-1.16772 -0.27477,-0.62662 -0.49731,-1.27637 -0.47392,-1.97095 0.0222,-0.28502 0.0386,-0.57618 0.13882,-0.84764 0.088,-0.23824 0.23024,-0.45568 0.38122,-0.65759 0.0664,-0.0707 0.12893,-0.14532 0.19928,-0.21213 0.49281,-0.468 1.08992,-0.80193 1.7227,-1.04117 0.13621,-0.0472 0.26975,-0.1028 0.4086,-0.14152 0.57242,-0.15968 1.17655,-0.18329 1.75363,-0.0407 0.26281,0.0768 0.49541,0.15715 0.73245,0.29618 0.052,0.0305 0.10609,0.0589 0.15266,0.0973 0.0912,0.0751 0.20077,0.21266 0.27705,0.30297 0.13761,0.19799 0.26514,0.39844 0.38621,0.60704 0.0361,0.0622 0.0711,0.12497 0.10697,0.18728 0.0185,0.0324 0.0243,0.0779 0.0566,0.0968 0.0199,0.0117 -0.006,-0.0459 -0.009,-0.0688 0.22016,1.10073 1.77676,0.78939 1.55666,-0.31134 z" /><g
                   id="g245"
                   transform="translate(-12.882704)"
                   style="fill:#000000;stroke-width:10.1598;stroke-dasharray:none"><path
                     style="fill:#000000;fill-opacity:1;stroke:none;stroke-width:10.1598;stroke-linecap:round;stroke-linejoin:round;stroke-miterlimit:7.2;stroke-dasharray:none;stroke-opacity:1;paint-order:stroke fill markers"
                     id="path243"
                     d="m 1004.9251,-285.90991 c 0.1,0.66824 0.2029,1.33539 0.3283,1.99953 0.1701,1.04713 0.2626,2.10462 0.3252,3.16298 0.053,1.01068 0.055,2.0226 0.035,3.03412 -0.057,1.059 -0.1384,2.1167 -0.2354,3.17273 -0.081,0.97639 -0.2074,1.94669 -0.3536,2.91514 -0.1281,0.86672 -0.2043,1.74021 -0.2708,2.61351 -0.01,0.0903 -0.018,0.18053 -0.027,0.27079 -0.1108,1.11705 1.4689,1.27376 1.5797,0.15671 v 0 c 0.01,-0.1024 0.02,-0.20479 0.03,-0.30719 0.063,-0.83432 0.1357,-1.66887 0.2577,-2.49695 0.1507,-0.99896 0.2805,-1.99993 0.3647,-3.00701 0.1002,-1.09354 0.1856,-2.1888 0.2417,-3.28555 0.021,-1.0536 0.019,-2.10762 -0.037,-3.16031 -0.067,-1.12575 -0.166,-2.25067 -0.3501,-3.36404 -0.1183,-0.62433 -0.2156,-1.25175 -0.3103,-1.87977 -0.124,-1.11567 -1.7018,-0.94036 -1.5778,0.17531 z" /><path
                     style="fill:#000000;fill-opacity:1;stroke:none;stroke-width:10.1598;stroke-linecap:round;stroke-linejoin:round;stroke-miterlimit:7.2;stroke-dasharray:none;stroke-opacity:1;paint-order:stroke fill markers"
                     id="path244"
                     d="m 1006.5751,-276.52562 c 0.1022,0.0238 0.2031,0.0536 0.3066,0.0713 0.2226,0.0379 0.6134,0.0666 0.8297,0.0812 0.4588,0.031 0.9184,0.0475 1.3779,0.0634 0.6702,0.0221 1.3407,0.025 2.0112,0.0262 0.464,3.5e-4 0.928,-5.3e-4 1.3921,-9.5e-4 0.3725,0.009 0.7436,-0.004 1.1147,-0.0361 0.041,-0.004 0.082,-0.007 0.1223,-0.0108 1.1182,-0.0986 0.9788,-1.68 -0.1395,-1.58136 v 0 c -0.041,0.004 -0.081,0.007 -0.1218,0.0107 -0.3254,0.0287 -0.6504,0.0383 -0.9772,0.03 -0.4626,4.3e-4 -0.9253,10e-4 -1.3879,9.6e-4 -0.653,-0.001 -1.3063,-0.004 -1.9591,-0.0253 -0.6712,-0.0231 -1.3432,-0.0516 -2.0116,-0.11572 -1.0511,-0.39415 -1.6085,1.09227 -0.5574,1.48642 z" /><path
                     style="fill:#000000;fill-opacity:1;stroke:none;stroke-width:10.1598;stroke-linecap:round;stroke-linejoin:round;stroke-miterlimit:7.2;stroke-dasharray:none;stroke-opacity:1;paint-order:stroke fill markers"
                     id="path245"
                     d="m 1015.3407,-287.01866 c -0.1235,0.882 -0.3061,1.75582 -0.4743,2.63041 -0.1594,0.80851 -0.344,1.61199 -0.4877,2.42361 -0.1042,0.58853 -0.147,0.90953 -0.234,1.50126 -0.1746,1.27547 -0.2898,2.55711 -0.3484,3.84283 -0.037,0.99911 -0.036,1.99907 -0.036,2.9987 0,0.16247 0.01,0.32495 0.01,0.4874 0.01,0.34045 0.012,0.57726 0.044,0.91744 0.042,0.4393 0.1237,0.86776 0.2164,1.29846 0.178,0.71912 0.4305,1.41771 0.7103,2.10284 0.1464,0.35481 0.2725,0.71676 0.4199,1.07111 0.4314,1.03631 1.897,0.42616 1.4655,-0.61015 v 0 c -0.1464,-0.35142 -0.2696,-0.71126 -0.4164,-1.06267 -0.2462,-0.59909 -0.4669,-1.21066 -0.6281,-1.83853 -0.078,-0.35477 -0.148,-0.70892 -0.1839,-1.07102 -0.031,-0.31204 -0.033,-0.52127 -0.041,-0.8378 0,-0.15223 -0.01,-0.3045 -0.01,-0.45674 2e-4,-0.97573 0,-1.95178 0.034,-2.92702 0.056,-1.23262 0.1667,-2.46119 0.3332,-3.68405 0.081,-0.55234 0.126,-0.88727 0.2229,-1.43544 0.1433,-0.81061 0.3286,-1.61288 0.4871,-2.42047 0.18,-0.93608 0.3792,-1.87121 0.4989,-2.81707 0.08,-1.11968 -1.5035,-1.23278 -1.5835,-0.1131 z" /></g></g></g></g></g></g></g></g></svg>
