<?xml version="1.0" encoding="UTF-8" standalone="no"?>
<!-- Created with Inkscape (http://www.inkscape.org/) -->

<svg
   width="78.317619mm"
   height="137.70927mm"
   viewBox="0 0 78.317619 137.70927"
   version="1.1"
   id="svg1"
   xmlns:inkscape="http://www.inkscape.org/namespaces/inkscape"
   xmlns:sodipodi="http://sodipodi.sourceforge.net/DTD/sodipodi-0.dtd"
   xmlns="http://www.w3.org/2000/svg"
   xmlns:svg="http://www.w3.org/2000/svg">
  <sodipodi:namedview
     id="namedview1"
     pagecolor="#ffffff"
     bordercolor="#000000"
     borderopacity="0.25"
     inkscape:showpageshadow="2"
     inkscape:pageopacity="0.0"
     inkscape:pagecheckerboard="0"
     inkscape:deskcolor="#d1d1d1"
     inkscape:document-units="mm" />
  <defs
     id="defs1" />
  <g
     inkscape:label="Layer 1"
     inkscape:groupmode="layer"
     id="layer1"
     transform="translate(-18.934468,-140.49667)">
    <path
       style="fill:#ffffff;fill-opacity:1;stroke:#000000;stroke-width:0.5;stroke-linecap:round;stroke-linejoin:round;stroke-miterlimit:7.2;stroke-dasharray:none;stroke-opacity:1"
       id="path119"
       d="m 21.314231,250.03137 c 1.03539,0.53216 2.049404,1.08353 3.004441,1.66797 0.505793,0.30952 0.992716,0.62996 1.489071,0.94493 3.447452,2.29034 6.513625,4.77429 9.647627,7.2184 1.758644,1.41302 3.59457,2.79329 5.210828,4.26768 0.728605,0.77764 1.312716,1.60406 1.742499,2.4582 0.287295,0.57095 0.333367,0.74546 0.550625,1.32902 0.477375,1.57482 0.611423,3.17544 0.695686,4.77211 0.03184,0.86495 -0.0095,1.72929 -0.0756,2.59317 0,0 3.976313,0.10913 3.976313,0.10913 v 0 c 0.07009,-0.92561 0.113449,-1.85175 0.07771,-2.77845 -0.0933,-1.74791 -0.247923,-3.50026 -0.791327,-5.2222 -0.25655,-0.67709 -0.317052,-0.8957 -0.657708,-1.55951 -0.539652,-1.05157 -1.269333,-2.06842 -2.196074,-3.01812 -1.675105,-1.52063 -3.555329,-2.95285 -5.37913,-4.40931 -3.216886,-2.50874 -6.365567,-5.0578 -9.912502,-7.40443 -1.638,-1.03618 -3.290394,-2.07895 -5.174514,-2.95739 z"
       inkscape:export-filename="git.svg"
       inkscape:export-xdpi="96"
       inkscape:export-ydpi="96" />
    <path
       style="fill:#ffffff;fill-opacity:1;stroke:#000000;stroke-width:0.5;stroke-linecap:round;stroke-linejoin:round;stroke-miterlimit:7.2;stroke-dasharray:none;stroke-opacity:1"
       id="path117"
       d="m 48.898646,220.66946 c -1.10958,0.58645 -2.196253,1.1941 -3.219723,1.83818 -0.542035,0.3411 -1.063848,0.69423 -1.595769,1.04135 -3.694477,2.52406 -6.980356,5.26149 -10.338922,7.95501 -1.884659,1.5572 -3.852137,3.07834 -5.584207,4.70317 -0.780813,0.85701 -1.406779,1.76776 -1.867358,2.70906 -0.30788,0.62922 -0.357254,0.82153 -0.590079,1.46464 -0.51158,1.73553 -0.655234,3.49949 -0.745535,5.2591 -0.03413,0.9532 0.01016,1.90575 0.08101,2.85779 0,0 -4.261232,0.12026 -4.261232,0.12026 v 0 c -0.07511,-1.02007 -0.121578,-2.04072 -0.08329,-3.06198 0.09999,-1.92627 0.265689,-3.85745 0.84803,-5.7551 0.274932,-0.74619 0.33977,-0.98712 0.704836,-1.71866 0.57832,-1.15888 1.360286,-2.2795 2.353432,-3.32611 1.795134,-1.6758 3.810084,-3.25417 5.764568,-4.85926 3.44739,-2.76475 6.821689,-5.57393 10.622777,-8.16002 1.75537,-1.14193 3.526165,-2.2911 5.545291,-3.25919 z" />
    <path
       style="fill:#ffffff;fill-opacity:1;stroke:#000000;stroke-width:0.5;stroke-linecap:round;stroke-linejoin:round;stroke-miterlimit:7.2;stroke-dasharray:none;stroke-opacity:1"
       id="path116"
       d="m 63.689374,190.90612 c -0.688229,0.58905 -1.362249,1.19939 -1.997067,1.84632 -0.336203,0.34261 -0.659863,0.69731 -0.989793,1.04596 -2.291538,2.53524 -4.329639,5.28479 -6.412825,7.99024 -1.168979,1.5641 -2.389328,3.09197 -3.463663,4.724 -0.484307,0.8608 -0.872569,1.77558 -1.158248,2.72105 -0.190966,0.63201 -0.221591,0.82517 -0.366003,1.47113 -0.317313,1.74321 -0.406416,3.51498 -0.462426,5.28238 -0.02117,0.95743 0.0063,1.91419 0.05025,2.87045 0,0 -2.643074,0.12079 -2.643074,0.12079 v 0 c -0.04659,-1.02458 -0.07541,-2.04975 -0.05166,-3.07554 0.06202,-1.9348 0.164796,-3.87453 0.525999,-5.78058 0.17053,-0.74949 0.210746,-0.99149 0.437182,-1.72627 0.358709,-1.16401 0.843732,-2.28959 1.459741,-3.34084 1.113451,-1.68322 2.363245,-3.26858 3.575534,-4.88078 2.13828,-2.77699 4.231224,-5.59861 6.588889,-8.19615 1.088787,-1.14699 2.187141,-2.30125 3.439525,-3.27362 z" />
    <path
       style="fill:#ffffff;fill-opacity:1;stroke:#000000;stroke-width:0.5;stroke-linecap:round;stroke-linejoin:round;stroke-miterlimit:7.2;stroke-dasharray:none;stroke-opacity:1"
       id="path115"
       d="m 62.704885,245.23531 c -0.688229,0.58905 -1.362249,1.19939 -1.997067,1.84632 -0.336203,0.34261 -0.659863,0.69731 -0.989793,1.04596 -2.291538,2.53524 -4.329639,5.28479 -6.412825,7.99024 -1.168979,1.5641 -2.389328,3.09197 -3.463663,4.724 -0.484307,0.8608 -0.872569,1.77558 -1.158248,2.72105 -0.190966,0.63201 -0.221591,0.82517 -0.366003,1.47113 -0.317313,1.74321 -0.406416,3.51498 -0.462426,5.28238 -0.02117,0.95743 0.0063,1.91419 0.05025,2.87045 0,0 -2.643074,0.12079 -2.643074,0.12079 v 0 c -0.04659,-1.02458 -0.07541,-2.04975 -0.05166,-3.07554 0.06202,-1.9348 0.164796,-3.87453 0.525999,-5.78058 0.17053,-0.74949 0.210746,-0.99149 0.437182,-1.72627 0.358709,-1.16401 0.843732,-2.28959 1.459741,-3.34084 1.113451,-1.68322 2.363245,-3.26858 3.575534,-4.88078 2.13828,-2.77699 4.231224,-5.59861 6.588889,-8.19615 1.088787,-1.14699 2.187141,-2.30125 3.439525,-3.27362 z" />
    <path
       style="fill:#ffffff;fill-opacity:1;stroke:#000000;stroke-width:0.5;stroke-linecap:round;stroke-linejoin:round;stroke-miterlimit:7.2;stroke-dasharray:none;stroke-opacity:1"
       id="path114"
       d="m 92.490033,232.10665 c -0.576505,4.37951 -0.826222,8.76797 -1.081355,13.15495 -0.24763,5.00723 -0.254475,10.01778 -0.03777,15.02531 0.02321,0.40667 0.04643,0.81333 0.06963,1.22 0,0 3.032405,-0.0466 3.032405,-0.0466 v 0 c -0.02302,-0.40291 -0.04605,-0.80583 -0.06906,-1.20875 -0.215912,-4.97987 -0.208606,-9.96277 0.03715,-14.94237 0.254896,-4.3841 0.505802,-8.76958 1.080801,-13.14625 z" />
    <path
       style="fill:#ffffff;fill-opacity:1;stroke:#000000;stroke-width:0.5;stroke-linecap:round;stroke-linejoin:round;stroke-miterlimit:7.2;stroke-dasharray:none;stroke-opacity:1"
       id="path112"
       d="m 78.413372,206.14675 c -0.688229,0.58905 -1.362249,1.19939 -1.997067,1.84632 -0.336203,0.34261 -0.659863,0.69731 -0.989793,1.04596 -2.291538,2.53524 -4.329639,5.28479 -6.412825,7.99024 -1.168979,1.5641 -2.389328,3.09197 -3.463663,4.724 -0.484307,0.8608 -0.872569,1.77558 -1.158248,2.72105 -0.190966,0.63201 -0.221591,0.82517 -0.366003,1.47113 -0.317313,1.74321 -0.406416,3.51498 -0.462426,5.28238 -0.02117,0.95743 0.0063,1.91419 0.05025,2.87045 0,0 -2.643074,0.12079 -2.643074,0.12079 v 0 c -0.04659,-1.02458 -0.07541,-2.04975 -0.05166,-3.07554 0.06202,-1.9348 0.164796,-3.87453 0.525999,-5.78058 0.17053,-0.74949 0.210746,-0.99149 0.437182,-1.72627 0.358709,-1.16401 0.843732,-2.28959 1.459741,-3.34084 1.113451,-1.68322 2.363245,-3.26858 3.575534,-4.88078 2.13828,-2.77699 4.231224,-5.59861 6.588889,-8.19615 1.088787,-1.14699 2.187141,-2.30125 3.439525,-3.27362 z" />
    <path
       style="fill:#ffffff;fill-opacity:1;stroke:#000000;stroke-width:0.5;stroke-linecap:round;stroke-linejoin:round;stroke-miterlimit:7.2;stroke-dasharray:none;stroke-opacity:1"
       id="path111"
       d="m 77.714776,204.86816 c 0.688229,0.58905 1.362249,1.19939 1.997067,1.84632 0.336203,0.34261 0.659863,0.69731 0.989793,1.04596 2.291538,2.53524 4.329639,5.28479 6.412825,7.99024 1.168979,1.5641 2.389328,3.09197 3.463663,4.724 0.484307,0.8608 0.872569,1.77558 1.158248,2.72105 0.190966,0.63201 0.221591,0.82517 0.366003,1.47113 0.317313,1.74321 0.406416,3.51498 0.462426,5.28238 0.02117,0.95743 -0.0063,1.91419 -0.05025,2.87045 0,0 2.643074,0.12079 2.643074,0.12079 v 0 c 0.04659,-1.02458 0.07541,-2.04975 0.05166,-3.07554 -0.06202,-1.9348 -0.164796,-3.87453 -0.525999,-5.78058 -0.17053,-0.74949 -0.210746,-0.99149 -0.437182,-1.72627 -0.358709,-1.16401 -0.843732,-2.28959 -1.459741,-3.34084 -1.113451,-1.68322 -2.363245,-3.26858 -3.575534,-4.88078 -2.13828,-2.77699 -4.231224,-5.59861 -6.588889,-8.19615 -1.088787,-1.14699 -2.187141,-2.30125 -3.439525,-3.27362 z" />
    <path
       style="fill:#ffffff;fill-opacity:1;stroke:#000000;stroke-width:0.639398;stroke-linecap:round;stroke-linejoin:round;stroke-miterlimit:7.2;stroke-dasharray:none;stroke-opacity:1"
       id="path109"
       d="m 61.93863,144.06771 c -0.650371,19.25699 -0.932085,38.5533 -1.219908,57.84313 -0.279359,22.0171 -0.287081,44.04877 -0.04263,66.06716 0.02619,1.78816 0.05238,3.5763 0.07856,5.36445 0,0 3.420942,-0.20518 3.420942,-0.20518 v 0 c -0.02598,-1.77164 -0.05195,-3.54329 -0.07792,-5.31497 -0.243577,-21.89681 -0.235334,-43.80694 0.04191,-65.70252 0.287557,-19.27717 0.57061,-38.56039 1.219284,-57.8049 z" />
    <path
       style="fill:#ffffff;fill-opacity:1;stroke:#000000;stroke-width:0.5;stroke-linecap:round;stroke-linejoin:round;stroke-miterlimit:7.2;stroke-dasharray:none;stroke-opacity:1"
       id="path110"
       d="m 62.280274,173.90783 c 0.688229,0.58905 1.362249,1.19939 1.997067,1.84632 0.336203,0.34261 0.659863,0.69731 0.989793,1.04596 2.291538,2.53524 4.329639,5.28479 6.412825,7.99024 1.168979,1.5641 2.389328,3.09197 3.463663,4.724 0.484307,0.8608 0.872569,1.77558 1.158248,2.72105 0.190966,0.63201 0.221591,0.82517 0.366003,1.47113 0.317313,1.74321 0.406416,3.51498 0.462426,5.28238 0.02117,0.95743 -0.0063,1.91419 -0.05025,2.87045 0,0 2.643074,0.12079 2.643074,0.12079 v 0 c 0.04659,-1.02458 0.07541,-2.04975 0.05166,-3.07554 -0.06202,-1.9348 -0.164796,-3.87453 -0.525999,-5.78058 -0.17053,-0.74949 -0.210746,-0.99149 -0.437182,-1.72627 -0.358709,-1.16401 -0.843732,-2.28959 -1.459741,-3.34084 -1.113451,-1.68322 -2.363245,-3.26858 -3.575534,-4.88078 -2.13828,-2.77699 -4.231224,-5.59861 -6.588889,-8.19615 -1.088787,-1.14699 -2.187141,-2.30125 -3.439525,-3.27362 z" />
    <circle
       style="fill:#ffffff;fill-opacity:1;stroke:#000000;stroke-width:0.5;stroke-linecap:round;stroke-linejoin:round;stroke-miterlimit:7.2;stroke-dasharray:none;stroke-opacity:1"
       id="path108"
       cx="63.255074"
       cy="173.49132"
       r="3.5195522" />
    <circle
       style="fill:#ffffff;fill-opacity:1;stroke:#000000;stroke-width:0.5;stroke-linecap:round;stroke-linejoin:round;stroke-miterlimit:7.2;stroke-dasharray:none;stroke-opacity:1"
       id="circle110"
       cx="78.500221"
       cy="203.78705"
       r="3.5195522" />
    <circle
       style="fill:#ffffff;fill-opacity:1;stroke:#000000;stroke-width:0.5;stroke-linecap:round;stroke-linejoin:round;stroke-miterlimit:7.2;stroke-dasharray:none;stroke-opacity:1"
       id="circle112"
       cx="93.482536"
       cy="234.78493"
       r="3.5195522" />
    <circle
       style="fill:#ffffff;fill-opacity:1;stroke:#000000;stroke-width:0.5;stroke-linecap:round;stroke-linejoin:round;stroke-miterlimit:7.2;stroke-dasharray:none;stroke-opacity:1"
       id="circle113"
       cx="62.226334"
       cy="234.78493"
       r="3.5195522" />
    <circle
       style="fill:#ffffff;fill-opacity:1;stroke:#000000;stroke-width:0.5;stroke-linecap:round;stroke-linejoin:round;stroke-miterlimit:7.2;stroke-dasharray:none;stroke-opacity:1"
       id="circle114"
       cx="93.482536"
       cy="260.87482"
       r="3.5195522" />
    <circle
       style="fill:#ffffff;fill-opacity:1;stroke:#000000;stroke-width:0.5;stroke-linecap:round;stroke-linejoin:round;stroke-miterlimit:7.2;stroke-dasharray:none;stroke-opacity:1"
       id="circle116"
       cx="47.373177"
       cy="220.06093"
       r="3.5195522" />
    <circle
       style="fill:#ffffff;fill-opacity:1;stroke:#000000;stroke-width:0.5;stroke-linecap:round;stroke-linejoin:round;stroke-miterlimit:7.2;stroke-dasharray:none;stroke-opacity:1"
       id="circle117"
       cx="47.373177"
       cy="220.06093"
       r="3.5195522" />
    <circle
       style="fill:#ffffff;fill-opacity:1;stroke:#000000;stroke-width:0.5;stroke-linecap:round;stroke-linejoin:round;stroke-miterlimit:7.2;stroke-dasharray:none;stroke-opacity:1"
       id="circle118"
       cx="22.704021"
       cy="249.50893"
       r="3.5195522" />
    <circle
       style="fill:#ffffff;fill-opacity:1;stroke:#000000;stroke-width:0.5;stroke-linecap:round;stroke-linejoin:round;stroke-miterlimit:7.2;stroke-dasharray:none;stroke-opacity:1"
       id="circle119"
       cx="46.46907"
       cy="274.04892"
       r="3.5195522" />
    <circle
       style="fill:#ffffff;fill-opacity:1;stroke:#000000;stroke-width:0.5;stroke-linecap:round;stroke-linejoin:round;stroke-miterlimit:7.2;stroke-dasharray:none;stroke-opacity:1"
       id="circle120"
       cx="62.613808"
       cy="274.4364"
       r="3.5195522" />
    <circle
       style="fill:#ffffff;fill-opacity:1;stroke:#000000;stroke-width:0.5;stroke-linecap:round;stroke-linejoin:round;stroke-miterlimit:7.2;stroke-dasharray:none;stroke-opacity:1"
       id="circle121"
       cx="63.255074"
       cy="144.26622"
       r="3.5195522" />
  </g>
</svg>
