<?xml version="1.0" encoding="UTF-8" standalone="no"?>
<!-- Created with Inkscape (http://www.inkscape.org/) -->

<svg
   width="718.97815mm"
   height="1100.0472mm"
   viewBox="0 0 718.97814 1100.0472"
   version="1.1"
   id="svg1"
   xml:space="preserve"
   xmlns="http://www.w3.org/2000/svg"
   xmlns:svg="http://www.w3.org/2000/svg"><defs
     id="defs1" /><g
     id="layer1"
     transform="translate(-1148.6316,701.13562)"><g
       id="g192"
       transform="translate(798.79176,-417.13011)"><g
         id="g218"
         transform="matrix(1.0703199,0,0,1.0481868,-26.001825,-4.5094392)"
         style="fill:#f9f9f9;stroke:none" /><g
         id="g221"><path
           id="path194"
           style="fill:#f9f9f9;stroke:none;stroke-width:1.96913;stroke-linecap:round;stroke-linejoin:round;stroke-miterlimit:7.2;stroke-dasharray:none;stroke-opacity:1"
           d="m 387.29573,87.210532 a 18.000643,4.6731843 0 0 1 -18.00065,4.673185 18.000643,4.6731843 0 0 1 -18.00064,-4.673185 18.000643,4.6731843 0 0 1 18.00064,-4.673185 18.000643,4.6731843 0 0 1 18.00065,4.673185 z"
           transform="matrix(1.0703199,0,0,1.0481868,-26.001825,-4.5094379)" /><path
           id="path196"
           style="fill:#f9f9f9;stroke:none;stroke-width:1.96288;stroke-linecap:round;stroke-linejoin:round;stroke-miterlimit:7.2;stroke-dasharray:none;stroke-opacity:1"
           d="m 387.16969,108.65823 a 17.87461,4.6763091 0 0 1 -17.87461,4.67631 17.87461,4.6763091 0 0 1 -17.8746,-4.67631 17.87461,4.6763091 0 0 1 17.8746,-4.67631 17.87461,4.6763091 0 0 1 17.87461,4.67631 z"
           transform="matrix(1.0703199,0,0,1.0481868,-26.001825,-4.5094379)" /><path
           id="rect197"
           style="fill:#f9f9f9;stroke-width:0.527535;stroke-linecap:round;stroke-linejoin:round;stroke-miterlimit:7.2"
           d="m 349.84759,126.7378 h 37.93917 v 5.74598 l -37.93917,-0.40034 z" /><path
           id="path198"
           style="fill:#f9f9f9;stroke:none;stroke-width:2.32136;stroke-linecap:round;stroke-linejoin:round;stroke-miterlimit:7.2"
           d="m 383.73895,62.59847 h -3.68144 l 0.16409,71.42821 3.34871,-0.99005 z"
           transform="matrix(1.0703199,0,0,1.0481868,-26.001825,-4.5094379)" /><path
           id="path199"
           style="fill:#ffffff;stroke:none;stroke-width:0.529356;stroke-linecap:round;stroke-linejoin:round;stroke-miterlimit:7.2;stroke-opacity:1"
           d="m 387.10791,129.99749 c 0,3.06677 -8.44138,5.97641 -18.22505,5.97641 -9.78368,0 -15.78877,-2.18744 -17.57069,-5.2542 -1.51532,-2.60795 7.76932,-0.65884 17.55301,-0.65884 9.78368,0 18.89156,-3.02254 18.24273,-0.0634 z"
           transform="matrix(1.0703199,0,0,1.0481868,-26.001825,-4.5094379)" /><path
           id="path201"
           style="fill:#f9f9f9;stroke:none;stroke-width:0.455313;stroke-linecap:round;stroke-linejoin:round;stroke-miterlimit:7.2;stroke-opacity:1"
           d="m 387.0728,66.394514 a 17.87371,4.0260575 0 0 1 -17.87372,4.026058 17.87371,4.0260575 0 0 1 -17.8737,-4.026058 17.87371,4.0260575 0 0 1 17.8737,-4.026058 17.87371,4.0260575 0 0 1 17.87372,4.026058 z"
           transform="matrix(1.0703199,0,0,1.0481868,-26.001825,-4.5094379)" /><path
           id="path202"
           style="fill:#f9f9f9;stroke:none;stroke-width:0.281999;stroke-linecap:round;stroke-linejoin:round;stroke-miterlimit:7.2;stroke-opacity:1"
           d="m 382.50798,60.02221 a 13.212913,2.0891512 0 0 1 -13.21291,2.089152 13.212913,2.0891512 0 0 1 -13.21291,-2.089152 13.212913,2.0891512 0 0 1 13.21291,-2.089144 13.212913,2.0891512 0 0 1 13.21291,2.089144 z"
           transform="matrix(1.0703199,0,0,1.0481868,-26.001825,-4.5094379)" /><path
           style="fill:#f9f9f9;fill-opacity:1;stroke:none;stroke-width:0.480141;stroke-linecap:round;stroke-linejoin:round;stroke-miterlimit:7.2;stroke-dasharray:none;stroke-opacity:1"
           d="m 356.44207,59.434082 -4.3274,6.32874 9.97168,4.2279 14.99618,-0.0761 9.39297,-4.15178 -4.32743,-6.32874"
           id="path204"
           transform="matrix(1.0703199,0,0,1.0481868,-26.001825,-4.5094379)" /><ellipse
           style="fill:#f9f9f9;fill-opacity:1;stroke:none;stroke-width:0.488082;stroke-linecap:round;stroke-linejoin:round;stroke-miterlimit:7.2;stroke-dasharray:none;stroke-opacity:1"
           id="ellipse204"
           cx="369.29507"
           cy="48.174473"
           rx="9.04105"
           ry="2.153805"
           transform="matrix(1.0703199,0,0,1.0481868,-26.001825,-4.5094379)" /><path
           id="path205"
           style="fill:#f9f9f9;stroke:none;stroke-width:0.472126;stroke-linecap:round;stroke-linejoin:round;stroke-miterlimit:7.2"
           d="m 360.25236,48.075112 h 18.08542 v 12.78162 h -18.08542 z"
           transform="matrix(1.0703199,0,0,1.0481868,-26.001825,-4.5094379)" /><path
           style="fill:#f9f9f9;fill-opacity:1;stroke:none;stroke-width:0.674154;stroke-linecap:round;stroke-linejoin:round;stroke-miterlimit:7.2;stroke-dasharray:none;stroke-opacity:1"
           d="m 210.17111,187.99954 c 3.09701,1.61137 6.19403,3.22274 9.29108,3.26839 3.09705,0.0456 6.194,-1.47436 9.29102,-2.99441"
           id="path206"
           transform="matrix(1.0777598,0,0,0.57260143,132.73455,-52.188691)" /><g
           id="g207"
           transform="matrix(1.0703199,0,0,1.0481868,113.64357,-141.30272)"
           style="fill:#f9f9f9;stroke:none"><path
             id="path207"
             style="fill:#f9f9f9;stroke:none;stroke-width:2.32136;stroke-linecap:round;stroke-linejoin:round;stroke-miterlimit:7.2"
             d="m 235.10788,195.10069 -3.987,-1.99754 -0.23747,71.72095 4.32804,0.35585 z" /></g><g
           id="g208"
           transform="matrix(0.66867085,0,0,1.0386412,195.38755,-138.8089)"
           style="fill:#f9f9f9;stroke:none"><path
             id="path208"
             style="fill:#f9f9f9;stroke:none;stroke-width:2.32136;stroke-linecap:round;stroke-linejoin:round;stroke-miterlimit:7.2"
             d="m 233.02299,195.10069 -1.79512,1.10763 -0.23747,62.04013 2.13616,3.00438 z" /></g><path
           id="path209"
           style="fill:#f9f9f9;stroke:none;stroke-width:1.82433;stroke-linecap:round;stroke-linejoin:round;stroke-miterlimit:7.2;stroke-opacity:1"
           d="m 369.29525,39.119685 a 4.9706507,8.8241912 0 0 0 -4.97105,8.824348 4.9706507,8.8241912 0 0 0 4.97105,8.824347 4.9706507,8.8241912 0 0 0 4.97056,-8.824347 4.9706507,8.8241912 0 0 0 -4.97056,-8.824348 z m 0,2.680484 a 2.2625129,5.2044211 0 0 1 2.26246,5.204191 2.2625129,5.2044211 0 0 1 -2.26246,5.204684 2.2625129,5.2044211 0 0 1 -2.26247,-5.204684 2.2625129,5.2044211 0 0 1 2.26247,-5.204191 z"
           transform="matrix(1.0703199,0,0,1.0481868,-26.001825,-4.5094379)" /><path
           style="fill:#f9f9f9;fill-opacity:1;stroke:none;stroke-width:0.5;stroke-linecap:butt;stroke-linejoin:bevel;stroke-miterlimit:7.2;stroke-dasharray:none;stroke-opacity:1"
           d="m 377.6446,49.532204 -0.091,2.831351 z"
           id="path210"
           transform="matrix(1.0703199,0,0,1.0481868,-26.001825,-4.5094379)" /><path
           style="fill:#f9f9f9;fill-opacity:1;stroke:none;stroke-width:0.5;stroke-linecap:butt;stroke-linejoin:bevel;stroke-miterlimit:7.2;stroke-dasharray:none;stroke-opacity:1"
           d="m 375.17778,50.413207 -0.091,2.831351 z"
           id="path211"
           transform="matrix(1.0703199,0,0,1.0481868,-26.001825,-4.5094379)" /><path
           style="fill:#f9f9f9;fill-opacity:1;stroke:none;stroke-width:0.5;stroke-linecap:butt;stroke-linejoin:bevel;stroke-miterlimit:7.2;stroke-dasharray:none;stroke-opacity:1"
           d="m 371.82255,50.93148 -0.0915,2.831351 z"
           id="path212"
           transform="matrix(1.0703199,0,0,1.0481868,-26.001825,-4.5094379)" /><path
           style="fill:#f9f9f9;fill-opacity:1;stroke:none;stroke-width:0.5;stroke-linecap:butt;stroke-linejoin:bevel;stroke-miterlimit:7.2;stroke-dasharray:none;stroke-opacity:1"
           d="m 368.08924,51.008119 -0.0915,2.831351 z"
           id="path213"
           transform="matrix(1.0703199,0,0,1.0481868,-26.001825,-4.5094379)" /><path
           style="fill:#f9f9f9;fill-opacity:1;stroke:none;stroke-width:0.5;stroke-linecap:butt;stroke-linejoin:bevel;stroke-miterlimit:7.2;stroke-dasharray:none;stroke-opacity:1"
           d="m 364.54647,50.631457 -0.0915,2.831351 z"
           id="path214"
           transform="matrix(1.0703199,0,0,1.0481868,-26.001825,-4.5094379)" /><path
           style="fill:#f9f9f9;fill-opacity:1;stroke:none;stroke-width:0.5;stroke-linecap:butt;stroke-linejoin:bevel;stroke-miterlimit:7.2;stroke-dasharray:none;stroke-opacity:1"
           d="m 361.7336,49.858838 -0.0915,2.831351 z"
           id="path215"
           transform="matrix(1.0703199,0,0,1.0481868,-26.001825,-4.5094379)" /><path
           style="fill:#f9f9f9;fill-opacity:1;stroke:none;stroke-width:0.738922;stroke-linecap:square;stroke-linejoin:bevel;stroke-miterlimit:7.2;stroke-dasharray:none;stroke-opacity:1"
           d="m 385.68323,124.37721 v 3.48909 l 3.7458,-3.48909 z"
           id="path217"
           transform="matrix(1.0703199,0,0,1.0481868,-26.001825,-4.5094379)" /><path
           style="fill:#ffffff;fill-opacity:1;stroke:none;stroke-width:2;stroke-linecap:round;stroke-linejoin:round;stroke-miterlimit:7.2;stroke-dasharray:none;stroke-opacity:1"
           d="M 376.44108,72.845044 1068.8181,-284.00548 858.16329,816.04184 380.18245,116.98287 Z"
           id="path170" /><g
           id="g193"><rect
             style="fill:#ffffff;fill-opacity:1;stroke:none;stroke-width:0.507348;stroke-linecap:round;stroke-linejoin:round;stroke-miterlimit:7.2;stroke-dasharray:none;stroke-opacity:1"
             id="rect1"
             width="38.269871"
             height="6.2687821"
             x="350.0936"
             y="125.1982" /><path
             id="path153"
             style="fill:#ffffff;stroke:none;stroke-width:0.499999;stroke-linecap:round;stroke-linejoin:round;stroke-miterlimit:7.2;stroke-opacity:1"
             d="m 387.92606,125.19819 a 18.630987,4.6577493 0 0 1 -18.63099,4.65775 18.630987,4.6577493 0 0 1 -18.63098,-4.65775 18.630987,4.6577493 0 0 1 18.63098,-4.65775 18.630987,4.6577493 0 0 1 18.63099,4.65775 z" /><rect
             style="fill:#ffffff;fill-opacity:1;stroke:none;stroke-width:1.83778;stroke-linecap:round;stroke-linejoin:round;stroke-miterlimit:7.2;stroke-dasharray:none;stroke-opacity:1"
             id="rect167"
             width="31.193653"
             height="66.152145"
             x="352.31165"
             y="64.596008" /><path
             id="path124"
             style="fill:none;stroke:#00032c;stroke-width:1.96913;stroke-linecap:round;stroke-linejoin:round;stroke-miterlimit:7.2;stroke-dasharray:none;stroke-opacity:1"
             d="m 387.29573,87.210532 a 18.000643,4.6731843 0 0 1 -18.00065,4.673185 18.000643,4.6731843 0 0 1 -18.00064,-4.673185 18.000643,4.6731843 0 0 1 18.00064,-4.673185 18.000643,4.6731843 0 0 1 18.00065,4.673185 z" /><path
             style="fill:#ffffff;fill-opacity:1;stroke:none;stroke-width:2;stroke-linecap:round;stroke-linejoin:round;stroke-miterlimit:7.2;stroke-dasharray:none;stroke-opacity:1"
             d="m 352.31165,82.469555 20.30828,-4.657749 9.2783,3.740976 v 5.657749 h -28.5486 -2.68554 z"
             id="path168" /><path
             id="path125"
             style="fill:none;stroke:#00032c;stroke-width:1.96288;stroke-linecap:round;stroke-linejoin:round;stroke-miterlimit:7.2;stroke-dasharray:none;stroke-opacity:1"
             d="m 387.16969,108.65823 a 17.87461,4.6763091 0 0 1 -17.87461,4.67631 17.87461,4.6763091 0 0 1 -17.8746,-4.67631 17.87461,4.6763091 0 0 1 17.8746,-4.67631 17.87461,4.6763091 0 0 1 17.87461,4.67631 z" /><path
             style="fill:#ffffff;fill-opacity:1;stroke:none;stroke-width:2.11358;stroke-linecap:round;stroke-linejoin:round;stroke-miterlimit:7.2;stroke-dasharray:none;stroke-opacity:1"
             d="m 352.31165,103.50293 20.30828,-5.201813 9.2783,4.177953 v 6.31861 h -28.5486 -2.68554 z"
             id="path169" /><rect
             style="fill:#00032c;fill-opacity:1;stroke:none;stroke-width:0.505156;stroke-linecap:round;stroke-linejoin:round;stroke-miterlimit:7.2;stroke-dasharray:none;stroke-opacity:1"
             id="rect153"
             width="38.034515"
             height="5.5499573"
             x="350.0936"
             y="125.1982" /><ellipse
             style="fill:#ffffff;fill-opacity:1;stroke:none;stroke-width:1.15485;stroke-linecap:square;stroke-linejoin:bevel;stroke-miterlimit:7.2;stroke-dasharray:none;stroke-opacity:1"
             id="path191"
             cx="382.12982"
             cy="128.2941"
             rx="6.0462832"
             ry="0.72458917" /><path
             id="rect149"
             style="fill:#333333;stroke-width:2.32136;stroke-linecap:round;stroke-linejoin:round;stroke-miterlimit:7.2"
             d="m 383.73895,62.59847 h -3.68144 l 0.16409,71.42821 3.49135,-0.67447 z" /><path
             id="path126"
             style="fill:#00032c;stroke:#00032c;stroke-width:0.587012;stroke-linecap:round;stroke-linejoin:round;stroke-miterlimit:7.2;stroke-opacity:1"
             d="m 387.88255,131.09536 c 0,3.52128 -8.39906,6.37584 -18.75982,6.37584 -10.36076,0 -18.75981,-2.85457 -18.75981,-6.37584 -2e-5,-3.52128 8.37508,-0.73686 18.73586,-0.73686 10.36076,0 18.78379,-2.78442 18.78377,0.73686 z" /><path
             id="path188"
             style="fill:#ffffff;stroke:none;stroke-width:0.501673;stroke-linecap:round;stroke-linejoin:round;stroke-miterlimit:7.2;stroke-opacity:1"
             d="m 369.42024,120.54045 a 18.755943,4.6577492 0 0 0 -18.75637,4.65759 18.755943,4.6577492 0 0 0 18.75637,4.65812 18.755943,4.6577492 0 0 0 10.8343,-0.85732 v -7.60108 a 18.755943,4.6577492 0 0 0 -10.8343,-0.85731 z m 18.74492,4.53202 v 0.25166 a 18.755943,4.6577492 0 0 0 0.0109,-0.12609 18.755943,4.6577492 0 0 0 -0.0109,-0.12557 z" /><path
             id="path127"
             style="fill:#00032c;stroke:#00032c;stroke-width:0.499999;stroke-linecap:round;stroke-linejoin:round;stroke-miterlimit:7.2;stroke-opacity:1"
             d="m 387.92608,65.762822 a 18.630997,4.6577492 0 0 1 -18.631,4.65775 18.630997,4.6577492 0 0 1 -18.63099,-4.65775 18.630997,4.6577492 0 0 1 18.63099,-4.65775 18.630997,4.6577492 0 0 1 18.631,4.65775 z" /><path
             id="path128"
             style="fill:#00032c;stroke:#00032c;stroke-width:0.327879;stroke-linecap:round;stroke-linejoin:round;stroke-miterlimit:7.2;stroke-opacity:1"
             d="m 383.23327,59.434082 a 13.938202,2.6772789 0 0 1 -13.9382,2.67728 13.938202,2.6772789 0 0 1 -13.9382,-2.67728 13.938202,2.6772789 0 0 1 13.9382,-2.67727 13.938202,2.6772789 0 0 1 13.9382,2.67727 z" /><path
             id="path149"
             style="fill:#00032c;fill-opacity:1;stroke-width:2.32136;stroke-linecap:round;stroke-linejoin:round;stroke-miterlimit:7.2"
             d="m 385.57966,62.598475 h -3.68144 l -0.15556,71.428205 3.94057,-1.34895 z" /><path
             style="fill:#00032c;fill-opacity:1;stroke:#00032c;stroke-width:0.499999;stroke-linecap:round;stroke-linejoin:round;stroke-miterlimit:7.2;stroke-dasharray:none;stroke-opacity:1"
             d="m 355.35687,59.434082 -4.69278,6.32874 10.81361,4.2279 16.26234,-0.0761 10.18604,-4.15178 -4.69281,-6.32874"
             id="path129" /><ellipse
             style="fill:#00032c;fill-opacity:1;stroke:#00032c;stroke-width:0.499999;stroke-linecap:round;stroke-linejoin:round;stroke-miterlimit:7.2;stroke-dasharray:none;stroke-opacity:1"
             id="path130"
             cx="369.29507"
             cy="46.712589"
             rx="9.0410509"
             ry="2.2602627" /><path
             id="rect130"
             style="fill:#00032c;fill-opacity:1;stroke:#00032c;stroke-width:0.496682;stroke-linecap:round;stroke-linejoin:round;stroke-miterlimit:7.2;stroke-opacity:1"
             d="m 360.25236,46.710932 h 18.08542 v 14.1458 h -18.08542 z" /><path
             style="fill:none;fill-opacity:1;stroke:#ffffff;stroke-width:0.674154;stroke-linecap:round;stroke-linejoin:round;stroke-miterlimit:7.2;stroke-dasharray:none;stroke-opacity:1"
             d="m 210.17111,187.99954 c 3.09701,1.61137 6.19403,3.22274 9.29108,3.26839 3.09705,0.0456 6.194,-1.47436 9.29102,-2.99441"
             id="path131"
             transform="matrix(1.0069511,0,0,0.54627804,148.30741,-45.487361)" /><g
             id="g152"
             transform="translate(130.47071,-130.50468)"
             style="fill:#00032c;fill-opacity:1"><path
               id="path152"
               style="fill:#00032c;fill-opacity:1;stroke-width:2.32136;stroke-linecap:round;stroke-linejoin:round;stroke-miterlimit:7.2"
               d="m 235.10788,195.10069 -3.987,-1.99754 -0.23747,71.72095 4.32804,0.35585 z" /></g><g
             id="g154"
             transform="matrix(1.0641303,0,0,1,104.28972,-130.50468)"
             style="fill:#00032c;fill-opacity:1"><path
               id="path154"
               style="fill:#00032c;fill-opacity:1;stroke-width:2.32136;stroke-linecap:round;stroke-linejoin:round;stroke-miterlimit:7.2"
               d="m 233.02299,195.10069 -1.79512,1.10763 -0.23747,62.04013 2.13616,3.00438 z" /></g><path
             id="path171"
             style="fill:none;stroke:#00032c;stroke-width:1.71084;stroke-linecap:round;stroke-linejoin:round;stroke-miterlimit:7.2;stroke-opacity:1"
             d="m 373.41244,47.399448 a 4.1173694,9.3687531 0 0 1 -4.11737,9.368753 4.1173694,9.3687531 0 0 1 -4.11737,-9.368753 4.1173694,9.3687531 0 0 1 4.11737,-9.368752 4.1173694,9.3687531 0 0 1 4.11737,9.368752 z" /><path
             style="fill:#ffffff;fill-opacity:1;stroke:#ffffff;stroke-width:0.5;stroke-linecap:butt;stroke-linejoin:bevel;stroke-miterlimit:7.2;stroke-dasharray:none;stroke-opacity:1"
             d="m 377.6446,49.532204 -0.091,2.831351 z"
             id="path185" /><path
             style="fill:#ffffff;fill-opacity:1;stroke:#ffffff;stroke-width:0.5;stroke-linecap:butt;stroke-linejoin:bevel;stroke-miterlimit:7.2;stroke-dasharray:none;stroke-opacity:1"
             d="m 375.17778,50.413207 -0.091,2.831351 z"
             id="path184" /><path
             style="fill:#ffffff;fill-opacity:1;stroke:#ffffff;stroke-width:0.5;stroke-linecap:butt;stroke-linejoin:bevel;stroke-miterlimit:7.2;stroke-dasharray:none;stroke-opacity:1"
             d="m 371.82255,50.93148 -0.0915,2.831351 z"
             id="path183" /><path
             style="fill:#ffffff;fill-opacity:1;stroke:#ffffff;stroke-width:0.5;stroke-linecap:butt;stroke-linejoin:bevel;stroke-miterlimit:7.2;stroke-dasharray:none;stroke-opacity:1"
             d="m 368.08924,51.008119 -0.0915,2.831351 z"
             id="path182" /><path
             style="fill:#ffffff;fill-opacity:1;stroke:#ffffff;stroke-width:0.5;stroke-linecap:butt;stroke-linejoin:bevel;stroke-miterlimit:7.2;stroke-dasharray:none;stroke-opacity:1"
             d="m 364.54647,50.631457 -0.0915,2.831351 z"
             id="path181" /><path
             style="fill:#ffffff;fill-opacity:1;stroke:#ffffff;stroke-width:0.5;stroke-linecap:butt;stroke-linejoin:bevel;stroke-miterlimit:7.2;stroke-dasharray:none;stroke-opacity:1"
             d="m 361.7336,49.858838 -0.0915,2.831351 z"
             id="path173" /><path
             style="fill:none;fill-opacity:1;stroke:#ffffff;stroke-width:0.39504;stroke-linecap:square;stroke-linejoin:round;stroke-miterlimit:7.2;stroke-dasharray:none;stroke-opacity:1"
             d="m 210.17111,187.99954 c 3.09701,1.61137 6.19403,3.22274 9.29108,3.26839 3.09705,0.0456 6.194,-1.47436 9.29102,-2.99441"
             id="path189"
             transform="matrix(1.8593735,0,0,0.88105936,-38.767066,-101.94531)" /><path
             style="fill:#ffffff;fill-opacity:1;stroke:none;stroke-width:0.738922;stroke-linecap:square;stroke-linejoin:bevel;stroke-miterlimit:7.2;stroke-dasharray:none;stroke-opacity:1"
             d="m 385.68323,124.37721 v 3.48909 l 3.7458,-3.48909 z"
             id="path190" /><path
             style="fill:#ffffff;fill-opacity:1;stroke:none;stroke-width:0.613187;stroke-linecap:square;stroke-linejoin:bevel;stroke-miterlimit:7.2;stroke-dasharray:none;stroke-opacity:1"
             d="m 389.43604,128.2941 -0.0722,-3.54373 -3.6771,1.37138 -0.0105,2.05147 3.75932,0.12088"
             id="path192" /></g></g></g></g></svg>
