<?xml version="1.0" encoding="UTF-8" standalone="no"?>
<!-- Created with Inkscape (http://www.inkscape.org/) -->

<svg
   width="233.86325mm"
   height="195.74661mm"
   viewBox="0 0 233.86325 195.74661"
   version="1.1"
   id="svg1"
   xml:space="preserve"
   xmlns="http://www.w3.org/2000/svg"
   xmlns:svg="http://www.w3.org/2000/svg"><defs
     id="defs1"><mask
       maskUnits="userSpaceOnUse"
       id="mask579"><rect
         style="fill:#ffffff;stroke:none;stroke-width:5.48901;stroke-linecap:round;stroke-linejoin:round;stroke-miterlimit:7.2;stroke-dasharray:none;paint-order:stroke fill markers"
         id="rect580"
         width="400.39731"
         height="335.13791"
         x="202.42592"
         y="165.41811"
         transform="rotate(-30)" /></mask></defs><g
     id="layer1"
     transform="translate(-1875.8937,719.12884)"><g
       id="g192"
       transform="matrix(0.58407785,0,0,0.58407785,1225.5779,-644.93707)"><g
         id="g218"
         transform="matrix(1.0703199,0,0,1.0481868,-26.001825,-4.5094392)"
         style="fill:#f9f9f9;stroke:none" /><g
         id="g221"><g
           id="g243"
           transform="rotate(30,504.73378,138.01661)"><path
             id="path194"
             style="fill:#f9f9f9;stroke:none;stroke-width:2.08569;stroke-linecap:round;stroke-linejoin:round;stroke-miterlimit:7.2;stroke-dasharray:none;stroke-opacity:1"
             d="m 367.36091,133.30795 c 0.57323,2.64386 -7.39209,6.61492 -17.79104,8.86959 -10.39894,2.25467 -19.29365,1.93916 -19.86688,-0.7047 -0.57324,-2.64387 7.39207,-6.61492 17.79102,-8.86959 10.39893,-2.25467 19.29365,-1.93917 19.8669,0.7047 z" /><path
             id="path196"
             style="fill:#f9f9f9;stroke:none;stroke-width:2.07907;stroke-linecap:round;stroke-linejoin:round;stroke-miterlimit:7.2;stroke-dasharray:none;stroke-opacity:1"
             d="m 371.99269,155.30724 c 0.57362,2.64563 -7.33235,6.60532 -17.65849,8.84421 -10.32614,2.23887 -19.16213,1.90914 -19.73575,-0.73649 -0.57362,-2.64563 7.33235,-6.60532 17.65849,-8.8442 10.32614,-2.23889 19.16213,-1.90915 19.73575,0.73648 z" /><path
             id="rect197"
             style="fill:#f9f9f9;stroke-width:0.527535;stroke-linecap:round;stroke-linejoin:round;stroke-miterlimit:7.2"
             d="m 337.99898,180.43398 37.07768,-8.03908 1.21754,5.61551 -37.16251,7.64783 z" /><path
             id="path198"
             style="fill:#f9f9f9;stroke:none;stroke-width:2.45877;stroke-linecap:round;stroke-linejoin:round;stroke-miterlimit:7.2"
             d="m 358.17401,108.90237 -3.85085,0.83493 16.03617,73.1328 3.28291,-1.77367 z" /><path
             id="path199"
             style="fill:#ffffff;stroke:none;stroke-width:0.560692;stroke-linecap:round;stroke-linejoin:round;stroke-miterlimit:7.2;stroke-opacity:1"
             d="m 376.66761,177.18088 c 0.68115,3.14156 -7.50243,8.0366 -17.7363,10.25548 -10.23389,2.21889 -17.00114,1.34002 -19.5462,-1.39739 -2.16429,-2.32788 7.9805,-2.43694 18.21439,-4.65583 10.23389,-2.21888 19.08955,-7.38074 19.0681,-4.20229 z" /><path
             id="path201"
             style="fill:#f9f9f9;stroke:none;stroke-width:0.482266;stroke-linecap:round;stroke-linejoin:round;stroke-miterlimit:7.2;stroke-opacity:1"
             d="m 362.50439,112.03489 c 0.49385,2.27775 -7.47638,5.93912 -17.80199,8.1779 -10.32561,2.23876 -19.09653,2.20716 -19.59038,-0.0706 -0.49385,-2.27775 7.47636,-5.93912 17.80197,-8.17789 10.32562,-2.23877 19.09653,-2.20717 19.5904,0.0706 z" /><path
             id="path202"
             style="fill:#f9f9f9;stroke:none;stroke-width:0.298692;stroke-linecap:round;stroke-linejoin:round;stroke-miterlimit:7.2;stroke-opacity:1"
             d="m 356.31419,106.54247 c 0.25627,1.18194 -5.72382,3.48172 -13.3569,5.13671 -7.63308,1.65498 -14.02865,2.03845 -14.28492,0.85652 -0.25624,-1.18195 5.72385,-3.48173 13.35691,-5.13671 7.63306,-1.65497 14.02862,-2.03845 14.28491,-0.85652 z" /><path
             style="fill:#f9f9f9;fill-opacity:1;stroke:none;stroke-width:0.508563;stroke-linecap:round;stroke-linejoin:round;stroke-miterlimit:7.2;stroke-dasharray:none;stroke-opacity:1"
             d="m 328.91822,111.8516 -3.12089,7.4645 11.36956,2.06948 15.66934,-3.47901 8.90307,-6.38329 -5.9322,-5.50163"
             id="path204" /><ellipse
             style="fill:#f9f9f9;fill-opacity:1;stroke:none;stroke-width:0.516974;stroke-linecap:round;stroke-linejoin:round;stroke-miterlimit:7.2;stroke-dasharray:none;stroke-opacity:1"
             id="ellipse204"
             cx="311.50552"
             cy="167.20535"
             rx="9.676816"
             ry="2.2575901"
             transform="rotate(-12.233364)" /><path
             id="path205"
             style="fill:#f9f9f9;stroke:none;stroke-width:0.500074;stroke-linecap:round;stroke-linejoin:round;stroke-miterlimit:7.2"
             d="m 330.38096,99.35149 18.91764,-4.101671 2.83885,13.093301 -18.91763,4.10167 z" /><path
             style="fill:#f9f9f9;fill-opacity:1;stroke:none;stroke-width:0.674154;stroke-linecap:round;stroke-linejoin:round;stroke-miterlimit:7.2;stroke-dasharray:none;stroke-opacity:1"
             d="m 210.17111,187.99954 c 3.09701,1.61137 6.19403,3.22274 9.29108,3.26839 3.09705,0.0456 6.194,-1.47436 9.29102,-2.99441"
             id="path206"
             transform="matrix(1.0532867,-0.22837075,0.12133077,0.55959918,87.90256,51.575368)" /><g
             id="g207"
             transform="matrix(1.0460158,-0.22679428,0.22210442,1.0243853,50.362365,-31.469857)"
             style="fill:#f9f9f9;stroke:none"><path
               id="path207"
               style="fill:#f9f9f9;stroke:none;stroke-width:2.32136;stroke-linecap:round;stroke-linejoin:round;stroke-miterlimit:7.2"
               d="m 235.10788,195.10069 -3.987,-1.99754 -0.23747,71.72095 4.32804,0.35585 z" /></g><g
             id="g208"
             transform="matrix(0.65348712,-0.14168729,0.22008175,1.0150565,130.77859,-46.353718)"
             style="fill:#f9f9f9;stroke:none"><path
               id="path208"
               style="fill:#f9f9f9;stroke:none;stroke-width:2.32136;stroke-linecap:round;stroke-linejoin:round;stroke-miterlimit:7.2"
               d="m 233.02299,195.10069 -1.79512,1.10763 -0.23747,62.04013 2.13616,3.00438 z" /></g><path
             id="path209"
             style="fill:#f9f9f9;stroke:none;stroke-width:1.93232;stroke-linecap:round;stroke-linejoin:round;stroke-miterlimit:7.2;stroke-opacity:1"
             d="m 337.85093,88.126803 c -2.87183,0.622243 -4.32242,5.174292 -3.23987,10.166933 1.08244,4.992664 4.28808,8.535174 7.15972,7.912134 2.87151,-0.6227 4.32183,-5.17454 3.23936,-10.166827 -1.08236,-4.992323 -4.28765,-8.534747 -7.15921,-7.91224 z m 0.59535,2.745853 c 1.307,-0.283314 2.88401,1.873719 3.52244,4.817977 0.63847,2.94446 0.0965,5.561247 -1.21059,5.844717 -1.30709,0.28334 -2.88421,-1.873997 -3.52256,-4.818491 -0.63831,-2.944292 -0.0963,-5.560769 1.21071,-5.844203 z" /><path
             style="fill:#f9f9f9;fill-opacity:1;stroke:none;stroke-width:0.529598;stroke-linecap:butt;stroke-linejoin:bevel;stroke-miterlimit:7.2;stroke-dasharray:none;stroke-opacity:1"
             d="m 348.89715,96.899645 0.53367,2.921034 z"
             id="path210" /><path
             style="fill:#f9f9f9;fill-opacity:1;stroke:none;stroke-width:0.529598;stroke-linecap:butt;stroke-linejoin:bevel;stroke-miterlimit:7.2;stroke-dasharray:none;stroke-opacity:1"
             d="m 346.51249,98.361596 0.53366,2.921034 z"
             id="path211" /><path
             style="fill:#f9f9f9;fill-opacity:1;stroke:none;stroke-width:0.529598;stroke-linecap:butt;stroke-linejoin:bevel;stroke-miterlimit:7.2;stroke-dasharray:none;stroke-opacity:1"
             d="m 343.11798,99.653455 0.53314,2.921145 z"
             id="path212" /><path
             style="fill:#f9f9f9;fill-opacity:1;stroke:none;stroke-width:0.529598;stroke-linecap:butt;stroke-linejoin:bevel;stroke-miterlimit:7.2;stroke-dasharray:none;stroke-opacity:1"
             d="m 339.2299,100.57865 0.53314,2.92115 z"
             id="path213" /><path
             style="fill:#f9f9f9;fill-opacity:1;stroke:none;stroke-width:0.529598;stroke-linecap:butt;stroke-linejoin:bevel;stroke-miterlimit:7.2;stroke-dasharray:none;stroke-opacity:1"
             d="m 335.44045,100.99629 0.53314,2.92115 z"
             id="path214" /><path
             style="fill:#f9f9f9;fill-opacity:1;stroke:none;stroke-width:0.529598;stroke-linecap:butt;stroke-linejoin:bevel;stroke-miterlimit:7.2;stroke-dasharray:none;stroke-opacity:1"
             d="m 332.32654,100.84277 0.53314,2.92115 z"
             id="path215" /><path
             style="fill:#f9f9f9;fill-opacity:1;stroke:none;stroke-width:0.782663;stroke-linecap:square;stroke-linejoin:bevel;stroke-miterlimit:7.2;stroke-dasharray:none;stroke-opacity:1"
             d="m 373.92909,171.74666 0.77494,3.57417 3.14322,-4.4237 z"
             id="path217" /><g
             id="g244"><path
               style="fill:#ffffff;fill-opacity:1;stroke:none;stroke-width:2;stroke-linecap:round;stroke-linejoin:round;stroke-miterlimit:7.2;stroke-dasharray:none;stroke-opacity:1"
               d="M 352.31907,122.16667 648.6905,-150.82973 890.42963,268.38974 355.69168,170.25655 Z"
               id="path170" /><g
               id="g193"
               transform="rotate(-12.233364,594.45681,208.86867)"><rect
                 style="fill:#ffffff;fill-opacity:1;stroke:none;stroke-width:0.507348;stroke-linecap:round;stroke-linejoin:round;stroke-miterlimit:7.2;stroke-dasharray:none;stroke-opacity:1"
                 id="rect1"
                 width="38.269871"
                 height="6.2687821"
                 x="350.0936"
                 y="125.1982" /><path
                 id="path153"
                 style="fill:#ffffff;stroke:none;stroke-width:0.499999;stroke-linecap:round;stroke-linejoin:round;stroke-miterlimit:7.2;stroke-opacity:1"
                 d="m 387.92606,125.19819 a 18.630987,4.6577493 0 0 1 -18.63099,4.65775 18.630987,4.6577493 0 0 1 -18.63098,-4.65775 18.630987,4.6577493 0 0 1 18.63098,-4.65775 18.630987,4.6577493 0 0 1 18.63099,4.65775 z" /><rect
                 style="fill:#ffffff;fill-opacity:1;stroke:none;stroke-width:1.83778;stroke-linecap:round;stroke-linejoin:round;stroke-miterlimit:7.2;stroke-dasharray:none;stroke-opacity:1"
                 id="rect167"
                 width="31.193653"
                 height="66.152145"
                 x="352.31165"
                 y="64.596008" /><path
                 id="path124"
                 style="fill:none;stroke:#000000;stroke-width:1.96913;stroke-linecap:round;stroke-linejoin:round;stroke-miterlimit:7.2;stroke-dasharray:none;stroke-opacity:1"
                 d="m 387.29573,87.210532 a 18.000643,4.6731843 0 0 1 -18.00065,4.673185 18.000643,4.6731843 0 0 1 -18.00064,-4.673185 18.000643,4.6731843 0 0 1 18.00064,-4.673185 18.000643,4.6731843 0 0 1 18.00065,4.673185 z" /><path
                 style="fill:#ffffff;fill-opacity:1;stroke:none;stroke-width:2;stroke-linecap:round;stroke-linejoin:round;stroke-miterlimit:7.2;stroke-dasharray:none;stroke-opacity:1"
                 d="m 352.31165,82.469555 20.30828,-4.657749 9.2783,3.740976 v 5.657749 h -28.5486 -2.68554 z"
                 id="path168" /><path
                 id="path125"
                 style="fill:none;stroke:#000000;stroke-width:1.96288;stroke-linecap:round;stroke-linejoin:round;stroke-miterlimit:7.2;stroke-dasharray:none;stroke-opacity:1"
                 d="m 387.16969,108.65823 a 17.87461,4.6763091 0 0 1 -17.87461,4.67631 17.87461,4.6763091 0 0 1 -17.8746,-4.67631 17.87461,4.6763091 0 0 1 17.8746,-4.67631 17.87461,4.6763091 0 0 1 17.87461,4.67631 z" /><path
                 style="fill:#ffffff;fill-opacity:1;stroke:none;stroke-width:2.11358;stroke-linecap:round;stroke-linejoin:round;stroke-miterlimit:7.2;stroke-dasharray:none;stroke-opacity:1"
                 d="m 352.31165,103.50293 20.30828,-5.201813 9.2783,4.177953 v 6.31861 h -28.5486 -2.68554 z"
                 id="path169" /><rect
                 style="fill:#000000;fill-opacity:1;stroke:none;stroke-width:0.505156;stroke-linecap:round;stroke-linejoin:round;stroke-miterlimit:7.2;stroke-dasharray:none;stroke-opacity:1"
                 id="rect153"
                 width="38.034515"
                 height="5.5499573"
                 x="350.0936"
                 y="125.1982" /><ellipse
                 style="fill:#ffffff;fill-opacity:1;stroke:none;stroke-width:1.15485;stroke-linecap:square;stroke-linejoin:bevel;stroke-miterlimit:7.2;stroke-dasharray:none;stroke-opacity:1"
                 id="path191"
                 cx="382.12982"
                 cy="128.2941"
                 rx="6.0462832"
                 ry="0.72458917" /><path
                 id="rect149"
                 style="fill:#333333;stroke-width:2.32136;stroke-linecap:round;stroke-linejoin:round;stroke-miterlimit:7.2"
                 d="m 383.73895,62.59847 h -3.68144 l 0.16409,71.42821 3.49135,-0.67447 z" /><path
                 id="path126"
                 style="fill:#000000;stroke:#000000;stroke-width:0.587012;stroke-linecap:round;stroke-linejoin:round;stroke-miterlimit:7.2;stroke-opacity:1"
                 d="m 387.88255,131.09536 c 0,3.52128 -8.39906,6.37584 -18.75982,6.37584 -10.36076,0 -18.75981,-2.85457 -18.75981,-6.37584 -2e-5,-3.52128 8.37508,-0.73686 18.73586,-0.73686 10.36076,0 18.78379,-2.78442 18.78377,0.73686 z" /><path
                 id="path188"
                 style="fill:#ffffff;stroke:none;stroke-width:0.501673;stroke-linecap:round;stroke-linejoin:round;stroke-miterlimit:7.2;stroke-opacity:1"
                 d="m 369.42024,120.54045 a 18.755943,4.6577492 0 0 0 -18.75637,4.65759 18.755943,4.6577492 0 0 0 18.75637,4.65812 18.755943,4.6577492 0 0 0 10.8343,-0.85732 v -7.60108 a 18.755943,4.6577492 0 0 0 -10.8343,-0.85731 z m 18.74492,4.53202 v 0.25166 a 18.755943,4.6577492 0 0 0 0.0109,-0.12609 18.755943,4.6577492 0 0 0 -0.0109,-0.12557 z" /><path
                 id="path127"
                 style="fill:#000000;stroke:#000000;stroke-width:0.499999;stroke-linecap:round;stroke-linejoin:round;stroke-miterlimit:7.2;stroke-opacity:1"
                 d="m 387.92608,65.762822 a 18.630997,4.6577492 0 0 1 -18.631,4.65775 18.630997,4.6577492 0 0 1 -18.63099,-4.65775 18.630997,4.6577492 0 0 1 18.63099,-4.65775 18.630997,4.6577492 0 0 1 18.631,4.65775 z" /><path
                 id="path128"
                 style="fill:#000000;stroke:#000000;stroke-width:0.327879;stroke-linecap:round;stroke-linejoin:round;stroke-miterlimit:7.2;stroke-opacity:1"
                 d="m 383.23327,59.434082 a 13.938202,2.6772789 0 0 1 -13.9382,2.67728 13.938202,2.6772789 0 0 1 -13.9382,-2.67728 13.938202,2.6772789 0 0 1 13.9382,-2.67727 13.938202,2.6772789 0 0 1 13.9382,2.67727 z" /><path
                 id="path149"
                 style="fill:#000000;fill-opacity:1;stroke-width:2.32136;stroke-linecap:round;stroke-linejoin:round;stroke-miterlimit:7.2"
                 d="m 385.57966,62.598475 h -3.68144 l -0.15556,71.428205 3.94057,-1.34895 z" /><path
                 style="fill:#000000;fill-opacity:1;stroke:#000000;stroke-width:0.499999;stroke-linecap:round;stroke-linejoin:round;stroke-miterlimit:7.2;stroke-dasharray:none;stroke-opacity:1"
                 d="m 355.35687,59.434082 -4.69278,6.32874 10.81361,4.2279 16.26234,-0.0761 10.18604,-4.15178 -4.69281,-6.32874"
                 id="path129" /><ellipse
                 style="fill:#000000;fill-opacity:1;stroke:#000000;stroke-width:0.499999;stroke-linecap:round;stroke-linejoin:round;stroke-miterlimit:7.2;stroke-dasharray:none;stroke-opacity:1"
                 id="path130"
                 cx="369.29507"
                 cy="46.712589"
                 rx="9.0410509"
                 ry="2.2602627" /><path
                 id="rect130"
                 style="fill:#00032c;fill-opacity:1;stroke:#000000;stroke-width:0.496682;stroke-linecap:round;stroke-linejoin:round;stroke-miterlimit:7.2;stroke-opacity:1"
                 d="m 360.25236,46.710932 h 18.08542 v 14.1458 h -18.08542 z" /><path
                 style="fill:none;fill-opacity:1;stroke:#ffffff;stroke-width:0.674154;stroke-linecap:round;stroke-linejoin:round;stroke-miterlimit:7.2;stroke-dasharray:none;stroke-opacity:1"
                 d="m 210.17111,187.99954 c 3.09701,1.61137 6.19403,3.22274 9.29108,3.26839 3.09705,0.0456 6.194,-1.47436 9.29102,-2.99441"
                 id="path131"
                 transform="matrix(1.0069511,0,0,0.54627804,148.30741,-45.487361)" /><g
                 id="g152"
                 transform="translate(130.47071,-130.50468)"
                 style="fill:#000000;fill-opacity:1"><path
                   id="path152"
                   style="fill:#000000;fill-opacity:1;stroke-width:2.32136;stroke-linecap:round;stroke-linejoin:round;stroke-miterlimit:7.2"
                   d="m 235.10788,195.10069 -3.987,-1.99754 -0.23747,71.72095 4.32804,0.35585 z" /></g><g
                 id="g154"
                 transform="matrix(1.0641303,0,0,1,104.28972,-130.50468)"
                 style="fill:#000000;fill-opacity:1"><path
                   id="path154"
                   style="fill:#000000;fill-opacity:1;stroke-width:2.32136;stroke-linecap:round;stroke-linejoin:round;stroke-miterlimit:7.2"
                   d="m 233.02299,195.10069 -1.79512,1.10763 -0.23747,62.04013 2.13616,3.00438 z" /></g><path
                 id="path171"
                 style="fill:none;stroke:#000000;stroke-width:1.71084;stroke-linecap:round;stroke-linejoin:round;stroke-miterlimit:7.2;stroke-opacity:1"
                 d="m 373.41244,47.399448 a 4.1173694,9.3687531 0 0 1 -4.11737,9.368753 4.1173694,9.3687531 0 0 1 -4.11737,-9.368753 4.1173694,9.3687531 0 0 1 4.11737,-9.368752 4.1173694,9.3687531 0 0 1 4.11737,9.368752 z" /><path
                 style="fill:#ffffff;fill-opacity:1;stroke:#ffffff;stroke-width:0.5;stroke-linecap:butt;stroke-linejoin:bevel;stroke-miterlimit:7.2;stroke-dasharray:none;stroke-opacity:1"
                 d="m 377.6446,49.532204 -0.091,2.831351 z"
                 id="path185" /><path
                 style="fill:#ffffff;fill-opacity:1;stroke:#ffffff;stroke-width:0.5;stroke-linecap:butt;stroke-linejoin:bevel;stroke-miterlimit:7.2;stroke-dasharray:none;stroke-opacity:1"
                 d="m 375.17778,50.413207 -0.091,2.831351 z"
                 id="path184" /><path
                 style="fill:#ffffff;fill-opacity:1;stroke:#ffffff;stroke-width:0.5;stroke-linecap:butt;stroke-linejoin:bevel;stroke-miterlimit:7.2;stroke-dasharray:none;stroke-opacity:1"
                 d="m 371.82255,50.93148 -0.0915,2.831351 z"
                 id="path183" /><path
                 style="fill:#ffffff;fill-opacity:1;stroke:#ffffff;stroke-width:0.5;stroke-linecap:butt;stroke-linejoin:bevel;stroke-miterlimit:7.2;stroke-dasharray:none;stroke-opacity:1"
                 d="m 368.08924,51.008119 -0.0915,2.831351 z"
                 id="path182" /><path
                 style="fill:#ffffff;fill-opacity:1;stroke:#ffffff;stroke-width:0.5;stroke-linecap:butt;stroke-linejoin:bevel;stroke-miterlimit:7.2;stroke-dasharray:none;stroke-opacity:1"
                 d="m 364.54647,50.631457 -0.0915,2.831351 z"
                 id="path181" /><path
                 style="fill:#ffffff;fill-opacity:1;stroke:#ffffff;stroke-width:0.5;stroke-linecap:butt;stroke-linejoin:bevel;stroke-miterlimit:7.2;stroke-dasharray:none;stroke-opacity:1"
                 d="m 361.7336,49.858838 -0.0915,2.831351 z"
                 id="path173" /><path
                 style="fill:none;fill-opacity:1;stroke:#ffffff;stroke-width:0.39504;stroke-linecap:square;stroke-linejoin:round;stroke-miterlimit:7.2;stroke-dasharray:none;stroke-opacity:1"
                 d="m 210.17111,187.99954 c 3.09701,1.61137 6.19403,3.22274 9.29108,3.26839 3.09705,0.0456 6.194,-1.47436 9.29102,-2.99441"
                 id="path189"
                 transform="matrix(1.8593735,0,0,0.88105936,-38.767066,-101.94531)" /><path
                 style="fill:#ffffff;fill-opacity:1;stroke:none;stroke-width:0.738922;stroke-linecap:square;stroke-linejoin:bevel;stroke-miterlimit:7.2;stroke-dasharray:none;stroke-opacity:1"
                 d="m 385.68323,124.37721 v 3.48909 l 3.7458,-3.48909 z"
                 id="path190" /><path
                 style="fill:#ffffff;fill-opacity:1;stroke:none;stroke-width:0.613187;stroke-linecap:square;stroke-linejoin:bevel;stroke-miterlimit:7.2;stroke-dasharray:none;stroke-opacity:1"
                 d="m 389.43604,128.2941 -0.0722,-3.54373 -3.6771,1.37138 -0.0105,2.05147 3.75932,0.12088"
                 id="path192" /></g></g><g
             id="g576"
             transform="translate(641.32418,-437.8946)"
             mask="url(#mask579)"><path
               style="fill:#ffffff;fill-opacity:1;stroke:none;stroke-width:2;stroke-linecap:round;stroke-linejoin:round;stroke-miterlimit:7.2;stroke-dasharray:none;stroke-opacity:1"
               d="M 352.31907,122.16667 477.85777,-432.8417 915.46407,406.65148 355.69168,170.25655 Z"
               id="path244" /><g
               id="g575"
               transform="rotate(-12.233364,594.45681,208.86867)"><rect
                 style="fill:#ffffff;fill-opacity:1;stroke:none;stroke-width:0.507348;stroke-linecap:round;stroke-linejoin:round;stroke-miterlimit:7.2;stroke-dasharray:none;stroke-opacity:1"
                 id="rect244"
                 width="38.269871"
                 height="6.2687821"
                 x="350.0936"
                 y="125.1982" /><path
                 id="path245"
                 style="fill:#ffffff;stroke:none;stroke-width:0.499999;stroke-linecap:round;stroke-linejoin:round;stroke-miterlimit:7.2;stroke-opacity:1"
                 d="m 387.92606,125.19819 a 18.630987,4.6577493 0 0 1 -18.63099,4.65775 18.630987,4.6577493 0 0 1 -18.63098,-4.65775 18.630987,4.6577493 0 0 1 18.63098,-4.65775 18.630987,4.6577493 0 0 1 18.63099,4.65775 z" /><rect
                 style="fill:#ffffff;fill-opacity:1;stroke:none;stroke-width:1.83778;stroke-linecap:round;stroke-linejoin:round;stroke-miterlimit:7.2;stroke-dasharray:none;stroke-opacity:1"
                 id="rect245"
                 width="31.193653"
                 height="66.152145"
                 x="352.31165"
                 y="64.596008" /><path
                 id="path246"
                 style="fill:none;stroke:#000000;stroke-width:1.96913;stroke-linecap:round;stroke-linejoin:round;stroke-miterlimit:7.2;stroke-dasharray:none;stroke-opacity:1"
                 d="m 387.29573,87.210532 a 18.000643,4.6731843 0 0 1 -18.00065,4.673185 18.000643,4.6731843 0 0 1 -18.00064,-4.673185 18.000643,4.6731843 0 0 1 18.00064,-4.673185 18.000643,4.6731843 0 0 1 18.00065,4.673185 z" /><path
                 style="fill:#ffffff;fill-opacity:1;stroke:none;stroke-width:2;stroke-linecap:round;stroke-linejoin:round;stroke-miterlimit:7.2;stroke-dasharray:none;stroke-opacity:1"
                 d="m 352.31165,82.469555 20.30828,-4.657749 9.2783,3.740976 v 5.657749 h -28.5486 -2.68554 z"
                 id="path247" /><path
                 id="path248"
                 style="fill:none;stroke:#000000;stroke-width:1.96288;stroke-linecap:round;stroke-linejoin:round;stroke-miterlimit:7.2;stroke-dasharray:none;stroke-opacity:1"
                 d="m 387.16969,108.65823 a 17.87461,4.6763091 0 0 1 -17.87461,4.67631 17.87461,4.6763091 0 0 1 -17.8746,-4.67631 17.87461,4.6763091 0 0 1 17.8746,-4.67631 17.87461,4.6763091 0 0 1 17.87461,4.67631 z" /><path
                 style="fill:#ffffff;fill-opacity:1;stroke:none;stroke-width:2.11358;stroke-linecap:round;stroke-linejoin:round;stroke-miterlimit:7.2;stroke-dasharray:none;stroke-opacity:1"
                 d="m 352.31165,103.50293 20.30828,-5.201813 9.2783,4.177953 v 6.31861 h -28.5486 -2.68554 z"
                 id="path275" /><rect
                 style="fill:#000000;fill-opacity:1;stroke:none;stroke-width:0.505156;stroke-linecap:round;stroke-linejoin:round;stroke-miterlimit:7.2;stroke-dasharray:none;stroke-opacity:1"
                 id="rect287"
                 width="38.034515"
                 height="5.5499573"
                 x="350.0936"
                 y="125.1982" /><ellipse
                 style="fill:#ffffff;fill-opacity:1;stroke:none;stroke-width:1.15485;stroke-linecap:square;stroke-linejoin:bevel;stroke-miterlimit:7.2;stroke-dasharray:none;stroke-opacity:1"
                 id="ellipse287"
                 cx="382.12982"
                 cy="128.2941"
                 rx="6.0462832"
                 ry="0.72458917" /><path
                 id="path415"
                 style="fill:#333333;stroke-width:2.32136;stroke-linecap:round;stroke-linejoin:round;stroke-miterlimit:7.2"
                 d="m 383.73895,62.59847 h -3.68144 l 0.16409,71.42821 3.49135,-0.67447 z" /><path
                 id="path416"
                 style="fill:#000000;stroke:#000000;stroke-width:0.587012;stroke-linecap:round;stroke-linejoin:round;stroke-miterlimit:7.2;stroke-opacity:1"
                 d="m 387.88255,131.09536 c 0,3.52128 -8.39906,6.37584 -18.75982,6.37584 -10.36076,0 -18.75981,-2.85457 -18.75981,-6.37584 -2e-5,-3.52128 8.37508,-0.73686 18.73586,-0.73686 10.36076,0 18.78379,-2.78442 18.78377,0.73686 z" /><path
                 id="path417"
                 style="fill:#ffffff;stroke:none;stroke-width:0.501673;stroke-linecap:round;stroke-linejoin:round;stroke-miterlimit:7.2;stroke-opacity:1"
                 d="m 369.42024,120.54045 a 18.755943,4.6577492 0 0 0 -18.75637,4.65759 18.755943,4.6577492 0 0 0 18.75637,4.65812 18.755943,4.6577492 0 0 0 10.8343,-0.85732 v -7.60108 a 18.755943,4.6577492 0 0 0 -10.8343,-0.85731 z m 18.74492,4.53202 v 0.25166 a 18.755943,4.6577492 0 0 0 0.0109,-0.12609 18.755943,4.6577492 0 0 0 -0.0109,-0.12557 z" /><path
                 id="path418"
                 style="fill:#000000;stroke:#000000;stroke-width:0.499999;stroke-linecap:round;stroke-linejoin:round;stroke-miterlimit:7.2;stroke-opacity:1"
                 d="m 387.92608,65.762822 a 18.630997,4.6577492 0 0 1 -18.631,4.65775 18.630997,4.6577492 0 0 1 -18.63099,-4.65775 18.630997,4.6577492 0 0 1 18.63099,-4.65775 18.630997,4.6577492 0 0 1 18.631,4.65775 z" /><path
                 id="path419"
                 style="fill:#000000;stroke:#000000;stroke-width:0.327879;stroke-linecap:round;stroke-linejoin:round;stroke-miterlimit:7.2;stroke-opacity:1"
                 d="m 383.23327,59.434082 a 13.938202,2.6772789 0 0 1 -13.9382,2.67728 13.938202,2.6772789 0 0 1 -13.9382,-2.67728 13.938202,2.6772789 0 0 1 13.9382,-2.67727 13.938202,2.6772789 0 0 1 13.9382,2.67727 z" /><path
                 id="path420"
                 style="fill:#000000;fill-opacity:1;stroke-width:2.32136;stroke-linecap:round;stroke-linejoin:round;stroke-miterlimit:7.2"
                 d="m 385.57966,62.598475 h -3.68144 l -0.15556,71.428205 3.94057,-1.34895 z" /><path
                 style="fill:#000000;fill-opacity:1;stroke:#000000;stroke-width:0.499999;stroke-linecap:round;stroke-linejoin:round;stroke-miterlimit:7.2;stroke-dasharray:none;stroke-opacity:1"
                 d="m 355.35687,59.434082 -4.69278,6.32874 10.81361,4.2279 16.26234,-0.0761 10.18604,-4.15178 -4.69281,-6.32874"
                 id="path421" /><ellipse
                 style="fill:#000000;fill-opacity:1;stroke:#000000;stroke-width:0.499999;stroke-linecap:round;stroke-linejoin:round;stroke-miterlimit:7.2;stroke-dasharray:none;stroke-opacity:1"
                 id="ellipse421"
                 cx="369.29507"
                 cy="46.712589"
                 rx="9.0410509"
                 ry="2.2602627" /><path
                 id="path561"
                 style="fill:#00032c;fill-opacity:1;stroke:#000000;stroke-width:0.496682;stroke-linecap:round;stroke-linejoin:round;stroke-miterlimit:7.2;stroke-opacity:1"
                 d="m 360.25236,46.710932 h 18.08542 v 14.1458 h -18.08542 z" /><path
                 style="fill:none;fill-opacity:1;stroke:#ffffff;stroke-width:0.674154;stroke-linecap:round;stroke-linejoin:round;stroke-miterlimit:7.2;stroke-dasharray:none;stroke-opacity:1"
                 d="m 210.17111,187.99954 c 3.09701,1.61137 6.19403,3.22274 9.29108,3.26839 3.09705,0.0456 6.194,-1.47436 9.29102,-2.99441"
                 id="path562"
                 transform="matrix(1.0069511,0,0,0.54627804,148.30741,-45.487361)" /><g
                 id="g565"
                 transform="translate(130.47071,-130.50468)"
                 style="fill:#000000;fill-opacity:1"><path
                   id="path563"
                   style="fill:#000000;fill-opacity:1;stroke-width:2.32136;stroke-linecap:round;stroke-linejoin:round;stroke-miterlimit:7.2"
                   d="m 235.10788,195.10069 -3.987,-1.99754 -0.23747,71.72095 4.32804,0.35585 z" /></g><g
                 id="g566"
                 transform="matrix(1.0641303,0,0,1,104.28972,-130.50468)"
                 style="fill:#000000;fill-opacity:1"><path
                   id="path565"
                   style="fill:#000000;fill-opacity:1;stroke-width:2.32136;stroke-linecap:round;stroke-linejoin:round;stroke-miterlimit:7.2"
                   d="m 233.02299,195.10069 -1.79512,1.10763 -0.23747,62.04013 2.13616,3.00438 z" /></g><path
                 id="path566"
                 style="fill:none;stroke:#000000;stroke-width:1.71084;stroke-linecap:round;stroke-linejoin:round;stroke-miterlimit:7.2;stroke-opacity:1"
                 d="m 373.41244,47.399448 a 4.1173694,9.3687531 0 0 1 -4.11737,9.368753 4.1173694,9.3687531 0 0 1 -4.11737,-9.368753 4.1173694,9.3687531 0 0 1 4.11737,-9.368752 4.1173694,9.3687531 0 0 1 4.11737,9.368752 z" /><path
                 style="fill:#ffffff;fill-opacity:1;stroke:#ffffff;stroke-width:0.5;stroke-linecap:butt;stroke-linejoin:bevel;stroke-miterlimit:7.2;stroke-dasharray:none;stroke-opacity:1"
                 d="m 377.6446,49.532204 -0.091,2.831351 z"
                 id="path567" /><path
                 style="fill:#ffffff;fill-opacity:1;stroke:#ffffff;stroke-width:0.5;stroke-linecap:butt;stroke-linejoin:bevel;stroke-miterlimit:7.2;stroke-dasharray:none;stroke-opacity:1"
                 d="m 375.17778,50.413207 -0.091,2.831351 z"
                 id="path568" /><path
                 style="fill:#ffffff;fill-opacity:1;stroke:#ffffff;stroke-width:0.5;stroke-linecap:butt;stroke-linejoin:bevel;stroke-miterlimit:7.2;stroke-dasharray:none;stroke-opacity:1"
                 d="m 371.82255,50.93148 -0.0915,2.831351 z"
                 id="path569" /><path
                 style="fill:#ffffff;fill-opacity:1;stroke:#ffffff;stroke-width:0.5;stroke-linecap:butt;stroke-linejoin:bevel;stroke-miterlimit:7.2;stroke-dasharray:none;stroke-opacity:1"
                 d="m 368.08924,51.008119 -0.0915,2.831351 z"
                 id="path570" /><path
                 style="fill:#ffffff;fill-opacity:1;stroke:#ffffff;stroke-width:0.5;stroke-linecap:butt;stroke-linejoin:bevel;stroke-miterlimit:7.2;stroke-dasharray:none;stroke-opacity:1"
                 d="m 364.54647,50.631457 -0.0915,2.831351 z"
                 id="path571" /><path
                 style="fill:#ffffff;fill-opacity:1;stroke:#ffffff;stroke-width:0.5;stroke-linecap:butt;stroke-linejoin:bevel;stroke-miterlimit:7.2;stroke-dasharray:none;stroke-opacity:1"
                 d="m 361.7336,49.858838 -0.0915,2.831351 z"
                 id="path572" /><path
                 style="fill:none;fill-opacity:1;stroke:#ffffff;stroke-width:0.39504;stroke-linecap:square;stroke-linejoin:round;stroke-miterlimit:7.2;stroke-dasharray:none;stroke-opacity:1"
                 d="m 210.17111,187.99954 c 3.09701,1.61137 6.19403,3.22274 9.29108,3.26839 3.09705,0.0456 6.194,-1.47436 9.29102,-2.99441"
                 id="path573"
                 transform="matrix(1.8593735,0,0,0.88105936,-38.767066,-101.94531)" /><path
                 style="fill:#ffffff;fill-opacity:1;stroke:none;stroke-width:0.738922;stroke-linecap:square;stroke-linejoin:bevel;stroke-miterlimit:7.2;stroke-dasharray:none;stroke-opacity:1"
                 d="m 385.68323,124.37721 v 3.48909 l 3.7458,-3.48909 z"
                 id="path574" /><path
                 style="fill:#ffffff;fill-opacity:1;stroke:none;stroke-width:0.613187;stroke-linecap:square;stroke-linejoin:bevel;stroke-miterlimit:7.2;stroke-dasharray:none;stroke-opacity:1"
                 d="m 389.43604,128.2941 -0.0722,-3.54373 -3.6771,1.37138 -0.0105,2.05147 3.75932,0.12088"
                 id="path575" /></g></g></g></g></g></g></svg>
