<?xml version="1.0" encoding="UTF-8" standalone="no"?>
<!-- Created with Inkscape (http://www.inkscape.org/) -->

<svg
   width="27.18886mm"
   height="118.01327mm"
   viewBox="0 0 27.18886 118.01327"
   version="1.1"
   id="svg1"
   xml:space="preserve"
   sodipodi:docname="website_data.svg"
   inkscape:version="1.3.2 (091e20e, 2023-11-25, custom)"
   xmlns:inkscape="http://www.inkscape.org/namespaces/inkscape"
   xmlns:sodipodi="http://sodipodi.sourceforge.net/DTD/sodipodi-0.dtd"
   xmlns="http://www.w3.org/2000/svg"
   xmlns:svg="http://www.w3.org/2000/svg"><sodipodi:namedview
     id="namedview1"
     pagecolor="#ffffff"
     bordercolor="#000000"
     borderopacity="0.25"
     inkscape:showpageshadow="2"
     inkscape:pageopacity="0.0"
     inkscape:pagecheckerboard="0"
     inkscape:deskcolor="#d1d1d1"
     inkscape:document-units="mm"
     inkscape:zoom="0.89738668"
     inkscape:cx="4262.3766"
     inkscape:cy="-742.71216"
     inkscape:window-width="1920"
     inkscape:window-height="1009"
     inkscape:window-x="-8"
     inkscape:window-y="-8"
     inkscape:window-maximized="1"
     inkscape:current-layer="g243" /><defs
     id="defs1" /><g
     inkscape:label="Layer 1"
     inkscape:groupmode="layer"
     id="layer1"
     transform="translate(-575.92978,-728.17683)"><g
       id="g672"
       transform="matrix(0,-0.74238503,0.74238503,0,5.1309706,1224.8374)"><g
         id="g671"
         transform="translate(25.322694,758.85551)"><path
           id="path244"
           style="fill:none;fill-opacity:0.478152;stroke:#000000;stroke-width:1;stroke-linecap:round;stroke-linejoin:round;stroke-miterlimit:7.2;stroke-dasharray:none;stroke-opacity:1;paint-order:stroke fill markers"
           d="m 485.21899,10.516142 v 13.12995 h 2.44275 v 3.96978 h -2.44275 v 5.29218 h 2.44275 v 3.96979 h -2.44275 v 9.26196 h 64.00178 v -2.98431 c 0,-0.98209 0.50461,-1.47329 1.00924,-1.47329 0.50464,0 1.00976,0.4912 1.00976,1.47329 v 2.98431 h 91.94426 v -9.26196 h -2.34094 v -3.96979 h 2.34094 v -5.29218 h -2.34094 v -3.96978 h 2.34094 v -13.12995 z m 2.44275,30.83998 a 1.9338491,1.9338491 0 0 1 1.93373,1.93373 1.9338491,1.9338491 0 0 1 -1.93373,1.93425 1.9338491,1.9338491 0 0 1 -1.93373,-1.93425 1.9338491,1.9338491 0 0 1 1.93373,-1.93373 z m 153.07954,0.3054 a 1.9338491,1.9338491 0 0 1 1.93374,1.93374 1.9338491,1.9338491 0 0 1 -1.93374,1.93373 1.9338491,1.9338491 0 0 1 -1.93373,-1.93373 1.9338491,1.9338491 0 0 1 1.93373,-1.93374 z" /><path
           id="path245"
           style="fill:#000000;fill-opacity:1;stroke:#000000;stroke-width:1.05833;stroke-linecap:round;stroke-linejoin:round;stroke-miterlimit:7.2;paint-order:stroke fill markers"
           d="m 494.561,19.433298 h 8.70843 V 32.172061 H 494.561 Z" /><path
           id="path246"
           style="fill:#000000;fill-opacity:1;stroke:#000000;stroke-width:1.05833;stroke-linecap:round;stroke-linejoin:round;stroke-miterlimit:7.2;paint-order:stroke fill markers"
           d="m 511.25815,19.433298 h 8.70842 v 12.738763 h -8.70842 z" /><path
           id="path247"
           style="fill:#000000;fill-opacity:1;stroke:#000000;stroke-width:1.05833;stroke-linecap:round;stroke-linejoin:round;stroke-miterlimit:7.2;paint-order:stroke fill markers"
           d="m 528.24323,19.433298 h 8.70842 v 12.738763 h -8.70842 z" /><path
           id="path248"
           style="fill:#000000;fill-opacity:1;stroke:#000000;stroke-width:1.05833;stroke-linecap:round;stroke-linejoin:round;stroke-miterlimit:7.2;paint-order:stroke fill markers"
           d="m 544.36462,19.433298 h 8.70842 v 12.738763 h -8.70842 z" /><path
           id="path275"
           style="fill:#000000;fill-opacity:1;stroke:#000000;stroke-width:1.05833;stroke-linecap:round;stroke-linejoin:round;stroke-miterlimit:7.2;paint-order:stroke fill markers"
           d="m 572.28906,19.433298 h 8.70842 v 12.738763 h -8.70842 z" /><path
           id="path276"
           style="fill:#000000;fill-opacity:1;stroke:#000000;stroke-width:1.05833;stroke-linecap:round;stroke-linejoin:round;stroke-miterlimit:7.2;paint-order:stroke fill markers"
           d="m 588.98621,19.433298 h 8.70842 v 12.738763 h -8.70842 z" /><path
           id="path279"
           style="fill:#000000;fill-opacity:1;stroke:#000000;stroke-width:1.05833;stroke-linecap:round;stroke-linejoin:round;stroke-miterlimit:7.2;paint-order:stroke fill markers"
           d="m 605.97125,19.433298 h 8.70842 v 12.738763 h -8.70842 z" /><path
           id="path280"
           style="fill:#000000;fill-opacity:1;stroke:#000000;stroke-width:1.05833;stroke-linecap:round;stroke-linejoin:round;stroke-miterlimit:7.2;paint-order:stroke fill markers"
           d="m 622.09265,19.433298 h 8.70842 v 12.738763 h -8.70842 z" /><path
           style="fill:none;fill-opacity:0.478152;stroke:#000000;stroke-width:0.529167;stroke-linecap:round;stroke-linejoin:round;stroke-miterlimit:7.2;stroke-dasharray:none;stroke-opacity:1;paint-order:stroke fill markers"
           id="path283"
           d="m 490.90005,43.415732 c -0.0289,0.55959 -0.0143,1.12058 -0.009,1.68065 8e-4,0.0949 0.002,0.18983 0.003,0.28475 0.007,0.74832 1.06534,0.73835 1.05829,-0.01 v 0 c -7.9e-4,-0.0948 -0.002,-0.1896 -0.003,-0.28439 -0.005,-0.51798 -0.0158,-1.03637 0.003,-1.55416 0.0826,-0.74378 -0.96922,-0.86065 -1.05186,-0.11687 z" /><path
           style="fill:none;fill-opacity:0.478152;stroke:#000000;stroke-width:0.529167;stroke-linecap:round;stroke-linejoin:round;stroke-miterlimit:7.2;stroke-dasharray:none;stroke-opacity:1;paint-order:stroke fill markers"
           id="path285"
           d="m 492.2315,43.415732 c -0.0289,0.55959 -0.0143,1.12058 -0.009,1.68065 8e-4,0.0949 0.002,0.18983 0.003,0.28475 0.007,0.74832 1.06534,0.73835 1.05829,-0.01 v 0 c -7.9e-4,-0.0948 -0.002,-0.1896 -0.003,-0.28439 -0.005,-0.51798 -0.0158,-1.03637 0.003,-1.55416 0.0826,-0.74378 -0.96922,-0.86065 -1.05186,-0.11687 z" /><path
           style="fill:none;fill-opacity:0.478152;stroke:#000000;stroke-width:0.529167;stroke-linecap:round;stroke-linejoin:round;stroke-miterlimit:7.2;stroke-dasharray:none;stroke-opacity:1;paint-order:stroke fill markers"
           id="path415"
           d="m 493.49098,43.415732 c -0.0289,0.55959 -0.0143,1.12058 -0.009,1.68065 8e-4,0.0949 0.002,0.18983 0.003,0.28475 0.007,0.74832 1.06534,0.73835 1.05829,-0.01 v 0 c -7.9e-4,-0.0948 -0.002,-0.1896 -0.003,-0.28439 -0.005,-0.51798 -0.0158,-1.03637 0.003,-1.55416 0.0826,-0.74378 -0.96922,-0.86065 -1.05186,-0.11687 z" /><path
           style="fill:none;fill-opacity:0.478152;stroke:#000000;stroke-width:0.529167;stroke-linecap:round;stroke-linejoin:round;stroke-miterlimit:7.2;stroke-dasharray:none;stroke-opacity:1;paint-order:stroke fill markers"
           id="path416"
           d="m 494.75046,43.415732 c -0.0289,0.55959 -0.0143,1.12058 -0.009,1.68065 8e-4,0.0949 0.002,0.18983 0.003,0.28475 0.007,0.74832 1.06534,0.73835 1.05829,-0.01 v 0 c -7.9e-4,-0.0948 -0.002,-0.1896 -0.003,-0.28439 -0.005,-0.51798 -0.0158,-1.03637 0.003,-1.55416 0.0826,-0.74378 -0.96922,-0.86065 -1.05186,-0.11687 z" /><path
           style="fill:none;fill-opacity:0.478152;stroke:#000000;stroke-width:0.529167;stroke-linecap:round;stroke-linejoin:round;stroke-miterlimit:7.2;stroke-dasharray:none;stroke-opacity:1;paint-order:stroke fill markers"
           id="path417"
           d="m 495.90199,43.415732 c -0.0289,0.55959 -0.0143,1.12058 -0.009,1.68065 8e-4,0.0949 0.002,0.18983 0.003,0.28475 0.007,0.74832 1.06534,0.73835 1.05829,-0.01 v 0 c -7.9e-4,-0.0948 -0.002,-0.1896 -0.003,-0.28439 -0.005,-0.51798 -0.0158,-1.03637 0.003,-1.55416 0.0826,-0.74378 -0.96922,-0.86065 -1.05186,-0.11687 z" /><path
           style="fill:none;fill-opacity:0.478152;stroke:#000000;stroke-width:0.529167;stroke-linecap:round;stroke-linejoin:round;stroke-miterlimit:7.2;stroke-dasharray:none;stroke-opacity:1;paint-order:stroke fill markers"
           id="path418"
           d="m 497.05352,43.415732 c -0.0289,0.55959 -0.0143,1.12058 -0.009,1.68065 8e-4,0.0949 0.002,0.18983 0.003,0.28475 0.007,0.74832 1.06534,0.73835 1.05829,-0.01 v 0 c -7.9e-4,-0.0948 -0.002,-0.1896 -0.003,-0.28439 -0.005,-0.51798 -0.0158,-1.03637 0.003,-1.55416 0.0826,-0.74378 -0.96922,-0.86065 -1.05186,-0.11687 z" /><path
           style="fill:none;fill-opacity:0.478152;stroke:#000000;stroke-width:0.529167;stroke-linecap:round;stroke-linejoin:round;stroke-miterlimit:7.2;stroke-dasharray:none;stroke-opacity:1;paint-order:stroke fill markers"
           id="path419"
           d="m 498.27702,43.415732 c -0.0289,0.55959 -0.0143,1.12058 -0.009,1.68065 8e-4,0.0949 0.002,0.18983 0.003,0.28475 0.007,0.74832 1.06534,0.73835 1.05829,-0.01 v 0 c -7.9e-4,-0.0948 -0.002,-0.1896 -0.003,-0.28439 -0.005,-0.51798 -0.0158,-1.03637 0.003,-1.55416 0.0826,-0.74378 -0.96922,-0.86065 -1.05186,-0.11687 z" /><path
           style="fill:none;fill-opacity:0.478152;stroke:#000000;stroke-width:0.529167;stroke-linecap:round;stroke-linejoin:round;stroke-miterlimit:7.2;stroke-dasharray:none;stroke-opacity:1;paint-order:stroke fill markers"
           id="path420"
           d="m 499.42855,43.415732 c -0.0289,0.55959 -0.0143,1.12058 -0.009,1.68065 8e-4,0.0949 0.002,0.18983 0.003,0.28475 0.007,0.74832 1.06534,0.73835 1.05829,-0.01 v 0 c -7.9e-4,-0.0948 -0.002,-0.1896 -0.003,-0.28439 -0.005,-0.51798 -0.0158,-1.03637 0.003,-1.55416 0.0826,-0.74378 -0.96922,-0.86065 -1.05186,-0.11687 z" /><path
           style="fill:none;fill-opacity:0.478152;stroke:#000000;stroke-width:0.529167;stroke-linecap:round;stroke-linejoin:round;stroke-miterlimit:7.2;stroke-dasharray:none;stroke-opacity:1;paint-order:stroke fill markers"
           id="path421"
           d="m 500.50811,43.415732 c -0.0289,0.55959 -0.0143,1.12058 -0.009,1.68065 8e-4,0.0949 0.002,0.18983 0.003,0.28475 0.007,0.74832 1.06534,0.73835 1.05829,-0.01 v 0 c -7.9e-4,-0.0948 -0.002,-0.1896 -0.003,-0.28439 -0.005,-0.51798 -0.0158,-1.03637 0.003,-1.55416 0.0826,-0.74378 -0.96922,-0.86065 -1.05186,-0.11687 z" /><path
           style="fill:none;fill-opacity:0.478152;stroke:#000000;stroke-width:0.529167;stroke-linecap:round;stroke-linejoin:round;stroke-miterlimit:7.2;stroke-dasharray:none;stroke-opacity:1;paint-order:stroke fill markers"
           id="path561"
           d="m 501.76759,43.415732 c -0.0289,0.55959 -0.0143,1.12058 -0.009,1.68065 8e-4,0.0949 0.002,0.18983 0.003,0.28475 0.007,0.74832 1.06534,0.73835 1.05829,-0.01 v 0 c -7.9e-4,-0.0948 -0.002,-0.1896 -0.003,-0.28439 -0.005,-0.51798 -0.0158,-1.03637 0.003,-1.55416 0.0826,-0.74378 -0.96922,-0.86065 -1.05186,-0.11687 z" /><path
           style="fill:none;fill-opacity:0.478152;stroke:#000000;stroke-width:0.529167;stroke-linecap:round;stroke-linejoin:round;stroke-miterlimit:7.2;stroke-dasharray:none;stroke-opacity:1;paint-order:stroke fill markers"
           id="path562"
           d="m 502.99109,43.415732 c -0.0289,0.55959 -0.0143,1.12058 -0.009,1.68065 8e-4,0.0949 0.002,0.18983 0.003,0.28475 0.007,0.74832 1.06534,0.73835 1.05829,-0.01 v 0 c -7.9e-4,-0.0948 -0.002,-0.1896 -0.003,-0.28439 -0.005,-0.51798 -0.0158,-1.03637 0.003,-1.55416 0.0826,-0.74378 -0.96922,-0.86065 -1.05186,-0.11687 z" /><path
           style="fill:none;fill-opacity:0.478152;stroke:#000000;stroke-width:0.529167;stroke-linecap:round;stroke-linejoin:round;stroke-miterlimit:7.2;stroke-dasharray:none;stroke-opacity:1;paint-order:stroke fill markers"
           id="path563"
           d="m 504.10663,43.415732 c -0.0289,0.55959 -0.0143,1.12058 -0.009,1.68065 8e-4,0.0949 0.002,0.18983 0.003,0.28475 0.007,0.74832 1.06534,0.73835 1.05829,-0.01 v 0 c -7.9e-4,-0.0948 -0.002,-0.1896 -0.003,-0.28439 -0.005,-0.51798 -0.0158,-1.03637 0.003,-1.55416 0.0826,-0.74378 -0.96922,-0.86065 -1.05186,-0.11687 z" /><path
           style="fill:none;fill-opacity:0.478152;stroke:#000000;stroke-width:0.529167;stroke-linecap:round;stroke-linejoin:round;stroke-miterlimit:7.2;stroke-dasharray:none;stroke-opacity:1;paint-order:stroke fill markers"
           id="path564"
           d="m 505.4021,43.415732 c -0.0289,0.55959 -0.0143,1.12058 -0.009,1.68065 8e-4,0.0949 0.002,0.18983 0.003,0.28475 0.007,0.74832 1.06534,0.73835 1.05829,-0.01 v 0 c -7.9e-4,-0.0948 -0.002,-0.1896 -0.003,-0.28439 -0.005,-0.51798 -0.0158,-1.03637 0.003,-1.55416 0.0826,-0.74378 -0.96922,-0.86065 -1.05186,-0.11687 z" /><path
           style="fill:none;fill-opacity:0.478152;stroke:#000000;stroke-width:0.529167;stroke-linecap:round;stroke-linejoin:round;stroke-miterlimit:7.2;stroke-dasharray:none;stroke-opacity:1;paint-order:stroke fill markers"
           id="path565"
           d="m 506.55363,43.415732 c -0.0289,0.55959 -0.0143,1.12058 -0.009,1.68065 8e-4,0.0949 0.002,0.18983 0.003,0.28475 0.007,0.74832 1.06534,0.73835 1.05829,-0.01 v 0 c -7.9e-4,-0.0948 -0.002,-0.1896 -0.003,-0.28439 -0.005,-0.51798 -0.0158,-1.03637 0.003,-1.55416 0.0826,-0.74378 -0.96922,-0.86065 -1.05186,-0.11687 z" /><path
           style="fill:none;fill-opacity:0.478152;stroke:#000000;stroke-width:0.529167;stroke-linecap:round;stroke-linejoin:round;stroke-miterlimit:7.2;stroke-dasharray:none;stroke-opacity:1;paint-order:stroke fill markers"
           id="path566"
           d="m 507.81311,43.415732 c -0.0289,0.55959 -0.0143,1.12058 -0.009,1.68065 8e-4,0.0949 0.002,0.18983 0.003,0.28475 0.007,0.74832 1.06534,0.73835 1.05829,-0.01 v 0 c -7.9e-4,-0.0948 -0.002,-0.1896 -0.003,-0.28439 -0.005,-0.51798 -0.0158,-1.03637 0.003,-1.55416 0.0826,-0.74378 -0.96922,-0.86065 -1.05186,-0.11687 z" /><path
           style="fill:none;fill-opacity:0.478152;stroke:#000000;stroke-width:0.529167;stroke-linecap:round;stroke-linejoin:round;stroke-miterlimit:7.2;stroke-dasharray:none;stroke-opacity:1;paint-order:stroke fill markers"
           id="path567"
           d="m 509.00062,43.415732 c -0.0289,0.55959 -0.0143,1.12058 -0.009,1.68065 8e-4,0.0949 0.002,0.18983 0.003,0.28475 0.007,0.74832 1.06534,0.73835 1.05829,-0.01 v 0 c -7.9e-4,-0.0948 -0.002,-0.1896 -0.003,-0.28439 -0.005,-0.51798 -0.0158,-1.03637 0.003,-1.55416 0.0826,-0.74378 -0.96922,-0.86065 -1.05186,-0.11687 z" /><path
           style="fill:none;fill-opacity:0.478152;stroke:#000000;stroke-width:0.529167;stroke-linecap:round;stroke-linejoin:round;stroke-miterlimit:7.2;stroke-dasharray:none;stroke-opacity:1;paint-order:stroke fill markers"
           id="path568"
           d="m 510.08017,43.415732 c -0.0289,0.55959 -0.0143,1.12058 -0.009,1.68065 8e-4,0.0949 0.002,0.18983 0.003,0.28475 0.007,0.74832 1.06534,0.73835 1.05829,-0.01 v 0 c -7.9e-4,-0.0948 -0.002,-0.1896 -0.003,-0.28439 -0.005,-0.51798 -0.0158,-1.03637 0.003,-1.55416 0.0826,-0.74378 -0.96922,-0.86065 -1.05186,-0.11687 z" /><path
           style="fill:none;fill-opacity:0.478152;stroke:#000000;stroke-width:0.529167;stroke-linecap:round;stroke-linejoin:round;stroke-miterlimit:7.2;stroke-dasharray:none;stroke-opacity:1;paint-order:stroke fill markers"
           id="path569"
           d="m 511.41162,43.415732 c -0.0289,0.55959 -0.0143,1.12058 -0.009,1.68065 8e-4,0.0949 0.002,0.18983 0.003,0.28475 0.007,0.74832 1.06534,0.73835 1.05829,-0.01 v 0 c -7.9e-4,-0.0948 -0.002,-0.1896 -0.003,-0.28439 -0.005,-0.51798 -0.0158,-1.03637 0.003,-1.55416 0.0826,-0.74378 -0.96922,-0.86065 -1.05186,-0.11687 z" /><path
           style="fill:none;fill-opacity:0.478152;stroke:#000000;stroke-width:0.529167;stroke-linecap:round;stroke-linejoin:round;stroke-miterlimit:7.2;stroke-dasharray:none;stroke-opacity:1;paint-order:stroke fill markers"
           id="path570"
           d="m 512.6711,43.415732 c -0.0289,0.55959 -0.0143,1.12058 -0.009,1.68065 8e-4,0.0949 0.002,0.18983 0.003,0.28475 0.007,0.74832 1.06534,0.73835 1.05829,-0.01 v 0 c -7.9e-4,-0.0948 -0.002,-0.1896 -0.003,-0.28439 -0.005,-0.51798 -0.0158,-1.03637 0.003,-1.55416 0.0826,-0.74378 -0.96922,-0.86065 -1.05186,-0.11687 z" /><path
           style="fill:none;fill-opacity:0.478152;stroke:#000000;stroke-width:0.529167;stroke-linecap:round;stroke-linejoin:round;stroke-miterlimit:7.2;stroke-dasharray:none;stroke-opacity:1;paint-order:stroke fill markers"
           id="path571"
           d="m 513.93058,43.415732 c -0.0289,0.55959 -0.0143,1.12058 -0.009,1.68065 8e-4,0.0949 0.002,0.18983 0.003,0.28475 0.007,0.74832 1.06534,0.73835 1.05829,-0.01 v 0 c -7.9e-4,-0.0948 -0.002,-0.1896 -0.003,-0.28439 -0.005,-0.51798 -0.0158,-1.03637 0.003,-1.55416 0.0826,-0.74378 -0.96922,-0.86065 -1.05186,-0.11687 z" /><path
           style="fill:none;fill-opacity:0.478152;stroke:#000000;stroke-width:0.529167;stroke-linecap:round;stroke-linejoin:round;stroke-miterlimit:7.2;stroke-dasharray:none;stroke-opacity:1;paint-order:stroke fill markers"
           id="path572"
           d="m 515.08211,43.415732 c -0.0289,0.55959 -0.0143,1.12058 -0.009,1.68065 8e-4,0.0949 0.002,0.18983 0.003,0.28475 0.007,0.74832 1.06534,0.73835 1.05829,-0.01 v 0 c -7.9e-4,-0.0948 -0.002,-0.1896 -0.003,-0.28439 -0.005,-0.51798 -0.0158,-1.03637 0.003,-1.55416 0.0826,-0.74378 -0.96922,-0.86065 -1.05186,-0.11687 z" /><path
           style="fill:none;fill-opacity:0.478152;stroke:#000000;stroke-width:0.529167;stroke-linecap:round;stroke-linejoin:round;stroke-miterlimit:7.2;stroke-dasharray:none;stroke-opacity:1;paint-order:stroke fill markers"
           id="path573"
           d="m 516.23364,43.415732 c -0.0289,0.55959 -0.0143,1.12058 -0.009,1.68065 8e-4,0.0949 0.002,0.18983 0.003,0.28475 0.007,0.74832 1.06534,0.73835 1.05829,-0.01 v 0 c -7.9e-4,-0.0948 -0.002,-0.1896 -0.003,-0.28439 -0.005,-0.51798 -0.0158,-1.03637 0.003,-1.55416 0.0826,-0.74378 -0.96922,-0.86065 -1.05186,-0.11687 z" /><path
           style="fill:none;fill-opacity:0.478152;stroke:#000000;stroke-width:0.529167;stroke-linecap:round;stroke-linejoin:round;stroke-miterlimit:7.2;stroke-dasharray:none;stroke-opacity:1;paint-order:stroke fill markers"
           id="path574"
           d="m 517.45714,43.415732 c -0.0289,0.55959 -0.0143,1.12058 -0.009,1.68065 8e-4,0.0949 0.002,0.18983 0.003,0.28475 0.007,0.74832 1.06534,0.73835 1.05829,-0.01 v 0 c -7.9e-4,-0.0948 -0.002,-0.1896 -0.003,-0.28439 -0.005,-0.51798 -0.0158,-1.03637 0.003,-1.55416 0.0826,-0.74378 -0.96922,-0.86065 -1.05186,-0.11687 z" /><path
           style="fill:none;fill-opacity:0.478152;stroke:#000000;stroke-width:0.529167;stroke-linecap:round;stroke-linejoin:round;stroke-miterlimit:7.2;stroke-dasharray:none;stroke-opacity:1;paint-order:stroke fill markers"
           id="path575"
           d="m 518.60867,43.415732 c -0.0289,0.55959 -0.0143,1.12058 -0.009,1.68065 8e-4,0.0949 0.002,0.18983 0.003,0.28475 0.007,0.74832 1.06534,0.73835 1.05829,-0.01 v 0 c -7.9e-4,-0.0948 -0.002,-0.1896 -0.003,-0.28439 -0.005,-0.51798 -0.0158,-1.03637 0.003,-1.55416 0.0826,-0.74378 -0.96922,-0.86065 -1.05186,-0.11687 z" /><path
           style="fill:none;fill-opacity:0.478152;stroke:#000000;stroke-width:0.529167;stroke-linecap:round;stroke-linejoin:round;stroke-miterlimit:7.2;stroke-dasharray:none;stroke-opacity:1;paint-order:stroke fill markers"
           id="path576"
           d="m 519.68823,43.415732 c -0.0289,0.55959 -0.0143,1.12058 -0.009,1.68065 8e-4,0.0949 0.002,0.18983 0.003,0.28475 0.007,0.74832 1.06534,0.73835 1.05829,-0.01 v 0 c -7.9e-4,-0.0948 -0.002,-0.1896 -0.003,-0.28439 -0.005,-0.51798 -0.0158,-1.03637 0.003,-1.55416 0.0826,-0.74378 -0.96922,-0.86065 -1.05186,-0.11687 z" /><path
           style="fill:none;fill-opacity:0.478152;stroke:#000000;stroke-width:0.529167;stroke-linecap:round;stroke-linejoin:round;stroke-miterlimit:7.2;stroke-dasharray:none;stroke-opacity:1;paint-order:stroke fill markers"
           id="path577"
           d="m 520.94771,43.415732 c -0.0289,0.55959 -0.0143,1.12058 -0.009,1.68065 8e-4,0.0949 0.002,0.18983 0.003,0.28475 0.007,0.74832 1.06534,0.73835 1.05829,-0.01 v 0 c -7.9e-4,-0.0948 -0.002,-0.1896 -0.003,-0.28439 -0.005,-0.51798 -0.0158,-1.03637 0.003,-1.55416 0.0826,-0.74378 -0.96922,-0.86065 -1.05186,-0.11687 z" /><path
           style="fill:none;fill-opacity:0.478152;stroke:#000000;stroke-width:0.529167;stroke-linecap:round;stroke-linejoin:round;stroke-miterlimit:7.2;stroke-dasharray:none;stroke-opacity:1;paint-order:stroke fill markers"
           id="path578"
           d="m 522.17121,43.415732 c -0.0289,0.55959 -0.0143,1.12058 -0.009,1.68065 8e-4,0.0949 0.002,0.18983 0.003,0.28475 0.007,0.74832 1.06534,0.73835 1.05829,-0.01 v 0 c -7.9e-4,-0.0948 -0.002,-0.1896 -0.003,-0.28439 -0.005,-0.51798 -0.0158,-1.03637 0.003,-1.55416 0.0826,-0.74378 -0.96922,-0.86065 -1.05186,-0.11687 z" /><path
           style="fill:none;fill-opacity:0.478152;stroke:#000000;stroke-width:0.529167;stroke-linecap:round;stroke-linejoin:round;stroke-miterlimit:7.2;stroke-dasharray:none;stroke-opacity:1;paint-order:stroke fill markers"
           id="path579"
           d="m 523.28675,43.415732 c -0.0289,0.55959 -0.0143,1.12058 -0.009,1.68065 8e-4,0.0949 0.002,0.18983 0.003,0.28475 0.007,0.74832 1.06534,0.73835 1.05829,-0.01 v 0 c -7.9e-4,-0.0948 -0.002,-0.1896 -0.003,-0.28439 -0.005,-0.51798 -0.0158,-1.03637 0.003,-1.55416 0.0826,-0.74378 -0.96922,-0.86065 -1.05186,-0.11687 z" /><path
           style="fill:none;fill-opacity:0.478152;stroke:#000000;stroke-width:0.529167;stroke-linecap:round;stroke-linejoin:round;stroke-miterlimit:7.2;stroke-dasharray:none;stroke-opacity:1;paint-order:stroke fill markers"
           id="path580"
           d="m 524.58222,43.415732 c -0.0289,0.55959 -0.0143,1.12058 -0.009,1.68065 8e-4,0.0949 0.002,0.18983 0.003,0.28475 0.007,0.74832 1.06534,0.73835 1.05829,-0.01 v 0 c -7.9e-4,-0.0948 -0.002,-0.1896 -0.003,-0.28439 -0.005,-0.51798 -0.0158,-1.03637 0.003,-1.55416 0.0826,-0.74378 -0.96922,-0.86065 -1.05186,-0.11687 z" /><path
           style="fill:none;fill-opacity:0.478152;stroke:#000000;stroke-width:0.529167;stroke-linecap:round;stroke-linejoin:round;stroke-miterlimit:7.2;stroke-dasharray:none;stroke-opacity:1;paint-order:stroke fill markers"
           id="path581"
           d="m 525.73375,43.415732 c -0.0289,0.55959 -0.0143,1.12058 -0.009,1.68065 8e-4,0.0949 0.002,0.18983 0.003,0.28475 0.007,0.74832 1.06534,0.73835 1.05829,-0.01 v 0 c -7.9e-4,-0.0948 -0.002,-0.1896 -0.003,-0.28439 -0.005,-0.51798 -0.0158,-1.03637 0.003,-1.55416 0.0826,-0.74378 -0.96922,-0.86065 -1.05186,-0.11687 z" /><path
           style="fill:none;fill-opacity:0.478152;stroke:#000000;stroke-width:0.529167;stroke-linecap:round;stroke-linejoin:round;stroke-miterlimit:7.2;stroke-dasharray:none;stroke-opacity:1;paint-order:stroke fill markers"
           id="path582"
           d="m 526.99323,43.415732 c -0.0289,0.55959 -0.0143,1.12058 -0.009,1.68065 8e-4,0.0949 0.002,0.18983 0.003,0.28475 0.007,0.74832 1.06534,0.73835 1.05829,-0.01 v 0 c -7.9e-4,-0.0948 -0.002,-0.1896 -0.003,-0.28439 -0.005,-0.51798 -0.0158,-1.03637 0.003,-1.55416 0.0826,-0.74378 -0.96922,-0.86065 -1.05186,-0.11687 z" /><path
           style="fill:none;fill-opacity:0.478152;stroke:#000000;stroke-width:0.529167;stroke-linecap:round;stroke-linejoin:round;stroke-miterlimit:7.2;stroke-dasharray:none;stroke-opacity:1;paint-order:stroke fill markers"
           id="path583"
           d="m 528.18074,43.415732 c -0.0289,0.55959 -0.0143,1.12058 -0.009,1.68065 8e-4,0.0949 0.002,0.18983 0.003,0.28475 0.007,0.74832 1.06534,0.73835 1.05829,-0.01 v 0 c -7.9e-4,-0.0948 -0.002,-0.1896 -0.003,-0.28439 -0.005,-0.51798 -0.0158,-1.03637 0.003,-1.55416 0.0826,-0.74378 -0.96922,-0.86065 -1.05186,-0.11687 z" /><path
           style="fill:none;fill-opacity:0.478152;stroke:#000000;stroke-width:0.529167;stroke-linecap:round;stroke-linejoin:round;stroke-miterlimit:7.2;stroke-dasharray:none;stroke-opacity:1;paint-order:stroke fill markers"
           id="path584"
           d="m 529.33225,43.415732 c -0.0289,0.55959 -0.0143,1.12058 -0.009,1.68065 8e-4,0.0949 0.002,0.18983 0.003,0.28475 0.007,0.74832 1.06534,0.73835 1.05829,-0.01 v 0 c -7.9e-4,-0.0948 -0.002,-0.1896 -0.003,-0.28439 -0.005,-0.51798 -0.0158,-1.03637 0.003,-1.55416 0.0826,-0.74378 -0.96922,-0.86065 -1.05186,-0.11687 z" /><path
           style="fill:none;fill-opacity:0.478152;stroke:#000000;stroke-width:0.529167;stroke-linecap:round;stroke-linejoin:round;stroke-miterlimit:7.2;stroke-dasharray:none;stroke-opacity:1;paint-order:stroke fill markers"
           id="path585"
           d="m 530.6637,43.415732 c -0.0289,0.55959 -0.0143,1.12058 -0.009,1.68065 8e-4,0.0949 0.002,0.18983 0.003,0.28475 0.007,0.74832 1.06534,0.73835 1.05829,-0.01 v 0 c -7.9e-4,-0.0948 -0.002,-0.1896 -0.003,-0.28439 -0.005,-0.51798 -0.0158,-1.03637 0.003,-1.55416 0.0826,-0.74378 -0.96922,-0.86065 -1.05186,-0.11687 z" /><path
           style="fill:none;fill-opacity:0.478152;stroke:#000000;stroke-width:0.529167;stroke-linecap:round;stroke-linejoin:round;stroke-miterlimit:7.2;stroke-dasharray:none;stroke-opacity:1;paint-order:stroke fill markers"
           id="path586"
           d="m 531.92318,43.415732 c -0.0289,0.55959 -0.0143,1.12058 -0.009,1.68065 8e-4,0.0949 0.002,0.18983 0.003,0.28475 0.007,0.74832 1.06534,0.73835 1.05829,-0.01 v 0 c -7.9e-4,-0.0948 -0.002,-0.1896 -0.003,-0.28439 -0.005,-0.51798 -0.0158,-1.03637 0.003,-1.55416 0.0826,-0.74378 -0.96922,-0.86065 -1.05186,-0.11687 z" /><path
           style="fill:none;fill-opacity:0.478152;stroke:#000000;stroke-width:0.529167;stroke-linecap:round;stroke-linejoin:round;stroke-miterlimit:7.2;stroke-dasharray:none;stroke-opacity:1;paint-order:stroke fill markers"
           id="path587"
           d="m 533.18266,43.415732 c -0.0289,0.55959 -0.0143,1.12058 -0.009,1.68065 8e-4,0.0949 0.002,0.18983 0.003,0.28475 0.007,0.74832 1.06534,0.73835 1.05829,-0.01 v 0 c -7.9e-4,-0.0948 -0.002,-0.1896 -0.003,-0.28439 -0.005,-0.51798 -0.0158,-1.03637 0.003,-1.55416 0.0826,-0.74378 -0.96922,-0.86065 -1.05186,-0.11687 z" /><path
           style="fill:none;fill-opacity:0.478152;stroke:#000000;stroke-width:0.529167;stroke-linecap:round;stroke-linejoin:round;stroke-miterlimit:7.2;stroke-dasharray:none;stroke-opacity:1;paint-order:stroke fill markers"
           id="path588"
           d="m 534.33419,43.415732 c -0.0289,0.55959 -0.0143,1.12058 -0.009,1.68065 8e-4,0.0949 0.002,0.18983 0.003,0.28475 0.007,0.74832 1.06534,0.73835 1.05829,-0.01 v 0 c -7.9e-4,-0.0948 -0.002,-0.1896 -0.003,-0.28439 -0.005,-0.51798 -0.0158,-1.03637 0.003,-1.55416 0.0826,-0.74378 -0.96922,-0.86065 -1.05186,-0.11687 z" /><path
           style="fill:none;fill-opacity:0.478152;stroke:#000000;stroke-width:0.529167;stroke-linecap:round;stroke-linejoin:round;stroke-miterlimit:7.2;stroke-dasharray:none;stroke-opacity:1;paint-order:stroke fill markers"
           id="path589"
           d="m 535.48572,43.415732 c -0.0289,0.55959 -0.0143,1.12058 -0.009,1.68065 8e-4,0.0949 0.002,0.18983 0.003,0.28475 0.007,0.74832 1.06534,0.73835 1.05829,-0.01 v 0 c -7.9e-4,-0.0948 -0.002,-0.1896 -0.003,-0.28439 -0.005,-0.51798 -0.0158,-1.03637 0.003,-1.55416 0.0826,-0.74378 -0.96922,-0.86065 -1.05186,-0.11687 z" /><path
           style="fill:none;fill-opacity:0.478152;stroke:#000000;stroke-width:0.529167;stroke-linecap:round;stroke-linejoin:round;stroke-miterlimit:7.2;stroke-dasharray:none;stroke-opacity:1;paint-order:stroke fill markers"
           id="path590"
           d="m 536.70922,43.415732 c -0.0289,0.55959 -0.0143,1.12058 -0.009,1.68065 8e-4,0.0949 0.002,0.18983 0.003,0.28475 0.007,0.74832 1.06534,0.73835 1.05829,-0.01 v 0 c -7.9e-4,-0.0948 -0.002,-0.1896 -0.003,-0.28439 -0.005,-0.51798 -0.0158,-1.03637 0.003,-1.55416 0.0826,-0.74378 -0.96922,-0.86065 -1.05186,-0.11687 z" /><path
           style="fill:none;fill-opacity:0.478152;stroke:#000000;stroke-width:0.529167;stroke-linecap:round;stroke-linejoin:round;stroke-miterlimit:7.2;stroke-dasharray:none;stroke-opacity:1;paint-order:stroke fill markers"
           id="path591"
           d="m 537.86075,43.415732 c -0.0289,0.55959 -0.0143,1.12058 -0.009,1.68065 8e-4,0.0949 0.002,0.18983 0.003,0.28475 0.007,0.74832 1.06534,0.73835 1.05829,-0.01 v 0 c -7.9e-4,-0.0948 -0.002,-0.1896 -0.003,-0.28439 -0.005,-0.51798 -0.0158,-1.03637 0.003,-1.55416 0.0826,-0.74378 -0.96922,-0.86065 -1.05186,-0.11687 z" /><path
           style="fill:none;fill-opacity:0.478152;stroke:#000000;stroke-width:0.529167;stroke-linecap:round;stroke-linejoin:round;stroke-miterlimit:7.2;stroke-dasharray:none;stroke-opacity:1;paint-order:stroke fill markers"
           id="path592"
           d="m 538.94031,43.415732 c -0.0289,0.55959 -0.0143,1.12058 -0.009,1.68065 8e-4,0.0949 0.002,0.18983 0.003,0.28475 0.007,0.74832 1.06534,0.73835 1.05829,-0.01 v 0 c -7.9e-4,-0.0948 -0.002,-0.1896 -0.003,-0.28439 -0.005,-0.51798 -0.0158,-1.03637 0.003,-1.55416 0.0826,-0.74378 -0.96922,-0.86065 -1.05186,-0.11687 z" /><path
           style="fill:none;fill-opacity:0.478152;stroke:#000000;stroke-width:0.529167;stroke-linecap:round;stroke-linejoin:round;stroke-miterlimit:7.2;stroke-dasharray:none;stroke-opacity:1;paint-order:stroke fill markers"
           id="path593"
           d="m 540.19979,43.415732 c -0.0289,0.55959 -0.0143,1.12058 -0.009,1.68065 8e-4,0.0949 0.002,0.18983 0.003,0.28475 0.007,0.74832 1.06534,0.73835 1.05829,-0.01 v 0 c -7.9e-4,-0.0948 -0.002,-0.1896 -0.003,-0.28439 -0.005,-0.51798 -0.0158,-1.03637 0.003,-1.55416 0.0826,-0.74378 -0.96922,-0.86065 -1.05186,-0.11687 z" /><path
           style="fill:none;fill-opacity:0.478152;stroke:#000000;stroke-width:0.529167;stroke-linecap:round;stroke-linejoin:round;stroke-miterlimit:7.2;stroke-dasharray:none;stroke-opacity:1;paint-order:stroke fill markers"
           id="path594"
           d="m 541.42329,43.415732 c -0.0289,0.55959 -0.0143,1.12058 -0.009,1.68065 8e-4,0.0949 0.002,0.18983 0.003,0.28475 0.007,0.74832 1.06534,0.73835 1.05829,-0.01 v 0 c -7.9e-4,-0.0948 -0.002,-0.1896 -0.003,-0.28439 -0.005,-0.51798 -0.0158,-1.03637 0.003,-1.55416 0.0826,-0.74378 -0.96922,-0.86065 -1.05186,-0.11687 z" /><path
           style="fill:none;fill-opacity:0.478152;stroke:#000000;stroke-width:0.529167;stroke-linecap:round;stroke-linejoin:round;stroke-miterlimit:7.2;stroke-dasharray:none;stroke-opacity:1;paint-order:stroke fill markers"
           id="path595"
           d="m 542.53883,43.415732 c -0.0289,0.55959 -0.0143,1.12058 -0.009,1.68065 8e-4,0.0949 0.002,0.18983 0.003,0.28475 0.007,0.74832 1.06534,0.73835 1.05829,-0.01 v 0 c -7.9e-4,-0.0948 -0.002,-0.1896 -0.003,-0.28439 -0.005,-0.51798 -0.0158,-1.03637 0.003,-1.55416 0.0826,-0.74378 -0.96922,-0.86065 -1.05186,-0.11687 z" /><path
           style="fill:none;fill-opacity:0.478152;stroke:#000000;stroke-width:0.529167;stroke-linecap:round;stroke-linejoin:round;stroke-miterlimit:7.2;stroke-dasharray:none;stroke-opacity:1;paint-order:stroke fill markers"
           id="path596"
           d="m 543.8343,43.415732 c -0.0289,0.55959 -0.0143,1.12058 -0.009,1.68065 8e-4,0.0949 0.002,0.18983 0.003,0.28475 0.007,0.74832 1.06534,0.73835 1.05829,-0.01 v 0 c -7.9e-4,-0.0948 -0.002,-0.1896 -0.003,-0.28439 -0.005,-0.51798 -0.0158,-1.03637 0.003,-1.55416 0.0826,-0.74378 -0.96922,-0.86065 -1.05186,-0.11687 z" /><path
           style="fill:none;fill-opacity:0.478152;stroke:#000000;stroke-width:0.529167;stroke-linecap:round;stroke-linejoin:round;stroke-miterlimit:7.2;stroke-dasharray:none;stroke-opacity:1;paint-order:stroke fill markers"
           id="path597"
           d="m 544.98583,43.415732 c -0.0289,0.55959 -0.0143,1.12058 -0.009,1.68065 8e-4,0.0949 0.002,0.18983 0.003,0.28475 0.007,0.74832 1.06534,0.73835 1.05829,-0.01 v 0 c -7.9e-4,-0.0948 -0.002,-0.1896 -0.003,-0.28439 -0.005,-0.51798 -0.0158,-1.03637 0.003,-1.55416 0.0826,-0.74378 -0.96922,-0.86065 -1.05186,-0.11687 z" /><path
           style="fill:none;fill-opacity:0.478152;stroke:#000000;stroke-width:0.529167;stroke-linecap:round;stroke-linejoin:round;stroke-miterlimit:7.2;stroke-dasharray:none;stroke-opacity:1;paint-order:stroke fill markers"
           id="path598"
           d="m 546.24531,43.415732 c -0.0289,0.55959 -0.0143,1.12058 -0.009,1.68065 8e-4,0.0949 0.002,0.18983 0.003,0.28475 0.007,0.74832 1.06534,0.73835 1.05829,-0.01 v 0 c -7.9e-4,-0.0948 -0.002,-0.1896 -0.003,-0.28439 -0.005,-0.51798 -0.0158,-1.03637 0.003,-1.55416 0.0826,-0.74378 -0.96922,-0.86065 -1.05186,-0.11687 z" /><path
           style="fill:none;fill-opacity:0.478152;stroke:#000000;stroke-width:0.529167;stroke-linecap:round;stroke-linejoin:round;stroke-miterlimit:7.2;stroke-dasharray:none;stroke-opacity:1;paint-order:stroke fill markers"
           id="path599"
           d="m 547.43282,43.415732 c -0.0289,0.55959 -0.0143,1.12058 -0.009,1.68065 8e-4,0.0949 0.002,0.18983 0.003,0.28475 0.007,0.74832 1.06534,0.73835 1.05829,-0.01 v 0 c -7.9e-4,-0.0948 -0.002,-0.1896 -0.003,-0.28439 -0.005,-0.51798 -0.0158,-1.03637 0.003,-1.55416 0.0826,-0.74378 -0.96922,-0.86065 -1.05186,-0.11687 z" /><path
           style="fill:none;fill-opacity:0.478152;stroke:#000000;stroke-width:0.529167;stroke-linecap:round;stroke-linejoin:round;stroke-miterlimit:7.2;stroke-dasharray:none;stroke-opacity:1;paint-order:stroke fill markers"
           id="path600"
           d="m 552.93855,43.415732 c -0.0289,0.55959 -0.0143,1.12058 -0.009,1.68065 8e-4,0.0949 0.002,0.18983 0.003,0.28475 0.007,0.74832 1.06534,0.73835 1.05829,-0.01 v 0 c -7.9e-4,-0.0948 -0.002,-0.1896 -0.003,-0.28439 -0.005,-0.51798 -0.0158,-1.03637 0.003,-1.55416 0.0826,-0.74378 -0.96922,-0.86065 -1.05186,-0.11687 z" /><path
           style="fill:none;fill-opacity:0.478152;stroke:#000000;stroke-width:0.529167;stroke-linecap:round;stroke-linejoin:round;stroke-miterlimit:7.2;stroke-dasharray:none;stroke-opacity:1;paint-order:stroke fill markers"
           id="path601"
           d="m 554.27,43.415732 c -0.0289,0.55959 -0.0143,1.12058 -0.009,1.68065 8e-4,0.0949 0.002,0.18983 0.003,0.28475 0.007,0.74832 1.06534,0.73835 1.05829,-0.01 v 0 c -7.9e-4,-0.0948 -0.002,-0.1896 -0.003,-0.28439 -0.005,-0.51798 -0.0158,-1.03637 0.003,-1.55416 0.0826,-0.74378 -0.96922,-0.86065 -1.05186,-0.11687 z" /><path
           style="fill:none;fill-opacity:0.478152;stroke:#000000;stroke-width:0.529167;stroke-linecap:round;stroke-linejoin:round;stroke-miterlimit:7.2;stroke-dasharray:none;stroke-opacity:1;paint-order:stroke fill markers"
           id="path602"
           d="m 555.52948,43.415732 c -0.0289,0.55959 -0.0143,1.12058 -0.009,1.68065 8e-4,0.0949 0.002,0.18983 0.003,0.28475 0.007,0.74832 1.06534,0.73835 1.05829,-0.01 v 0 c -7.9e-4,-0.0948 -0.002,-0.1896 -0.003,-0.28439 -0.005,-0.51798 -0.0158,-1.03637 0.003,-1.55416 0.0826,-0.74378 -0.96922,-0.86065 -1.05186,-0.11687 z" /><path
           style="fill:none;fill-opacity:0.478152;stroke:#000000;stroke-width:0.529167;stroke-linecap:round;stroke-linejoin:round;stroke-miterlimit:7.2;stroke-dasharray:none;stroke-opacity:1;paint-order:stroke fill markers"
           id="path603"
           d="m 556.78896,43.415732 c -0.0289,0.55959 -0.0143,1.12058 -0.009,1.68065 8e-4,0.0949 0.002,0.18983 0.003,0.28475 0.007,0.74832 1.06534,0.73835 1.05829,-0.01 v 0 c -7.9e-4,-0.0948 -0.002,-0.1896 -0.003,-0.28439 -0.005,-0.51798 -0.0158,-1.03637 0.003,-1.55416 0.0826,-0.74378 -0.96922,-0.86065 -1.05186,-0.11687 z" /><path
           style="fill:none;fill-opacity:0.478152;stroke:#000000;stroke-width:0.529167;stroke-linecap:round;stroke-linejoin:round;stroke-miterlimit:7.2;stroke-dasharray:none;stroke-opacity:1;paint-order:stroke fill markers"
           id="path604"
           d="m 557.94049,43.415732 c -0.0289,0.55959 -0.0143,1.12058 -0.009,1.68065 8e-4,0.0949 0.002,0.18983 0.003,0.28475 0.007,0.74832 1.06534,0.73835 1.05829,-0.01 v 0 c -7.9e-4,-0.0948 -0.002,-0.1896 -0.003,-0.28439 -0.005,-0.51798 -0.0158,-1.03637 0.003,-1.55416 0.0826,-0.74378 -0.96922,-0.86065 -1.05186,-0.11687 z" /><path
           style="fill:none;fill-opacity:0.478152;stroke:#000000;stroke-width:0.529167;stroke-linecap:round;stroke-linejoin:round;stroke-miterlimit:7.2;stroke-dasharray:none;stroke-opacity:1;paint-order:stroke fill markers"
           id="path605"
           d="m 559.09202,43.415732 c -0.0289,0.55959 -0.0143,1.12058 -0.009,1.68065 8e-4,0.0949 0.002,0.18983 0.003,0.28475 0.007,0.74832 1.06534,0.73835 1.05829,-0.01 v 0 c -7.9e-4,-0.0948 -0.002,-0.1896 -0.003,-0.28439 -0.005,-0.51798 -0.0158,-1.03637 0.003,-1.55416 0.0826,-0.74378 -0.96922,-0.86065 -1.05186,-0.11687 z" /><path
           style="fill:none;fill-opacity:0.478152;stroke:#000000;stroke-width:0.529167;stroke-linecap:round;stroke-linejoin:round;stroke-miterlimit:7.2;stroke-dasharray:none;stroke-opacity:1;paint-order:stroke fill markers"
           id="path606"
           d="m 560.31552,43.415732 c -0.0289,0.55959 -0.0143,1.12058 -0.009,1.68065 8e-4,0.0949 0.002,0.18983 0.003,0.28475 0.007,0.74832 1.06534,0.73835 1.05829,-0.01 v 0 c -7.9e-4,-0.0948 -0.002,-0.1896 -0.003,-0.28439 -0.005,-0.51798 -0.0158,-1.03637 0.003,-1.55416 0.0826,-0.74378 -0.96922,-0.86065 -1.05186,-0.11687 z" /><path
           style="fill:none;fill-opacity:0.478152;stroke:#000000;stroke-width:0.529167;stroke-linecap:round;stroke-linejoin:round;stroke-miterlimit:7.2;stroke-dasharray:none;stroke-opacity:1;paint-order:stroke fill markers"
           id="path607"
           d="m 561.46705,43.415732 c -0.0289,0.55959 -0.0143,1.12058 -0.009,1.68065 8e-4,0.0949 0.002,0.18983 0.003,0.28475 0.007,0.74832 1.06534,0.73835 1.05829,-0.01 v 0 c -7.9e-4,-0.0948 -0.002,-0.1896 -0.003,-0.28439 -0.005,-0.51798 -0.0158,-1.03637 0.003,-1.55416 0.0826,-0.74378 -0.96922,-0.86065 -1.05186,-0.11687 z" /><path
           style="fill:none;fill-opacity:0.478152;stroke:#000000;stroke-width:0.529167;stroke-linecap:round;stroke-linejoin:round;stroke-miterlimit:7.2;stroke-dasharray:none;stroke-opacity:1;paint-order:stroke fill markers"
           id="path608"
           d="m 562.54661,43.415732 c -0.0289,0.55959 -0.0143,1.12058 -0.009,1.68065 8e-4,0.0949 0.002,0.18983 0.003,0.28475 0.007,0.74832 1.06534,0.73835 1.05829,-0.01 v 0 c -7.9e-4,-0.0948 -0.002,-0.1896 -0.003,-0.28439 -0.005,-0.51798 -0.0158,-1.03637 0.003,-1.55416 0.0826,-0.74378 -0.96922,-0.86065 -1.05186,-0.11687 z" /><path
           style="fill:none;fill-opacity:0.478152;stroke:#000000;stroke-width:0.529167;stroke-linecap:round;stroke-linejoin:round;stroke-miterlimit:7.2;stroke-dasharray:none;stroke-opacity:1;paint-order:stroke fill markers"
           id="path609"
           d="m 563.80609,43.415732 c -0.0289,0.55959 -0.0143,1.12058 -0.009,1.68065 8e-4,0.0949 0.002,0.18983 0.003,0.28475 0.007,0.74832 1.06534,0.73835 1.05829,-0.01 v 0 c -7.9e-4,-0.0948 -0.002,-0.1896 -0.003,-0.28439 -0.005,-0.51798 -0.0158,-1.03637 0.003,-1.55416 0.0826,-0.74378 -0.96922,-0.86065 -1.05186,-0.11687 z" /><path
           style="fill:none;fill-opacity:0.478152;stroke:#000000;stroke-width:0.529167;stroke-linecap:round;stroke-linejoin:round;stroke-miterlimit:7.2;stroke-dasharray:none;stroke-opacity:1;paint-order:stroke fill markers"
           id="path610"
           d="m 565.02959,43.415732 c -0.0289,0.55959 -0.0143,1.12058 -0.009,1.68065 8e-4,0.0949 0.002,0.18983 0.003,0.28475 0.007,0.74832 1.06534,0.73835 1.05829,-0.01 v 0 c -7.9e-4,-0.0948 -0.002,-0.1896 -0.003,-0.28439 -0.005,-0.51798 -0.0158,-1.03637 0.003,-1.55416 0.0826,-0.74378 -0.96922,-0.86065 -1.05186,-0.11687 z" /><path
           style="fill:none;fill-opacity:0.478152;stroke:#000000;stroke-width:0.529167;stroke-linecap:round;stroke-linejoin:round;stroke-miterlimit:7.2;stroke-dasharray:none;stroke-opacity:1;paint-order:stroke fill markers"
           id="path611"
           d="m 566.14513,43.415732 c -0.0289,0.55959 -0.0143,1.12058 -0.009,1.68065 8e-4,0.0949 0.002,0.18983 0.003,0.28475 0.007,0.74832 1.06534,0.73835 1.05829,-0.01 v 0 c -7.9e-4,-0.0948 -0.002,-0.1896 -0.003,-0.28439 -0.005,-0.51798 -0.0158,-1.03637 0.003,-1.55416 0.0826,-0.74378 -0.96922,-0.86065 -1.05186,-0.11687 z" /><path
           style="fill:none;fill-opacity:0.478152;stroke:#000000;stroke-width:0.529167;stroke-linecap:round;stroke-linejoin:round;stroke-miterlimit:7.2;stroke-dasharray:none;stroke-opacity:1;paint-order:stroke fill markers"
           id="path612"
           d="m 567.4406,43.415732 c -0.0289,0.55959 -0.0143,1.12058 -0.009,1.68065 8e-4,0.0949 0.002,0.18983 0.003,0.28475 0.007,0.74832 1.06534,0.73835 1.05829,-0.01 v 0 c -7.9e-4,-0.0948 -0.002,-0.1896 -0.003,-0.28439 -0.005,-0.51798 -0.0158,-1.03637 0.003,-1.55416 0.0826,-0.74378 -0.96922,-0.86065 -1.05186,-0.11687 z" /><path
           style="fill:none;fill-opacity:0.478152;stroke:#000000;stroke-width:0.529167;stroke-linecap:round;stroke-linejoin:round;stroke-miterlimit:7.2;stroke-dasharray:none;stroke-opacity:1;paint-order:stroke fill markers"
           id="path613"
           d="m 568.59213,43.415732 c -0.0289,0.55959 -0.0143,1.12058 -0.009,1.68065 8e-4,0.0949 0.002,0.18983 0.003,0.28475 0.007,0.74832 1.06534,0.73835 1.05829,-0.01 v 0 c -7.9e-4,-0.0948 -0.002,-0.1896 -0.003,-0.28439 -0.005,-0.51798 -0.0158,-1.03637 0.003,-1.55416 0.0826,-0.74378 -0.96922,-0.86065 -1.05186,-0.11687 z" /><path
           style="fill:none;fill-opacity:0.478152;stroke:#000000;stroke-width:0.529167;stroke-linecap:round;stroke-linejoin:round;stroke-miterlimit:7.2;stroke-dasharray:none;stroke-opacity:1;paint-order:stroke fill markers"
           id="path614"
           d="m 569.85161,43.415732 c -0.0289,0.55959 -0.0143,1.12058 -0.009,1.68065 8e-4,0.0949 0.002,0.18983 0.003,0.28475 0.007,0.74832 1.06534,0.73835 1.05829,-0.01 v 0 c -7.9e-4,-0.0948 -0.002,-0.1896 -0.003,-0.28439 -0.005,-0.51798 -0.0158,-1.03637 0.003,-1.55416 0.0826,-0.74378 -0.96922,-0.86065 -1.05186,-0.11687 z" /><path
           style="fill:none;fill-opacity:0.478152;stroke:#000000;stroke-width:0.529167;stroke-linecap:round;stroke-linejoin:round;stroke-miterlimit:7.2;stroke-dasharray:none;stroke-opacity:1;paint-order:stroke fill markers"
           id="path615"
           d="m 571.03912,43.415732 c -0.0289,0.55959 -0.0143,1.12058 -0.009,1.68065 8e-4,0.0949 0.002,0.18983 0.003,0.28475 0.007,0.74832 1.06534,0.73835 1.05829,-0.01 v 0 c -7.9e-4,-0.0948 -0.002,-0.1896 -0.003,-0.28439 -0.005,-0.51798 -0.0158,-1.03637 0.003,-1.55416 0.0826,-0.74378 -0.96922,-0.86065 -1.05186,-0.11687 z" /><path
           style="fill:none;fill-opacity:0.478152;stroke:#000000;stroke-width:0.529167;stroke-linecap:round;stroke-linejoin:round;stroke-miterlimit:7.2;stroke-dasharray:none;stroke-opacity:1;paint-order:stroke fill markers"
           id="path616"
           d="m 572.11867,43.415732 c -0.0289,0.55959 -0.0143,1.12058 -0.009,1.68065 8e-4,0.0949 0.002,0.18983 0.003,0.28475 0.007,0.74832 1.06534,0.73835 1.05829,-0.01 v 0 c -7.9e-4,-0.0948 -0.002,-0.1896 -0.003,-0.28439 -0.005,-0.51798 -0.0158,-1.03637 0.003,-1.55416 0.0826,-0.74378 -0.96922,-0.86065 -1.05186,-0.11687 z" /><path
           style="fill:none;fill-opacity:0.478152;stroke:#000000;stroke-width:0.529167;stroke-linecap:round;stroke-linejoin:round;stroke-miterlimit:7.2;stroke-dasharray:none;stroke-opacity:1;paint-order:stroke fill markers"
           id="path617"
           d="m 573.45012,43.415732 c -0.0289,0.55959 -0.0143,1.12058 -0.009,1.68065 8e-4,0.0949 0.002,0.18983 0.003,0.28475 0.007,0.74832 1.06534,0.73835 1.05829,-0.01 v 0 c -7.9e-4,-0.0948 -0.002,-0.1896 -0.003,-0.28439 -0.005,-0.51798 -0.0158,-1.03637 0.003,-1.55416 0.0826,-0.74378 -0.96922,-0.86065 -1.05186,-0.11687 z" /><path
           style="fill:none;fill-opacity:0.478152;stroke:#000000;stroke-width:0.529167;stroke-linecap:round;stroke-linejoin:round;stroke-miterlimit:7.2;stroke-dasharray:none;stroke-opacity:1;paint-order:stroke fill markers"
           id="path618"
           d="m 574.7096,43.415732 c -0.0289,0.55959 -0.0143,1.12058 -0.009,1.68065 8e-4,0.0949 0.002,0.18983 0.003,0.28475 0.007,0.74832 1.06534,0.73835 1.05829,-0.01 v 0 c -7.9e-4,-0.0948 -0.002,-0.1896 -0.003,-0.28439 -0.005,-0.51798 -0.0158,-1.03637 0.003,-1.55416 0.0826,-0.74378 -0.96922,-0.86065 -1.05186,-0.11687 z" /><path
           style="fill:none;fill-opacity:0.478152;stroke:#000000;stroke-width:0.529167;stroke-linecap:round;stroke-linejoin:round;stroke-miterlimit:7.2;stroke-dasharray:none;stroke-opacity:1;paint-order:stroke fill markers"
           id="path619"
           d="m 575.96908,43.415732 c -0.0289,0.55959 -0.0143,1.12058 -0.009,1.68065 8e-4,0.0949 0.002,0.18983 0.003,0.28475 0.007,0.74832 1.06534,0.73835 1.05829,-0.01 v 0 c -7.9e-4,-0.0948 -0.002,-0.1896 -0.003,-0.28439 -0.005,-0.51798 -0.0158,-1.03637 0.003,-1.55416 0.0826,-0.74378 -0.96922,-0.86065 -1.05186,-0.11687 z" /><path
           style="fill:none;fill-opacity:0.478152;stroke:#000000;stroke-width:0.529167;stroke-linecap:round;stroke-linejoin:round;stroke-miterlimit:7.2;stroke-dasharray:none;stroke-opacity:1;paint-order:stroke fill markers"
           id="path620"
           d="m 577.12061,43.415732 c -0.0289,0.55959 -0.0143,1.12058 -0.009,1.68065 8e-4,0.0949 0.002,0.18983 0.003,0.28475 0.007,0.74832 1.06534,0.73835 1.05829,-0.01 v 0 c -7.9e-4,-0.0948 -0.002,-0.1896 -0.003,-0.28439 -0.005,-0.51798 -0.0158,-1.03637 0.003,-1.55416 0.0826,-0.74378 -0.96922,-0.86065 -1.05186,-0.11687 z" /><path
           style="fill:none;fill-opacity:0.478152;stroke:#000000;stroke-width:0.529167;stroke-linecap:round;stroke-linejoin:round;stroke-miterlimit:7.2;stroke-dasharray:none;stroke-opacity:1;paint-order:stroke fill markers"
           id="path621"
           d="m 578.27214,43.415732 c -0.0289,0.55959 -0.0143,1.12058 -0.009,1.68065 8e-4,0.0949 0.002,0.18983 0.003,0.28475 0.007,0.74832 1.06534,0.73835 1.05829,-0.01 v 0 c -7.9e-4,-0.0948 -0.002,-0.1896 -0.003,-0.28439 -0.005,-0.51798 -0.0158,-1.03637 0.003,-1.55416 0.0826,-0.74378 -0.96922,-0.86065 -1.05186,-0.11687 z" /><path
           style="fill:none;fill-opacity:0.478152;stroke:#000000;stroke-width:0.529167;stroke-linecap:round;stroke-linejoin:round;stroke-miterlimit:7.2;stroke-dasharray:none;stroke-opacity:1;paint-order:stroke fill markers"
           id="path622"
           d="m 579.49564,43.415732 c -0.0289,0.55959 -0.0143,1.12058 -0.009,1.68065 8e-4,0.0949 0.002,0.18983 0.003,0.28475 0.007,0.74832 1.06534,0.73835 1.05829,-0.01 v 0 c -7.9e-4,-0.0948 -0.002,-0.1896 -0.003,-0.28439 -0.005,-0.51798 -0.0158,-1.03637 0.003,-1.55416 0.0826,-0.74378 -0.96922,-0.86065 -1.05186,-0.11687 z" /><path
           style="fill:none;fill-opacity:0.478152;stroke:#000000;stroke-width:0.529167;stroke-linecap:round;stroke-linejoin:round;stroke-miterlimit:7.2;stroke-dasharray:none;stroke-opacity:1;paint-order:stroke fill markers"
           id="path623"
           d="m 580.64717,43.415732 c -0.0289,0.55959 -0.0143,1.12058 -0.009,1.68065 8e-4,0.0949 0.002,0.18983 0.003,0.28475 0.007,0.74832 1.06534,0.73835 1.05829,-0.01 v 0 c -7.9e-4,-0.0948 -0.002,-0.1896 -0.003,-0.28439 -0.005,-0.51798 -0.0158,-1.03637 0.003,-1.55416 0.0826,-0.74378 -0.96922,-0.86065 -1.05186,-0.11687 z" /><path
           style="fill:none;fill-opacity:0.478152;stroke:#000000;stroke-width:0.529167;stroke-linecap:round;stroke-linejoin:round;stroke-miterlimit:7.2;stroke-dasharray:none;stroke-opacity:1;paint-order:stroke fill markers"
           id="path624"
           d="m 581.72673,43.415732 c -0.0289,0.55959 -0.0143,1.12058 -0.009,1.68065 8e-4,0.0949 0.002,0.18983 0.003,0.28475 0.007,0.74832 1.06534,0.73835 1.05829,-0.01 v 0 c -7.9e-4,-0.0948 -0.002,-0.1896 -0.003,-0.28439 -0.005,-0.51798 -0.0158,-1.03637 0.003,-1.55416 0.0826,-0.74378 -0.96922,-0.86065 -1.05186,-0.11687 z" /><path
           style="fill:none;fill-opacity:0.478152;stroke:#000000;stroke-width:0.529167;stroke-linecap:round;stroke-linejoin:round;stroke-miterlimit:7.2;stroke-dasharray:none;stroke-opacity:1;paint-order:stroke fill markers"
           id="path625"
           d="m 582.98621,43.415732 c -0.0289,0.55959 -0.0143,1.12058 -0.009,1.68065 8e-4,0.0949 0.002,0.18983 0.003,0.28475 0.007,0.74832 1.06534,0.73835 1.05829,-0.01 v 0 c -7.9e-4,-0.0948 -0.002,-0.1896 -0.003,-0.28439 -0.005,-0.51798 -0.0158,-1.03637 0.003,-1.55416 0.0826,-0.74378 -0.96922,-0.86065 -1.05186,-0.11687 z" /><path
           style="fill:none;fill-opacity:0.478152;stroke:#000000;stroke-width:0.529167;stroke-linecap:round;stroke-linejoin:round;stroke-miterlimit:7.2;stroke-dasharray:none;stroke-opacity:1;paint-order:stroke fill markers"
           id="path626"
           d="m 584.20971,43.415732 c -0.0289,0.55959 -0.0143,1.12058 -0.009,1.68065 8e-4,0.0949 0.002,0.18983 0.003,0.28475 0.007,0.74832 1.06534,0.73835 1.05829,-0.01 v 0 c -7.9e-4,-0.0948 -0.002,-0.1896 -0.003,-0.28439 -0.005,-0.51798 -0.0158,-1.03637 0.003,-1.55416 0.0826,-0.74378 -0.96922,-0.86065 -1.05186,-0.11687 z" /><path
           style="fill:none;fill-opacity:0.478152;stroke:#000000;stroke-width:0.529167;stroke-linecap:round;stroke-linejoin:round;stroke-miterlimit:7.2;stroke-dasharray:none;stroke-opacity:1;paint-order:stroke fill markers"
           id="path627"
           d="m 585.32525,43.415732 c -0.0289,0.55959 -0.0143,1.12058 -0.009,1.68065 8e-4,0.0949 0.002,0.18983 0.003,0.28475 0.007,0.74832 1.06534,0.73835 1.05829,-0.01 v 0 c -7.9e-4,-0.0948 -0.002,-0.1896 -0.003,-0.28439 -0.005,-0.51798 -0.0158,-1.03637 0.003,-1.55416 0.0826,-0.74378 -0.96922,-0.86065 -1.05186,-0.11687 z" /><path
           style="fill:none;fill-opacity:0.478152;stroke:#000000;stroke-width:0.529167;stroke-linecap:round;stroke-linejoin:round;stroke-miterlimit:7.2;stroke-dasharray:none;stroke-opacity:1;paint-order:stroke fill markers"
           id="path628"
           d="m 586.62072,43.415732 c -0.0289,0.55959 -0.0143,1.12058 -0.009,1.68065 8e-4,0.0949 0.002,0.18983 0.003,0.28475 0.007,0.74832 1.06534,0.73835 1.05829,-0.01 v 0 c -7.9e-4,-0.0948 -0.002,-0.1896 -0.003,-0.28439 -0.005,-0.51798 -0.0158,-1.03637 0.003,-1.55416 0.0826,-0.74378 -0.96922,-0.86065 -1.05186,-0.11687 z" /><path
           style="fill:none;fill-opacity:0.478152;stroke:#000000;stroke-width:0.529167;stroke-linecap:round;stroke-linejoin:round;stroke-miterlimit:7.2;stroke-dasharray:none;stroke-opacity:1;paint-order:stroke fill markers"
           id="path629"
           d="m 587.77225,43.415732 c -0.0289,0.55959 -0.0143,1.12058 -0.009,1.68065 8e-4,0.0949 0.002,0.18983 0.003,0.28475 0.007,0.74832 1.06534,0.73835 1.05829,-0.01 v 0 c -7.9e-4,-0.0948 -0.002,-0.1896 -0.003,-0.28439 -0.005,-0.51798 -0.0158,-1.03637 0.003,-1.55416 0.0826,-0.74378 -0.96922,-0.86065 -1.05186,-0.11687 z" /><path
           style="fill:none;fill-opacity:0.478152;stroke:#000000;stroke-width:0.529167;stroke-linecap:round;stroke-linejoin:round;stroke-miterlimit:7.2;stroke-dasharray:none;stroke-opacity:1;paint-order:stroke fill markers"
           id="path630"
           d="m 589.03173,43.415732 c -0.0289,0.55959 -0.0143,1.12058 -0.009,1.68065 8e-4,0.0949 0.002,0.18983 0.003,0.28475 0.007,0.74832 1.06534,0.73835 1.05829,-0.01 v 0 c -7.9e-4,-0.0948 -0.002,-0.1896 -0.003,-0.28439 -0.005,-0.51798 -0.0158,-1.03637 0.003,-1.55416 0.0826,-0.74378 -0.96922,-0.86065 -1.05186,-0.11687 z" /><path
           style="fill:none;fill-opacity:0.478152;stroke:#000000;stroke-width:0.529167;stroke-linecap:round;stroke-linejoin:round;stroke-miterlimit:7.2;stroke-dasharray:none;stroke-opacity:1;paint-order:stroke fill markers"
           id="path631"
           d="m 590.21924,43.415732 c -0.0289,0.55959 -0.0143,1.12058 -0.009,1.68065 8e-4,0.0949 0.002,0.18983 0.003,0.28475 0.007,0.74832 1.06534,0.73835 1.05829,-0.01 v 0 c -7.9e-4,-0.0948 -0.002,-0.1896 -0.003,-0.28439 -0.005,-0.51798 -0.0158,-1.03637 0.003,-1.55416 0.0826,-0.74378 -0.96922,-0.86065 -1.05186,-0.11687 z" /><path
           style="fill:none;fill-opacity:0.478152;stroke:#000000;stroke-width:0.529167;stroke-linecap:round;stroke-linejoin:round;stroke-miterlimit:7.2;stroke-dasharray:none;stroke-opacity:1;paint-order:stroke fill markers"
           id="path632"
           d="m 591.37075,43.415732 c -0.0289,0.55959 -0.0143,1.12058 -0.009,1.68065 8e-4,0.0949 0.002,0.18983 0.003,0.28475 0.007,0.74832 1.06534,0.73835 1.05829,-0.01 v 0 c -7.9e-4,-0.0948 -0.002,-0.1896 -0.003,-0.28439 -0.005,-0.51798 -0.0158,-1.03637 0.003,-1.55416 0.0826,-0.74378 -0.96922,-0.86065 -1.05186,-0.11687 z" /><path
           style="fill:none;fill-opacity:0.478152;stroke:#000000;stroke-width:0.529167;stroke-linecap:round;stroke-linejoin:round;stroke-miterlimit:7.2;stroke-dasharray:none;stroke-opacity:1;paint-order:stroke fill markers"
           id="path633"
           d="m 592.7022,43.415732 c -0.0289,0.55959 -0.0143,1.12058 -0.009,1.68065 8e-4,0.0949 0.002,0.18983 0.003,0.28475 0.007,0.74832 1.06534,0.73835 1.05829,-0.01 v 0 c -7.9e-4,-0.0948 -0.002,-0.1896 -0.003,-0.28439 -0.005,-0.51798 -0.0158,-1.03637 0.003,-1.55416 0.0826,-0.74378 -0.96922,-0.86065 -1.05186,-0.11687 z" /><path
           style="fill:none;fill-opacity:0.478152;stroke:#000000;stroke-width:0.529167;stroke-linecap:round;stroke-linejoin:round;stroke-miterlimit:7.2;stroke-dasharray:none;stroke-opacity:1;paint-order:stroke fill markers"
           id="path634"
           d="m 593.96168,43.415732 c -0.0289,0.55959 -0.0143,1.12058 -0.009,1.68065 8e-4,0.0949 0.002,0.18983 0.003,0.28475 0.007,0.74832 1.06534,0.73835 1.05829,-0.01 v 0 c -7.9e-4,-0.0948 -0.002,-0.1896 -0.003,-0.28439 -0.005,-0.51798 -0.0158,-1.03637 0.003,-1.55416 0.0826,-0.74378 -0.96922,-0.86065 -1.05186,-0.11687 z" /><path
           style="fill:none;fill-opacity:0.478152;stroke:#000000;stroke-width:0.529167;stroke-linecap:round;stroke-linejoin:round;stroke-miterlimit:7.2;stroke-dasharray:none;stroke-opacity:1;paint-order:stroke fill markers"
           id="path635"
           d="m 595.22116,43.415732 c -0.0289,0.55959 -0.0143,1.12058 -0.009,1.68065 8e-4,0.0949 0.002,0.18983 0.003,0.28475 0.007,0.74832 1.06534,0.73835 1.05829,-0.01 v 0 c -7.9e-4,-0.0948 -0.002,-0.1896 -0.003,-0.28439 -0.005,-0.51798 -0.0158,-1.03637 0.003,-1.55416 0.0826,-0.74378 -0.96922,-0.86065 -1.05186,-0.11687 z" /><path
           style="fill:none;fill-opacity:0.478152;stroke:#000000;stroke-width:0.529167;stroke-linecap:round;stroke-linejoin:round;stroke-miterlimit:7.2;stroke-dasharray:none;stroke-opacity:1;paint-order:stroke fill markers"
           id="path636"
           d="m 596.37269,43.415732 c -0.0289,0.55959 -0.0143,1.12058 -0.009,1.68065 8e-4,0.0949 0.002,0.18983 0.003,0.28475 0.007,0.74832 1.06534,0.73835 1.05829,-0.01 v 0 c -7.9e-4,-0.0948 -0.002,-0.1896 -0.003,-0.28439 -0.005,-0.51798 -0.0158,-1.03637 0.003,-1.55416 0.0826,-0.74378 -0.96922,-0.86065 -1.05186,-0.11687 z" /><path
           style="fill:none;fill-opacity:0.478152;stroke:#000000;stroke-width:0.529167;stroke-linecap:round;stroke-linejoin:round;stroke-miterlimit:7.2;stroke-dasharray:none;stroke-opacity:1;paint-order:stroke fill markers"
           id="path637"
           d="m 597.52422,43.415732 c -0.0289,0.55959 -0.0143,1.12058 -0.009,1.68065 8e-4,0.0949 0.002,0.18983 0.003,0.28475 0.007,0.74832 1.06534,0.73835 1.05829,-0.01 v 0 c -7.9e-4,-0.0948 -0.002,-0.1896 -0.003,-0.28439 -0.005,-0.51798 -0.0158,-1.03637 0.003,-1.55416 0.0826,-0.74378 -0.96922,-0.86065 -1.05186,-0.11687 z" /><path
           style="fill:none;fill-opacity:0.478152;stroke:#000000;stroke-width:0.529167;stroke-linecap:round;stroke-linejoin:round;stroke-miterlimit:7.2;stroke-dasharray:none;stroke-opacity:1;paint-order:stroke fill markers"
           id="path638"
           d="m 598.74772,43.415732 c -0.0289,0.55959 -0.0143,1.12058 -0.009,1.68065 8e-4,0.0949 0.002,0.18983 0.003,0.28475 0.007,0.74832 1.06534,0.73835 1.05829,-0.01 v 0 c -7.9e-4,-0.0948 -0.002,-0.1896 -0.003,-0.28439 -0.005,-0.51798 -0.0158,-1.03637 0.003,-1.55416 0.0826,-0.74378 -0.96922,-0.86065 -1.05186,-0.11687 z" /><path
           style="fill:none;fill-opacity:0.478152;stroke:#000000;stroke-width:0.529167;stroke-linecap:round;stroke-linejoin:round;stroke-miterlimit:7.2;stroke-dasharray:none;stroke-opacity:1;paint-order:stroke fill markers"
           id="path639"
           d="m 599.89925,43.415732 c -0.0289,0.55959 -0.0143,1.12058 -0.009,1.68065 8e-4,0.0949 0.002,0.18983 0.003,0.28475 0.007,0.74832 1.06534,0.73835 1.05829,-0.01 v 0 c -7.9e-4,-0.0948 -0.002,-0.1896 -0.003,-0.28439 -0.005,-0.51798 -0.0158,-1.03637 0.003,-1.55416 0.0826,-0.74378 -0.96922,-0.86065 -1.05186,-0.11687 z" /><path
           style="fill:none;fill-opacity:0.478152;stroke:#000000;stroke-width:0.529167;stroke-linecap:round;stroke-linejoin:round;stroke-miterlimit:7.2;stroke-dasharray:none;stroke-opacity:1;paint-order:stroke fill markers"
           id="path640"
           d="m 600.97881,43.415732 c -0.0289,0.55959 -0.0143,1.12058 -0.009,1.68065 8e-4,0.0949 0.002,0.18983 0.003,0.28475 0.007,0.74832 1.06534,0.73835 1.05829,-0.01 v 0 c -7.9e-4,-0.0948 -0.002,-0.1896 -0.003,-0.28439 -0.005,-0.51798 -0.0158,-1.03637 0.003,-1.55416 0.0826,-0.74378 -0.96922,-0.86065 -1.05186,-0.11687 z" /><path
           style="fill:none;fill-opacity:0.478152;stroke:#000000;stroke-width:0.529167;stroke-linecap:round;stroke-linejoin:round;stroke-miterlimit:7.2;stroke-dasharray:none;stroke-opacity:1;paint-order:stroke fill markers"
           id="path641"
           d="m 602.23829,43.415732 c -0.0289,0.55959 -0.0143,1.12058 -0.009,1.68065 8e-4,0.0949 0.002,0.18983 0.003,0.28475 0.007,0.74832 1.06534,0.73835 1.05829,-0.01 v 0 c -7.9e-4,-0.0948 -0.002,-0.1896 -0.003,-0.28439 -0.005,-0.51798 -0.0158,-1.03637 0.003,-1.55416 0.0826,-0.74378 -0.96922,-0.86065 -1.05186,-0.11687 z" /><path
           style="fill:none;fill-opacity:0.478152;stroke:#000000;stroke-width:0.529167;stroke-linecap:round;stroke-linejoin:round;stroke-miterlimit:7.2;stroke-dasharray:none;stroke-opacity:1;paint-order:stroke fill markers"
           id="path642"
           d="m 603.46179,43.415732 c -0.0289,0.55959 -0.0143,1.12058 -0.009,1.68065 8e-4,0.0949 0.002,0.18983 0.003,0.28475 0.007,0.74832 1.06534,0.73835 1.05829,-0.01 v 0 c -7.9e-4,-0.0948 -0.002,-0.1896 -0.003,-0.28439 -0.005,-0.51798 -0.0158,-1.03637 0.003,-1.55416 0.0826,-0.74378 -0.96922,-0.86065 -1.05186,-0.11687 z" /><path
           style="fill:none;fill-opacity:0.478152;stroke:#000000;stroke-width:0.529167;stroke-linecap:round;stroke-linejoin:round;stroke-miterlimit:7.2;stroke-dasharray:none;stroke-opacity:1;paint-order:stroke fill markers"
           id="path643"
           d="m 604.57733,43.415732 c -0.0289,0.55959 -0.0143,1.12058 -0.009,1.68065 8e-4,0.0949 0.002,0.18983 0.003,0.28475 0.007,0.74832 1.06534,0.73835 1.05829,-0.01 v 0 c -7.9e-4,-0.0948 -0.002,-0.1896 -0.003,-0.28439 -0.005,-0.51798 -0.0158,-1.03637 0.003,-1.55416 0.0826,-0.74378 -0.96922,-0.86065 -1.05186,-0.11687 z" /><path
           style="fill:none;fill-opacity:0.478152;stroke:#000000;stroke-width:0.529167;stroke-linecap:round;stroke-linejoin:round;stroke-miterlimit:7.2;stroke-dasharray:none;stroke-opacity:1;paint-order:stroke fill markers"
           id="path644"
           d="m 605.8728,43.415732 c -0.0289,0.55959 -0.0143,1.12058 -0.009,1.68065 8e-4,0.0949 0.002,0.18983 0.003,0.28475 0.007,0.74832 1.06534,0.73835 1.05829,-0.01 v 0 c -7.9e-4,-0.0948 -0.002,-0.1896 -0.003,-0.28439 -0.005,-0.51798 -0.0158,-1.03637 0.003,-1.55416 0.0826,-0.74378 -0.96922,-0.86065 -1.05186,-0.11687 z" /><path
           style="fill:none;fill-opacity:0.478152;stroke:#000000;stroke-width:0.529167;stroke-linecap:round;stroke-linejoin:round;stroke-miterlimit:7.2;stroke-dasharray:none;stroke-opacity:1;paint-order:stroke fill markers"
           id="path645"
           d="m 607.02433,43.415732 c -0.0289,0.55959 -0.0143,1.12058 -0.009,1.68065 8e-4,0.0949 0.002,0.18983 0.003,0.28475 0.007,0.74832 1.06534,0.73835 1.05829,-0.01 v 0 c -7.9e-4,-0.0948 -0.002,-0.1896 -0.003,-0.28439 -0.005,-0.51798 -0.0158,-1.03637 0.003,-1.55416 0.0826,-0.74378 -0.96922,-0.86065 -1.05186,-0.11687 z" /><path
           style="fill:none;fill-opacity:0.478152;stroke:#000000;stroke-width:0.529167;stroke-linecap:round;stroke-linejoin:round;stroke-miterlimit:7.2;stroke-dasharray:none;stroke-opacity:1;paint-order:stroke fill markers"
           id="path646"
           d="m 608.28381,43.415732 c -0.0289,0.55959 -0.0143,1.12058 -0.009,1.68065 8e-4,0.0949 0.002,0.18983 0.003,0.28475 0.007,0.74832 1.06534,0.73835 1.05829,-0.01 v 0 c -7.9e-4,-0.0948 -0.002,-0.1896 -0.003,-0.28439 -0.005,-0.51798 -0.0158,-1.03637 0.003,-1.55416 0.0826,-0.74378 -0.96922,-0.86065 -1.05186,-0.11687 z" /><path
           style="fill:none;fill-opacity:0.478152;stroke:#000000;stroke-width:0.529167;stroke-linecap:round;stroke-linejoin:round;stroke-miterlimit:7.2;stroke-dasharray:none;stroke-opacity:1;paint-order:stroke fill markers"
           id="path647"
           d="m 609.47132,43.415732 c -0.0289,0.55959 -0.0143,1.12058 -0.009,1.68065 8e-4,0.0949 0.002,0.18983 0.003,0.28475 0.007,0.74832 1.06534,0.73835 1.05829,-0.01 v 0 c -7.9e-4,-0.0948 -0.002,-0.1896 -0.003,-0.28439 -0.005,-0.51798 -0.0158,-1.03637 0.003,-1.55416 0.0826,-0.74378 -0.96922,-0.86065 -1.05186,-0.11687 z" /><path
           style="fill:none;fill-opacity:0.478152;stroke:#000000;stroke-width:0.529167;stroke-linecap:round;stroke-linejoin:round;stroke-miterlimit:7.2;stroke-dasharray:none;stroke-opacity:1;paint-order:stroke fill markers"
           id="path648"
           d="m 610.51488,43.415732 c -0.0289,0.55959 -0.0143,1.12058 -0.009,1.68065 8e-4,0.0949 0.002,0.18983 0.003,0.28475 0.007,0.74832 1.06534,0.73835 1.05829,-0.01 v 0 c -7.9e-4,-0.0948 -0.002,-0.1896 -0.003,-0.28439 -0.005,-0.51798 -0.0158,-1.03637 0.003,-1.55416 0.0826,-0.74378 -0.96922,-0.86065 -1.05186,-0.11687 z" /><path
           style="fill:none;fill-opacity:0.478152;stroke:#000000;stroke-width:0.529167;stroke-linecap:round;stroke-linejoin:round;stroke-miterlimit:7.2;stroke-dasharray:none;stroke-opacity:1;paint-order:stroke fill markers"
           id="path649"
           d="m 611.84633,43.415732 c -0.0289,0.55959 -0.0143,1.12058 -0.009,1.68065 8e-4,0.0949 0.002,0.18983 0.003,0.28475 0.007,0.74832 1.06534,0.73835 1.05829,-0.01 v 0 c -7.9e-4,-0.0948 -0.002,-0.1896 -0.003,-0.28439 -0.005,-0.51798 -0.0158,-1.03637 0.003,-1.55416 0.0826,-0.74378 -0.96922,-0.86065 -1.05186,-0.11687 z" /><path
           style="fill:none;fill-opacity:0.478152;stroke:#000000;stroke-width:0.529167;stroke-linecap:round;stroke-linejoin:round;stroke-miterlimit:7.2;stroke-dasharray:none;stroke-opacity:1;paint-order:stroke fill markers"
           id="path650"
           d="m 613.10581,43.415732 c -0.0289,0.55959 -0.0143,1.12058 -0.009,1.68065 8e-4,0.0949 0.002,0.18983 0.003,0.28475 0.007,0.74832 1.06534,0.73835 1.05829,-0.01 v 0 c -7.9e-4,-0.0948 -0.002,-0.1896 -0.003,-0.28439 -0.005,-0.51798 -0.0158,-1.03637 0.003,-1.55416 0.0826,-0.74378 -0.96922,-0.86065 -1.05186,-0.11687 z" /><path
           style="fill:none;fill-opacity:0.478152;stroke:#000000;stroke-width:0.529167;stroke-linecap:round;stroke-linejoin:round;stroke-miterlimit:7.2;stroke-dasharray:none;stroke-opacity:1;paint-order:stroke fill markers"
           id="path651"
           d="m 614.36529,43.415732 c -0.0289,0.55959 -0.0143,1.12058 -0.009,1.68065 8e-4,0.0949 0.002,0.18983 0.003,0.28475 0.007,0.74832 1.06534,0.73835 1.05829,-0.01 v 0 c -7.9e-4,-0.0948 -0.002,-0.1896 -0.003,-0.28439 -0.005,-0.51798 -0.0158,-1.03637 0.003,-1.55416 0.0826,-0.74378 -0.96922,-0.86065 -1.05186,-0.11687 z" /><path
           style="fill:none;fill-opacity:0.478152;stroke:#000000;stroke-width:0.529167;stroke-linecap:round;stroke-linejoin:round;stroke-miterlimit:7.2;stroke-dasharray:none;stroke-opacity:1;paint-order:stroke fill markers"
           id="path652"
           d="m 615.51682,43.415732 c -0.0289,0.55959 -0.0143,1.12058 -0.009,1.68065 8e-4,0.0949 0.002,0.18983 0.003,0.28475 0.007,0.74832 1.06534,0.73835 1.05829,-0.01 v 0 c -7.9e-4,-0.0948 -0.002,-0.1896 -0.003,-0.28439 -0.005,-0.51798 -0.0158,-1.03637 0.003,-1.55416 0.0826,-0.74378 -0.96922,-0.86065 -1.05186,-0.11687 z" /><path
           style="fill:none;fill-opacity:0.478152;stroke:#000000;stroke-width:0.529167;stroke-linecap:round;stroke-linejoin:round;stroke-miterlimit:7.2;stroke-dasharray:none;stroke-opacity:1;paint-order:stroke fill markers"
           id="path653"
           d="m 616.66835,43.415732 c -0.0289,0.55959 -0.0143,1.12058 -0.009,1.68065 8e-4,0.0949 0.002,0.18983 0.003,0.28475 0.007,0.74832 1.06534,0.73835 1.05829,-0.01 v 0 c -7.9e-4,-0.0948 -0.002,-0.1896 -0.003,-0.28439 -0.005,-0.51798 -0.0158,-1.03637 0.003,-1.55416 0.0826,-0.74378 -0.96922,-0.86065 -1.05186,-0.11687 z" /><path
           style="fill:none;fill-opacity:0.478152;stroke:#000000;stroke-width:0.529167;stroke-linecap:round;stroke-linejoin:round;stroke-miterlimit:7.2;stroke-dasharray:none;stroke-opacity:1;paint-order:stroke fill markers"
           id="path654"
           d="m 617.89185,43.415732 c -0.0289,0.55959 -0.0143,1.12058 -0.009,1.68065 8e-4,0.0949 0.002,0.18983 0.003,0.28475 0.007,0.74832 1.06534,0.73835 1.05829,-0.01 v 0 c -7.9e-4,-0.0948 -0.002,-0.1896 -0.003,-0.28439 -0.005,-0.51798 -0.0158,-1.03637 0.003,-1.55416 0.0826,-0.74378 -0.96922,-0.86065 -1.05186,-0.11687 z" /><path
           style="fill:none;fill-opacity:0.478152;stroke:#000000;stroke-width:0.529167;stroke-linecap:round;stroke-linejoin:round;stroke-miterlimit:7.2;stroke-dasharray:none;stroke-opacity:1;paint-order:stroke fill markers"
           id="path655"
           d="m 619.04338,43.415732 c -0.0289,0.55959 -0.0143,1.12058 -0.009,1.68065 8e-4,0.0949 0.002,0.18983 0.003,0.28475 0.007,0.74832 1.06534,0.73835 1.05829,-0.01 v 0 c -7.9e-4,-0.0948 -0.002,-0.1896 -0.003,-0.28439 -0.005,-0.51798 -0.0158,-1.03637 0.003,-1.55416 0.0826,-0.74378 -0.96922,-0.86065 -1.05186,-0.11687 z" /><path
           style="fill:none;fill-opacity:0.478152;stroke:#000000;stroke-width:0.529167;stroke-linecap:round;stroke-linejoin:round;stroke-miterlimit:7.2;stroke-dasharray:none;stroke-opacity:1;paint-order:stroke fill markers"
           id="path656"
           d="m 620.12294,43.415732 c -0.0289,0.55959 -0.0143,1.12058 -0.009,1.68065 8e-4,0.0949 0.002,0.18983 0.003,0.28475 0.007,0.74832 1.06534,0.73835 1.05829,-0.01 v 0 c -7.9e-4,-0.0948 -0.002,-0.1896 -0.003,-0.28439 -0.005,-0.51798 -0.0158,-1.03637 0.003,-1.55416 0.0826,-0.74378 -0.96922,-0.86065 -1.05186,-0.11687 z" /><path
           style="fill:none;fill-opacity:0.478152;stroke:#000000;stroke-width:0.529167;stroke-linecap:round;stroke-linejoin:round;stroke-miterlimit:7.2;stroke-dasharray:none;stroke-opacity:1;paint-order:stroke fill markers"
           id="path657"
           d="m 621.38242,43.415732 c -0.0289,0.55959 -0.0143,1.12058 -0.009,1.68065 8e-4,0.0949 0.002,0.18983 0.003,0.28475 0.007,0.74832 1.06534,0.73835 1.05829,-0.01 v 0 c -7.9e-4,-0.0948 -0.002,-0.1896 -0.003,-0.28439 -0.005,-0.51798 -0.0158,-1.03637 0.003,-1.55416 0.0826,-0.74378 -0.96922,-0.86065 -1.05186,-0.11687 z" /><path
           style="fill:none;fill-opacity:0.478152;stroke:#000000;stroke-width:0.529167;stroke-linecap:round;stroke-linejoin:round;stroke-miterlimit:7.2;stroke-dasharray:none;stroke-opacity:1;paint-order:stroke fill markers"
           id="path658"
           d="m 622.60592,43.415732 c -0.0289,0.55959 -0.0143,1.12058 -0.009,1.68065 8e-4,0.0949 0.002,0.18983 0.003,0.28475 0.007,0.74832 1.06534,0.73835 1.05829,-0.01 v 0 c -7.9e-4,-0.0948 -0.002,-0.1896 -0.003,-0.28439 -0.005,-0.51798 -0.0158,-1.03637 0.003,-1.55416 0.0826,-0.74378 -0.96922,-0.86065 -1.05186,-0.11687 z" /><path
           style="fill:none;fill-opacity:0.478152;stroke:#000000;stroke-width:0.529167;stroke-linecap:round;stroke-linejoin:round;stroke-miterlimit:7.2;stroke-dasharray:none;stroke-opacity:1;paint-order:stroke fill markers"
           id="path659"
           d="m 623.72146,43.415732 c -0.0289,0.55959 -0.0143,1.12058 -0.009,1.68065 8e-4,0.0949 0.002,0.18983 0.003,0.28475 0.007,0.74832 1.06534,0.73835 1.05829,-0.01 v 0 c -7.9e-4,-0.0948 -0.002,-0.1896 -0.003,-0.28439 -0.005,-0.51798 -0.0158,-1.03637 0.003,-1.55416 0.0826,-0.74378 -0.96922,-0.86065 -1.05186,-0.11687 z" /><path
           style="fill:none;fill-opacity:0.478152;stroke:#000000;stroke-width:0.529167;stroke-linecap:round;stroke-linejoin:round;stroke-miterlimit:7.2;stroke-dasharray:none;stroke-opacity:1;paint-order:stroke fill markers"
           id="path660"
           d="m 625.01693,43.415732 c -0.0289,0.55959 -0.0143,1.12058 -0.009,1.68065 8e-4,0.0949 0.002,0.18983 0.003,0.28475 0.007,0.74832 1.06534,0.73835 1.05829,-0.01 v 0 c -7.9e-4,-0.0948 -0.002,-0.1896 -0.003,-0.28439 -0.005,-0.51798 -0.0158,-1.03637 0.003,-1.55416 0.0826,-0.74378 -0.96922,-0.86065 -1.05186,-0.11687 z" /><path
           style="fill:none;fill-opacity:0.478152;stroke:#000000;stroke-width:0.529167;stroke-linecap:round;stroke-linejoin:round;stroke-miterlimit:7.2;stroke-dasharray:none;stroke-opacity:1;paint-order:stroke fill markers"
           id="path661"
           d="m 626.16846,43.415732 c -0.0289,0.55959 -0.0143,1.12058 -0.009,1.68065 8e-4,0.0949 0.002,0.18983 0.003,0.28475 0.007,0.74832 1.06534,0.73835 1.05829,-0.01 v 0 c -7.9e-4,-0.0948 -0.002,-0.1896 -0.003,-0.28439 -0.005,-0.51798 -0.0158,-1.03637 0.003,-1.55416 0.0826,-0.74378 -0.96922,-0.86065 -1.05186,-0.11687 z" /><path
           style="fill:none;fill-opacity:0.478152;stroke:#000000;stroke-width:0.529167;stroke-linecap:round;stroke-linejoin:round;stroke-miterlimit:7.2;stroke-dasharray:none;stroke-opacity:1;paint-order:stroke fill markers"
           id="path662"
           d="m 627.42794,43.415732 c -0.0289,0.55959 -0.0143,1.12058 -0.009,1.68065 8e-4,0.0949 0.002,0.18983 0.003,0.28475 0.007,0.74832 1.06534,0.73835 1.05829,-0.01 v 0 c -7.9e-4,-0.0948 -0.002,-0.1896 -0.003,-0.28439 -0.005,-0.51798 -0.0158,-1.03637 0.003,-1.55416 0.0826,-0.74378 -0.96922,-0.86065 -1.05186,-0.11687 z" /><path
           style="fill:none;fill-opacity:0.478152;stroke:#000000;stroke-width:0.529167;stroke-linecap:round;stroke-linejoin:round;stroke-miterlimit:7.2;stroke-dasharray:none;stroke-opacity:1;paint-order:stroke fill markers"
           id="path663"
           d="m 628.61545,43.415732 c -0.0289,0.55959 -0.0143,1.12058 -0.009,1.68065 8e-4,0.0949 0.002,0.18983 0.003,0.28475 0.007,0.74832 1.06534,0.73835 1.05829,-0.01 v 0 c -7.9e-4,-0.0948 -0.002,-0.1896 -0.003,-0.28439 -0.005,-0.51798 -0.0158,-1.03637 0.003,-1.55416 0.0826,-0.74378 -0.96922,-0.86065 -1.05186,-0.11687 z" /><path
           style="fill:none;fill-opacity:0.478152;stroke:#000000;stroke-width:0.529167;stroke-linecap:round;stroke-linejoin:round;stroke-miterlimit:7.2;stroke-dasharray:none;stroke-opacity:1;paint-order:stroke fill markers"
           id="path664"
           d="m 629.695,43.415732 c -0.0289,0.55959 -0.0143,1.12058 -0.009,1.68065 8e-4,0.0949 0.002,0.18983 0.003,0.28475 0.007,0.74832 1.06534,0.73835 1.05829,-0.01 v 0 c -7.9e-4,-0.0948 -0.002,-0.1896 -0.003,-0.28439 -0.005,-0.51798 -0.0158,-1.03637 0.003,-1.55416 0.0826,-0.74378 -0.96922,-0.86065 -1.05186,-0.11687 z" /><path
           style="fill:none;fill-opacity:0.478152;stroke:#000000;stroke-width:0.529167;stroke-linecap:round;stroke-linejoin:round;stroke-miterlimit:7.2;stroke-dasharray:none;stroke-opacity:1;paint-order:stroke fill markers"
           id="path665"
           d="m 631.02645,43.415732 c -0.0289,0.55959 -0.0143,1.12058 -0.009,1.68065 8e-4,0.0949 0.002,0.18983 0.003,0.28475 0.007,0.74832 1.06534,0.73835 1.05829,-0.01 v 0 c -7.9e-4,-0.0948 -0.002,-0.1896 -0.003,-0.28439 -0.005,-0.51798 -0.0158,-1.03637 0.003,-1.55416 0.0826,-0.74378 -0.96922,-0.86065 -1.05186,-0.11687 z" /><path
           style="fill:none;fill-opacity:0.478152;stroke:#000000;stroke-width:0.529167;stroke-linecap:round;stroke-linejoin:round;stroke-miterlimit:7.2;stroke-dasharray:none;stroke-opacity:1;paint-order:stroke fill markers"
           id="path666"
           d="m 632.28593,43.415732 c -0.0289,0.55959 -0.0143,1.12058 -0.009,1.68065 8e-4,0.0949 0.002,0.18983 0.003,0.28475 0.007,0.74832 1.06534,0.73835 1.05829,-0.01 v 0 c -7.9e-4,-0.0948 -0.002,-0.1896 -0.003,-0.28439 -0.005,-0.51798 -0.0158,-1.03637 0.003,-1.55416 0.0826,-0.74378 -0.96922,-0.86065 -1.05186,-0.11687 z" /><path
           style="fill:none;fill-opacity:0.478152;stroke:#000000;stroke-width:0.529167;stroke-linecap:round;stroke-linejoin:round;stroke-miterlimit:7.2;stroke-dasharray:none;stroke-opacity:1;paint-order:stroke fill markers"
           id="path667"
           d="m 633.54541,43.415732 c -0.0289,0.55959 -0.0143,1.12058 -0.009,1.68065 8e-4,0.0949 0.002,0.18983 0.003,0.28475 0.007,0.74832 1.06534,0.73835 1.05829,-0.01 v 0 c -7.9e-4,-0.0948 -0.002,-0.1896 -0.003,-0.28439 -0.005,-0.51798 -0.0158,-1.03637 0.003,-1.55416 0.0826,-0.74378 -0.96922,-0.86065 -1.05186,-0.11687 z" /><path
           style="fill:none;fill-opacity:0.478152;stroke:#000000;stroke-width:0.529167;stroke-linecap:round;stroke-linejoin:round;stroke-miterlimit:7.2;stroke-dasharray:none;stroke-opacity:1;paint-order:stroke fill markers"
           id="path668"
           d="m 634.69694,43.415732 c -0.0289,0.55959 -0.0143,1.12058 -0.009,1.68065 8e-4,0.0949 0.002,0.18983 0.003,0.28475 0.007,0.74832 1.06534,0.73835 1.05829,-0.01 v 0 c -7.9e-4,-0.0948 -0.002,-0.1896 -0.003,-0.28439 -0.005,-0.51798 -0.0158,-1.03637 0.003,-1.55416 0.0826,-0.74378 -0.96922,-0.86065 -1.05186,-0.11687 z" /><path
           style="fill:none;fill-opacity:0.478152;stroke:#000000;stroke-width:0.529167;stroke-linecap:round;stroke-linejoin:round;stroke-miterlimit:7.2;stroke-dasharray:none;stroke-opacity:1;paint-order:stroke fill markers"
           id="path669"
           d="m 635.84847,43.415732 c -0.0289,0.55959 -0.0143,1.12058 -0.009,1.68065 8e-4,0.0949 0.002,0.18983 0.003,0.28475 0.007,0.74832 1.06534,0.73835 1.05829,-0.01 v 0 c -7.9e-4,-0.0948 -0.002,-0.1896 -0.003,-0.28439 -0.005,-0.51798 -0.0158,-1.03637 0.003,-1.55416 0.0826,-0.74378 -0.96922,-0.86065 -1.05186,-0.11687 z" /><path
           style="fill:none;fill-opacity:0.478152;stroke:#000000;stroke-width:0.529167;stroke-linecap:round;stroke-linejoin:round;stroke-miterlimit:7.2;stroke-dasharray:none;stroke-opacity:1;paint-order:stroke fill markers"
           id="path670"
           d="m 637.07197,43.415732 c -0.0289,0.55959 -0.0143,1.12058 -0.009,1.68065 8e-4,0.0949 0.002,0.18983 0.003,0.28475 0.007,0.74832 1.06534,0.73835 1.05829,-0.01 v 0 c -7.9e-4,-0.0948 -0.002,-0.1896 -0.003,-0.28439 -0.005,-0.51798 -0.0158,-1.03637 0.003,-1.55416 0.0826,-0.74378 -0.96922,-0.86065 -1.05186,-0.11687 z" /><path
           id="path671"
           style="stroke-linecap:round;stroke-linejoin:round;stroke-miterlimit:7.2;paint-order:stroke fill markers"
           d="m 492.03955,39.296977 v 1.871203 h 3.02772 v -1.871203 z m 3.95842,0 v 1.871203 h 3.02772 v -1.871203 z m 4.03024,0 v 1.871203 h 3.02772 v -1.871203 z m 4.7501,0 v 1.871203 h 3.02772 v -1.871203 z m 3.95841,0 v 1.871203 h 3.02773 v -1.871203 z m 4.03025,0 v 1.871203 h 3.02772 v -1.871203 z m 4.7501,0 v 1.871203 h 3.02772 v -1.871203 z m 3.95841,0 v 1.871203 h 3.02772 v -1.871203 z m 4.03025,0 v 1.871203 h 3.02772 v -1.871203 z m 4.75009,0 v 1.871203 h 3.02773 v -1.871203 z m 3.95842,0 v 1.871203 h 3.02772 v -1.871203 z m 4.03024,0 v 1.871203 h 3.02772 v -1.871203 z m 60.31105,0 v 1.871203 h 3.02772 v -1.871203 z m 3.95841,0 v 1.871203 h 3.02773 v -1.871203 z m 4.03025,0 v 1.871203 h 3.02772 v -1.871203 z m 6.76548,0 v 1.871203 h 3.02772 v -1.871203 z m 3.95841,0 v 1.871203 h 3.02773 v -1.871203 z m 4.03025,0 v 1.871203 h 3.02772 v -1.871203 z m 6.76548,0 v 1.871203 h 3.02772 v -1.871203 z m 3.95841,0 v 1.871203 h 3.02772 v -1.871203 z m 4.03025,0 v 1.871203 h 3.02772 v -1.871203 z" /></g></g></g></svg>
