<?xml version="1.0" encoding="UTF-8" standalone="no"?>
<svg xmlns="http://www.w3.org/2000/svg"
     width="3209.865753880"
     height="1994.146336105"
     viewBox="0 -100 3209.865753880 2194.146336105">
  <path
    d="
      M 893.866206984 555.625977024
      L 893.871212019 555.609136427
      L 893.875958499 555.592127255
      L 893.880442291 555.574953017
      L 893.884659300 555.557617312
      L 893.888605471 555.540123824
      L 893.892276793 555.522476325
      L 893.895669295 555.504678672
      L 893.898779054 555.486734810
      L 893.901602191 555.468648768
      L 893.904134879 555.450424661
      L 893.906373339 555.432066690
      L 893.908313842 555.413579139
      L 893.909952717 555.394966379
      L 893.911286344 555.376232861
      L 893.912311163 555.357383123
      L 893.913023669 555.338421782
      L 893.913420422 555.319353540
      L 893.913498040 555.300183179
      L 893.913253206 555.280915563
      L 893.912682668 555.261555634
      L 893.911783242 555.242108417
      L 893.910551812 555.222579013
      L 893.908985332 555.202972601
      L 893.907080827 555.183294439
      L 893.904835399 555.163549860
      L 893.902246221 555.143744274
      L 893.899310547 555.123883162
      L 893.896025706 555.103972084
      L 893.892389111 555.084016669
      L 893.888398253 555.064022618
      L 893.884050709 555.043995706
      L 893.879344140 555.023941773
      L 893.874276294 555.003866730
      L 893.868845008 554.983776557
      L 893.863048208 554.963677298
      L 893.856883910 554.943575064
      L 893.850350227 554.923476027
      L 893.843445363 554.903386425
      L 893.836167618 554.883312555
      L 893.828515393 554.863260777
      L 893.820487184 554.843237508
      L 893.812081589 554.823249220
      L 893.803297310 554.803302446
      L 893.794133149 554.783403770
      L 893.784588016 554.763559831
      L 893.774660925 554.743777317
      L 893.764350999 554.724062970
      L 893.753657471 554.704423577
      L 893.742579682 554.684865973
      L 893.731117086 554.665397040
      L 893.719269252 554.646023701
      L 893.707035860 554.626752922
      L 893.694416708 554.607591709
      L 893.681411710 554.588547109
      L 893.668020899 554.569626201
      L 893.654244428 554.550836103
      L 893.640082568 554.532183963
      L 893.625535715 554.513676964
      L 893.610604385 554.495322313
      L 893.595289220 554.477127250
      L 893.579590987 554.459099036
      L 893.563510577 554.441244958
      L 893.547049011 554.423572323
      L 893.530207437 554.406088459
      L 893.512987131 554.388800709
      L 893.495389501 554.371716434
      L 893.477416084 554.354843007
      L 893.459068552 554.338187810
      L 893.440348706 554.321758236
      L 893.421258483 554.305561686
      L 893.401799953 554.289605562
      L 893.381975321 554.273897270
      L 893.361786930 554.258444216
      L 893.341237256 554.243253804
      L 893.320328915 554.228333432
      L 893.299064659 554.213690492
      L 893.277447379 554.199332366
      L 893.255480104 554.185266425
      L 893.233166003 554.171500026
      L 893.210508385 554.158040508
      L 893.187510699 554.144895193
      L 893.164176533 554.132071379
      L 893.140509618 554.119576344
      L 893.116513826 554.107417335
      L 893.092193169 554.095601573
      L 893.067551802 554.084136248
      L 893.042594021 554.073028513
      L 893.017324264 554.062285488
      L 892.991747112 554.051914251
      L 892.965867288 554.041921840
      L 892.939689657 554.032315249
      L 892.913219225 554.023101423
      L 892.886461141 554.014287260
      L 892.859420696 554.005879604
      L 892.832103322 553.997885244
      L 892.804514595 553.990310913
      L 892.776660229 553.983163283
      L 892.748546080 553.976448962
      L 892.720178146 553.970174496
      L 892.691562563 553.964346358
      L 892.662705609 553.958970954
      L 892.633613701 553.954054615
      L 892.604293392 553.949603593
      L 892.574751375 553.945624066
      L 892.544994483 553.942122127
      L 892.515029681 553.939103784
      L 892.484864074 553.936574959
      L 892.454504900 553.934541484
      L 892.423959532 553.933009098
      L 892.393235478 553.931983444
      L 892.362340376 553.931470069
      L 892.331281997 553.931474416
      L 892.300068243 553.932001827
      L 892.268707145 553.933057535
      L 892.237206862 553.934646667
      L 892.205575682 553.936774236
      L 892.173822015 553.939445142
      L 892.141954400 553.942664166
      L 892.109981497 553.946435972
      L 892.077912088 553.950765098
      L 892.045755075 553.955655960
      L 892.013519480 553.961112843
      L 891.981214443 553.967139906
      L 891.948849216 553.973741170
      L 891.916433170 553.980920523
      L 891.883975785 553.988681715
      L 891.851486653 553.997028354
      L 891.818975474 554.005963904
      L 891.786452055 554.015491685
      L 891.753926309 554.025614867
      L 891.721408251 554.036336468
      L 891.688907996 554.047659355
      L 891.656435762 554.059586236
      L 891.624001858 554.072119665
      L 891.591616692 554.085262029
      L 891.559290762 554.099015558
      L 891.527034657 554.113382311
      L 891.494859055 554.128364182
      L 891.462774715 554.143962894
      L 891.430792485 554.160179998
      L 891.398923287 554.177016869
      L 891.367178127 554.194474706
      L 891.335568080 554.212554527
      L 891.304104300 554.231257170
      L 891.272798006 554.250583289
      L 891.241660486 554.270533353
      L 891.210703093 554.291107643
      L 891.179937240 554.312306248
      L 891.149374400 554.334129068
      L 891.119026101 554.356575809
      L 891.088903925 554.379645980
      L 891.059019501 554.403338893
      L 891.029384508 554.427653662
      L 891.000010666 554.452589198
      L 890.970909736 554.478144211
      L 890.942093516 554.504317204
      L 890.913573839 554.531106476
      L 890.885362568 554.558510118
      L 890.857471591 554.586526011
      L 890.829912824 554.615151825
      L 890.802698200 554.644385018
      L 890.775839670 554.674222835
      L 890.749349199 554.704662305
      L 890.723238761 554.735700241
      L 890.697520336 554.767333238
      L 890.672205909 554.799557673
      L 890.647307461 554.832369703
      L 890.622836969 554.865765263
      L 890.598806403 554.899740066
      L 890.575227719 554.934289604
      L 890.552112857 554.969409142
      L 890.529473739 555.005093723
      L 890.507322261 555.041338163
      L 890.485670292 555.078137052
      L 890.464529670 555.115484752
      L 890.443912195 555.153375400
      L 890.423829630 555.191802902
      L 890.404293694 555.230760938
      L 890.385316056 555.270242957
      L 890.366908335 555.310242179
      L 890.349082093 555.350751596
      L 890.331848834 555.391763969
      L 890.315219994 555.433271828
      L 890.299206943 555.475267476
      L 890.283820978 555.517742982
      L 890.269073319 555.560690189
      L 890.254975104 555.604100707
      L 890.241537385 555.647965919
      L 890.228771127 555.692276977
      L 890.216687198 555.737024805
      L 890.205296369 555.782200098
      L 890.194609307 555.827793323
      L 890.184636573 555.873794720
      L 890.175388616 555.920194303
      L 890.166875769 555.966981859
      L 890.159108246 556.014146949
      L 890.152096134 556.061678912
      L 890.145849393 556.109566862
      L 890.140377848 556.157799692
      L 890.135691188 556.206366073
      L 890.131798958 556.255254457
      L 890.128710556 556.304453076
      L 890.126435232 556.353949947
      L 890.124982076 556.403732869
      L 890.124360021 556.453789428
      L 890.124577834 556.504106998
      L 890.125644116 556.554672741
      L 890.127567292 556.605473611
      L 890.130355611 556.656496353
      L 890.134017139 556.707727509
      L 890.138559756 556.759153416
      L 890.143991152 556.810760212
      L 890.150318821 556.862533833
      L 890.157550059 556.914460022
      L 890.165691958 556.966524324
      L 890.174751402 557.018712096
      L 890.184735061 557.071008503
      L 890.195649392 557.123398525
      L 890.207500629 557.175866956
      L 890.220294781 557.228398413
      L 890.234037629 557.280977329
      L 890.248734722 557.333587968
      L 890.264391368 557.386214416
      L 890.281012637 557.438840595
      L 890.298603353 557.491450257
      L 890.317168088 557.544026995
      L 890.336711165 557.596554239
      L 890.357236645 557.649015267
      L 890.378748332 557.701393204
      L 890.401249760 557.753671024
      L 890.424744199 557.805831559
      L 890.449234643 557.857857498
      L 890.474723810 557.909731396
      L 890.501214139 557.961435672
      L 890.528707784 558.012952617
      L 890.557206612 558.064264396
      L 890.586712198 558.115353055
      L 890.617225824 558.166200523
      L 890.648748474 558.216788617
      L 890.681280829 558.267099046
      L 890.714823268 558.317113416
      L 890.749375860 558.366813235
      L 890.784938363 558.416179917
      L 890.821510222 558.465194787
      L 890.859090564 558.513839086
      L 890.897678196 558.562093977
      L 890.937271602 558.609940546
      L 890.977868939 558.657359812
      L 891.019468036 558.704332730
      L 891.062066390 558.750840196
      L 891.105661164 558.796863051
      L 891.150249183 558.842382091
      L 891.195826935 558.887378066
      L 891.242390564 558.931831691
      L 891.289935871 558.975723648
      L 891.338458311 559.019034595
      L 891.387952990 559.061745168
      L 891.438414663 559.103835989
      L 891.489837733 559.145287671
      L 891.542216248 559.186080825
      L 891.595543901 559.226196065
      L 891.649814025 559.265614014
      L 891.705019595 559.304315309
      L 891.761153223 559.342280612
      L 891.818207161 559.379490608
      L 891.876173294 559.415926019
      L 891.935043144 559.451567606
      L 891.994807865 559.486396177
      L 892.055458244 559.520392593
      L 892.116984701 559.553537774
      L 892.179377284 559.585812705
      L 892.242625674 559.617198445
      L 892.306719179 559.647676131
      L 892.371646736 559.677226986
      L 892.437396912 559.705832325
      L 892.503957901 559.733473563
      L 892.571317526 559.760132219
      L 892.639463235 559.785789927
      L 892.708382107 559.810428438
      L 892.778060847 559.834029631
      L 892.848485790 559.856575517
      L 892.919642899 559.878048247
      L 892.991517766 559.898430122
      L 893.064095611 559.917703592
      L 893.137361288 559.935851273
      L 893.211299280 559.952855946
      L 893.285893703 559.968700568
      L 893.361128307 559.983368278
      L 893.436986475 559.996842405
      L 893.513451229 560.009106474
      L 893.590505226 560.020144213
      L 893.668130763 560.029939560
      L 893.746309778 560.038476674
      L 893.825023851 560.045739934
      L 893.904254209 560.051713956
      L 893.983981724 560.056383591
      L 894.064186918 560.059733939
      L 894.144849963 560.061750352
      L 894.225950687 560.062418443
      L 894.307468574 560.061724094
      L 894.389382768 560.059653460
      L 894.471672075 560.056192978
      L 894.554314965 560.051329375
      L 894.637289581 560.045049674
      L 894.720573733 560.037341201
      L 894.804144911 560.028191592
      L 894.887980280 560.017588800
      L 894.972056691 560.005521104
      L 895.056350680 559.991977111
      L 895.140838474 559.976945768
      L 895.225495996 559.960416369
      L 895.310298867 559.942378556
      L 895.395222412 559.922822332
      L 895.480241664 559.901738066
      L 895.565331368 559.879116497
      L 895.650465989 559.854948745
      L 895.735619712 559.829226314
      L 895.820766451 559.801941102
      L 895.905879854 559.773085405
      L 895.990933305 559.742651924
      L 896.075899934 559.710633771
      L 896.160752619 559.677024478
      L 896.245463993 559.641817998
      L 896.330006454 559.605008719
      L 896.414352162 559.566591463
      L 896.498473053 559.526561495
      L 896.582340845 559.484914530
      L 896.665927037 559.441646736
      L 896.749202926 559.396754744
      L 896.832139606 559.350235651
      L 896.914707978 559.302087024
      L 896.996878756 559.252306911
      L 897.078622474 559.200893843
      L 897.159909496 559.147846836
      L 897.240710019 559.093165406
      L 897.320994084 559.036849564
      L 897.400731581 558.978899828
      L 897.479892258 558.919317225
      L 897.558445731 558.858103295
      L 897.636361488 558.795260100
      L 897.713608899 558.730790224
      L 897.790157225 558.664696782
      L 897.865975625 558.596983421
      L 897.941033166 558.527654325
      L 898.015298828 558.456714220
      L 898.088741519 558.384168380
      L 898.161330079 558.310022626
      L 898.233033287 558.234283336
      L 898.303819878 558.156957442
      L 898.373658545 558.078052442
      L 898.442517948 557.997576394
      L 898.510366731 557.915537928
      L 898.577173523 557.831946242
      L 898.642906951 557.746811110
      L 898.707535651 557.660142884
      L 898.771028276 557.571952495
      L 898.833353504 557.482251455
      L 898.894480053 557.391051865
      L 898.954376687 557.298366410
      L 899.013012228 557.204208366
      L 899.070355563 557.108591601
      L 899.126375661 557.011530573
      L 899.181041576 556.913040341
      L 899.234322461 556.813136554
      L 899.286187580 556.711835463
      L 899.336606314 556.609153918
      L 899.385548178 556.505109366
      L 899.432982825 556.399719857
      L 899.478880062 556.293004042
      L 899.523209858 556.184981174
      L 899.565942357 556.075671107
      L 899.607047886 555.965094299
      L 899.646496971 555.853271808
      L 899.684260342 555.740225296
      L 899.720308950 555.625977024
      L 899.754613973 555.510549855
      L 899.787146831 555.393967253
      L 899.817879197 555.276253277
      L 899.846783006 555.157432588
      L 899.873830469 555.037530439
      L 899.898994081 554.916572680
      L 899.922246636 554.794585754
      L 899.943561239 554.671596691
      L 899.962911314 554.547633113
      L 899.980270615 554.422723227
      L 899.995613243 554.296895821
      L 900.008913653 554.170180265
      L 900.020146666 554.042606506
      L 900.029287483 553.914205066
      L 900.036311693 553.785007035
      L 900.041195288 553.655044072
      L 900.043914671 553.524348397
      L 900.044446671 553.392952789
      L 900.042768554 553.260890582
      L 900.038858031 553.128195660
      L 900.032693274 552.994902451
      L 900.024252926 552.861045922
      L 900.013516109 552.726661577
      L 900.000462441 552.591785449
      L 899.985072045 552.456454092
      L 899.967325559 552.320704580
      L 899.947204148 552.184574499
      L 899.924689516 552.048101938
      L 899.899763919 551.911325487
      L 899.872410171 551.774284227
      L 899.842611661 551.637017725
      L 899.810352357 551.499566023
      L 899.775616826 551.361969636
      L 899.738390237 551.224269542
      L 899.698658376 551.086507172
      L 899.656407656 550.948724405
      L 899.611625124 550.810963557
      L 899.564298480 550.673267376
      L 899.514416078 550.535679030
      L 899.461966943 550.398242098
      L 899.406940778 550.261000565
      L 899.349327977 550.123998806
      L 899.289119629 549.987281583
      L 899.226307537 549.850894029
      L 899.160884221 549.714881645
      L 899.092842928 549.579290281
      L 899.022177648 549.444166133
      L 898.948883113 549.309555730
      L 898.872954818 549.175505921
      L 898.794389019 549.042063865
      L 898.713182752 548.909277022
      L 898.629333836 548.777193139
      L 898.542840881 548.645860237
      L 898.453703301 548.515326601
      L 898.361921320 548.385640771
      L 898.267495981 548.256851521
      L 898.170429151 548.129007856
      L 898.070723535 548.002158993
      L 897.968382678 547.876354348
      L 897.863410976 547.751643528
      L 897.755813682 547.628076311
      L 897.645596915 547.505702640
      L 897.532767662 547.384572599
      L 897.417333794 547.264736411
      L 897.299304062 547.146244413
      L 897.178688110 547.029147050
      L 897.055496483 546.913494855
      L 896.929740624 546.799338437
      L 896.801432891 546.686728467
      L 896.670586554 546.575715658
      L 896.537215805 546.466350756
      L 896.401335760 546.358684522
      L 896.262962467 546.252767716
      L 896.122112909 546.148651082
      L 895.978805007 546.046385330
      L 895.833057628 545.946021126
      L 895.684890584 545.847609068
      L 895.534324642 545.751199676
      L 895.381381520 545.656843371
      L 895.226083896 545.564590464
      L 895.068455408 545.474491132
      L 894.908520657 545.386595407
      L 894.746305211 545.300953159
      L 894.581835604 545.217614072
      L 894.415139340 545.136627637
      L 894.246244897 545.058043126
      L 894.075181720 544.981909580
      L 893.901980232 544.908275790
      L 893.726671827 544.837190276
      L 893.549288875 544.768701274
      L 893.369864719 544.702856718
      L 893.188433677 544.639704217
      L 893.005031041 544.579291043
      L 892.819693074 544.521664108
      L 892.632457013 544.466869951
      L 892.443361061 544.414954714
      L 892.252444394 544.365964128
      L 892.059747152 544.319943493
      L 891.865310439 544.276937660
      L 891.669176318 544.236991011
      L 891.471387814 544.200147444
      L 891.271988904 544.166450350
      L 891.071024517 544.135942597
      L 890.868540526 544.108666512
      L 890.664583751 544.084663861
      L 890.459201945 544.063975829
      L 890.252443798 544.046643005
      L 890.044358924 544.032705361
      L 889.834997859 544.022202232
      L 889.624412056 544.015172299
      L 889.412653875 544.011653572
      L 889.199776579 544.011683368
      L 888.985834327 544.015298293
      L 888.770882164 544.022534227
      L 888.554976015 544.033426299
      L 888.338172677 544.048008876
      L 888.120529810 544.066315536
      L 887.902105928 544.088379057
      L 887.682960389 544.114231396
      L 887.463153388 544.143903668
      L 887.242745944 544.177426132
      L 887.021799891 544.214828170
      L 886.800377868 544.256138270
      L 886.578543307 544.301384008
      L 886.356360421 544.350592028
      L 886.133894195 544.403788029
      L 885.911210369 544.460996742
      L 885.688375432 544.522241915
      L 885.465456603 544.587546296
      L 885.242521823 544.656931613
      L 885.019639736 544.730418562
      L 884.796879681 544.808026782
      L 884.574311672 544.889774847
      L 884.352006389 544.975680241
      L 884.130035158 545.065759349
      L 883.908469939 545.160027434
      L 883.687383309 545.258498625
      L 883.466848447 545.361185899
      L 883.246939115 545.468101064
      L 883.027729643 545.579254748
      L 882.809294916 545.694656379
      L 882.591710346 545.814314170
      L 882.375051868 545.938235106
      L 882.159395908 546.066424930
      L 881.944819375 546.198888123
      L 881.731399639 546.335627896
      L 881.519214509 546.476646172
      L 881.308342217 546.621943574
      L 881.098861396 546.771519410
      L 880.890851063 546.925371660
      L 880.684390594 547.083496964
      L 880.479559708 547.245890609
      L 880.276438443 547.412546514
      L 880.075107133 547.583457221
      L 879.875646390 547.758613881
      L 879.678137083 547.938006245
      L 879.482660309 548.121622649
      L 879.289297377 548.309450004
      L 879.098129781 548.501473790
      L 878.909239179 548.697678038
      L 878.722707370 548.898045325
      L 878.538616268 549.102556765
      L 878.357047878 549.311191996
      L 878.178084273 549.523929174
      L 878.001807571 549.740744963
      L 877.828299904 549.961614527
      L 877.657643401 550.186511524
      L 877.489920156 550.415408096
      L 877.325212205 550.648274863
      L 877.163601500 550.885080916
      L 877.005169883 551.125793813
      L 876.849999059 551.370379570
      L 876.698170569 551.618802656
      L 876.549765766 551.871025991
      L 876.404865783 552.127010938
      L 876.263551510 552.386717301
      L 876.125903564 552.650103320
      L 875.992002263 552.917125670
      L 875.861927597 553.187739453
      L 875.735759200 553.461898203
      L 875.613576323 553.739553878
      L 875.495457804 554.020656863
      L 875.381482040 554.305155964
      L 875.271726957 554.592998413
      L 875.166269985 554.884129865
      L 875.065188024 555.178494399
      L 874.968557420 555.476034518
      L 874.876453928 555.776691153
      L 874.788952693 556.080403663
      L 874.706128211 556.387109837
      L 874.628054305 556.696745901
      L 874.554804092 557.009246515
      L 874.486449956 557.324544784
      L 874.423063516 557.642572255
      L 874.364715597 557.963258931
      L 874.311476200 558.286533269
      L 874.263414471 558.612322190
      L 874.220598671 558.940551084
      L 874.183096147 559.271143819
      L 874.150973300 559.604022747
      L 874.124295558 559.939108713
      L 874.103127340 560.276321066
      L 874.087532031 560.615577665
      L 874.077571951 560.956794889
      L 874.073308323 561.299887650
      L 874.074801241 561.644769406
      L 874.082109647 561.991352165
      L 874.095291291 562.339546505
      L 874.114402711 562.689261583
      L 874.139499195 563.040405150
      L 874.170634755 563.392883563
      L 874.207862097 563.746601802
      L 874.251232589 564.101463482
      L 874.300796234 564.457370873
      L 874.356601640 564.814224911
      L 874.418695989 565.171925221
      L 874.487125009 565.530370127
      L 874.561932945 565.889456676
      L 874.643162529 566.249080657
      L 874.730854953 566.609136613
      L 874.825049838 566.969517870
      L 874.925785207 567.330116549
      L 875.033097457 567.690823594
      L 875.147021330 568.051528788
      L 875.267589887 568.412120779
      L 875.394834479 568.772487098
      L 875.528784718 569.132514189
      L 875.669468454 569.492087426
      L 875.816911745 569.851091142
      L 875.971138832 570.209408651
      L 876.132172112 570.566922276
      L 876.300032112 570.923513372
      L 876.474737464 571.279062357
      L 876.656304879 571.633448735
      L 876.844749124 571.986551126
      L 877.040082994 572.338247292
      L 877.242317291 572.688414172
      L 877.451460796 573.036927903
      L 877.667520252 573.383663856
      L 877.890500333 573.728496665
      L 878.120403628 574.071300257
      L 878.357230614 574.411947883
      L 878.600979637 574.750312156
      L 878.851646888 575.086265074
      L 879.109226386 575.419678063
      L 879.373709952 575.750422003
      L 879.645087193 576.078367267
      L 879.923345481 576.403383754
      L 880.208469933 576.725340924
      L 880.500443394 577.044107835
      L 880.799246418 577.359553179
      L 881.104857249 577.671545317
      L 881.417251807 577.979952317
      L 881.736403669 578.284641994
      L 882.062284053 578.585481947
      L 882.394861804 578.882339593
      L 882.734103379 579.175082215
      L 883.079972831 579.463576993
      L 883.432431795 579.747691050
      L 883.791439480 580.027291489
      L 884.156952649 580.302245434
      L 884.528925613 580.572420073
      L 884.907310217 580.837682699
      L 885.292055830 581.097900751
      L 885.683109336 581.352941858
      L 886.080415123 581.602673880
      L 886.483915076 581.846964953
      L 886.893548568 582.085683532
      L 887.309252454 582.318698433
      L 887.730961062 582.545878881
      L 888.158606191 582.767094549
      L 888.592117103 582.982215611
      L 889.031420520 583.191112779
      L 889.476440618 583.393657353
      L 889.927099030 583.589721265
      L 890.383314836 583.779177128
      L 890.845004569 583.961898277
      L 891.312082208 584.137758822
      L 891.784459183 584.306633688
      L 892.262044376 584.468398669
      L 892.744744119 584.622930470
      L 893.232462198 584.770106756
      L 893.725099860 584.909806201
      L 894.222555814 585.041908534
      L 894.724726234 585.166294589
      L 895.231504770 585.282846351
      L 895.742782552 585.391447005
      L 896.258448197 585.491980987
      L 896.778387820 585.584334028
      L 897.302485038 585.668393205
      L 897.830620989 585.744046991
      L 898.362674334 585.811185302
      L 898.898521274 585.869699547
      L 899.438035561 585.919482676
      L 899.981088515 585.960429228
      L 900.527549032 585.992435384
      L 901.077283606 586.015399010
      L 901.630156342 586.029219711
      L 902.186028974 586.033798879
      L 902.744760885 586.029039738
      L 903.306209122 586.014847399
      L 903.870228420 585.991128903
      L 904.436671221 585.957793274
      L 905.005387696 585.914751564
      L 905.576225769 585.861916903
      L 906.149031140 585.799204550
      L 906.723647308 585.726531934
      L 907.299915601 585.643818710
      L 907.877675196 585.550986802
      L 908.456763154 585.447960450
      L 909.037014443 585.334666260
      L 909.618261968 585.211033251
      L 910.200336604 585.076992900
      L 910.783067224 584.932479187
      L 911.366280735 584.777428646
      L 911.949802106 584.611780409
      L 912.533454407 584.435476247
      L 913.117058841 584.248460624
      L 913.700434781 584.050680735
      L 914.283399808 583.842086550
      L 914.865769744 583.622630866
      L 915.447358698 583.392269340
      L 916.027979099 583.150960542
      L 916.607441742 582.898665991
      L 917.185555825 582.635350200
      L 917.762128994 582.360980717
      L 918.336967387 582.075528169
      L 918.909875675 581.778966300
      L 919.480657110 581.471272010
      L 920.049113571 581.152425399
      L 920.615045609 580.822409804
      L 921.178252498 580.481211835
      L 921.738532280 580.128821419
      L 922.295681817 579.765231830
      L 922.849496841 579.390439731
      L 923.399772006 579.004445209
      L 923.946300940 578.607251808
      L 924.488876297 578.198866567
      L 925.027289811 577.779300051
      L 925.561332354 577.348566384
      L 926.090793986 576.906683285
      L 926.615464017 576.453672095
      L 927.135131061 575.989557812
      L 927.649583096 575.514369117
      L 928.158607520 575.028138406
      L 928.661991214 574.530901819
      L 929.159520601 574.022699262
      L 929.650981705 573.503574442
      L 930.136160217 572.973574886
      L 930.614841557 572.432751967
      L 931.086810932 571.881160931
      L 931.551853409 571.318860916
      L 932.009753971 570.745914977
      L 932.460297591 570.162390104
      L 932.903269290 569.568357246
      L 933.338454211 568.963891323
      L 933.765637680 568.349071254
      L 934.184605281 567.723979964
      L 934.595142918 567.088704405
      L 934.997036892 566.443335571
      L 935.390073963 565.787968508
      L 935.774041426 565.122702331
      L 936.148727180 564.447640232
      L 936.513919800 563.762889492
      L 936.869408612 563.068561488
      L 937.214983760 562.364771704
      L 937.550436283 561.651639736
      L 937.875558190 560.929289296
      L 938.190142531 560.197848219
      L 938.493983473 559.457448466
      L 938.786876377 558.708226124
      L 939.068617868 557.950321405
      L 939.339005917 557.183878652
      L 939.597839915 556.409046329
      L 939.844920747 555.625977024
      L 940.080050873 554.834827441
      L 940.303034403 554.035758394
      L 940.513677173 553.228934803
      L 940.711786827 552.414525681
      L 940.897172890 551.592704128
      L 941.069646852 550.763647317
      L 941.229022241 549.927536483
      L 941.375114704 549.084556907
      L 941.507742085 548.234897905
      L 941.626724506 547.378752805
      L 941.731884444 546.516318934
      L 941.823046810 545.647797594
      L 941.900039029 544.773394046
      L 941.962691119 543.893317482
      L 942.010835771 543.007781005
      L 942.044308425 542.117001602
      L 942.062947354 541.221200117
      L 942.066593740 540.320601223
      L 942.055091753 539.415433393
      L 942.028288632 538.505928866
      L 941.986034761 537.592323617
      L 941.928183750 536.674857321
      L 941.854592512 535.753773320
      L 941.765121344 534.829318582
      L 941.659633999 533.901743662
      L 941.537997772 532.971302667
      L 941.400083568 532.038253209
      L 941.245765990 531.102856362
      L 941.074923405 530.165376622
      L 940.887438029 529.226081853
      L 940.683195997 528.285243246
      L 940.462087443 527.343135267
      L 940.224006571 526.400035603
      L 939.968851736 525.456225117
      L 939.696525509 524.511987785
      L 939.406934760 523.567610648
      L 939.099990724 522.623383752
      L 938.775609077 521.679600087
      L 938.433710009 520.736555532
      L 938.074218291 519.794548790
      L 937.697063347 518.853881326
      L 937.302179329 517.914857302
      L 936.889505177 516.977783512
      L 936.458984694 516.042969314
      L 936.010566611 515.110726560
      L 935.544204656 514.181369526
      L 935.059857616 513.255214841
      L 934.557489403 512.332581412
      L 934.037069122 511.413790351
      L 933.498571130 510.499164896
      L 932.941975097 509.589030336
      L 932.367266072 508.683713930
      L 931.774434540 507.783544826
      L 931.163476479 506.888853981
      L 930.534393424 505.999974075
      L 929.887192518 505.117239427
      L 929.221886569 504.240985911
      L 928.538494109 503.371550865
      L 927.837039440 502.509273002
      L 927.117552692 501.654492323
      L 926.380069870 500.807550024
      L 925.624632907 499.968788398
      L 924.851289708 499.138550751
      L 924.060094202 498.317181296
      L 923.251106382 497.505025062
      L 922.424392354 496.702427796
      L 921.580024375 495.909735859
      L 920.718080900 495.127296132
      L 919.838646615 494.355455909
      L 918.941812480 493.594562797
      L 918.027675764 492.844964610
      L 917.096340081 492.107009266
      L 916.147915421 491.381044678
      L 915.182518186 490.667418648
      L 914.200271214 489.966478761
      L 913.201303816 489.278572270
      L 912.185751794 488.604045991
      L 911.153757473 487.943246185
      L 910.105469721 487.296518454
      L 909.041043971 486.664207619
      L 907.960642240 486.046657610
      L 906.864433149 485.444211353
      L 905.752591939 484.857210645
      L 904.625300481 484.285996049
      L 903.482747296 483.730906764
      L 902.325127556 483.192280515
      L 901.152643100 482.670453430
      L 899.965502439 482.165759920
      L 898.763920757 481.678532559
      L 897.548119916 481.209101960
      L 896.318328458 480.757796656
      L 895.074781599 480.324942976
      L 893.817721230 479.910864919
      L 892.547395907 479.515884034
      L 891.264060847 479.140319292
      L 889.967977916 478.784486964
      L 888.659415614 478.448700493
      L 887.338649067 478.133270369
      L 886.005960006 477.838504003
      L 884.661636747 477.564705600
      L 883.305974174 477.312176032
      L 881.939273713 477.081212713
      L 880.561843307 476.872109465
      L 879.173997390 476.685156398
      L 877.776056854 476.520639778
      L 876.368349018 476.378841900
      L 874.951207593 476.260040959
      L 873.524972647 476.164510922
      L 872.089990562 476.092521402
      L 870.646613993 476.044337527
      L 869.195201829 476.020219813
      L 867.736119139 476.020424036
      L 866.269737127 476.045201105
      L 864.796433082 476.094796932
      L 863.316590322 476.169452308
      L 861.830598137 476.269402772
      L 860.338851735 476.394878487
      L 858.841752174 476.546104112
      L 857.339706307 476.723298678
      L 855.833126710 476.926675457
      L 854.322431615 477.156441844
      L 852.808044840 477.412799227
      L 851.290395717 477.695942865
      L 849.769919015 478.006061765
      L 848.247054860 478.343338555
      L 846.722248659 478.707949370
      L 845.195951012 479.100063721
      L 843.668617632 479.519844382
      L 842.140709250 479.967447265
      L 840.612691533 480.443021307
      L 839.085034984 480.946708343
      L 837.558214850 481.478642999
      L 836.032711024 482.038952570
      L 834.509007946 482.627756905
      L 832.987594496 483.245168296
      L 831.468963894 483.891291363
      L 829.953613590 484.566222945
      L 828.442045155 485.270051987
      L 826.934764168 486.002859433
      L 825.432280101 486.764718118
      L 823.935106203 487.555692662
      L 822.443759380 488.375839363
      L 820.958760074 489.225206098
      L 819.480632136 490.103832218
      L 818.009902704 491.011748451
      L 816.547102070 491.948976797
      L 815.092763552 492.915530441
      L 813.647423359 493.911413648
      L 812.211620455 494.936621678
      L 810.785896421 495.991140689
      L 809.370795318 497.074947648
      L 807.966863540 498.188010246
      L 806.574649672 499.330286812
      L 805.194704343 500.501726225
      L 803.827580079 501.702267837
      L 802.473831146 502.931841390
      L 801.134013405 504.190366943
      L 799.808684150 505.477754792
      L 798.498401955 506.793905398
      L 797.203726513 508.138709319
      L 795.925218475 509.512047138
      L 794.663439289 510.913789400
      L 793.418951029 512.343796547
      L 792.192316235 513.801918855
      L 790.984097741 515.287996379
      L 789.794858503 516.801858895
      L 788.625161429 518.343325845
      L 787.475569203 519.912206288
      L 786.346644111 521.508298853
      L 785.238947860 523.131391690
      L 784.153041402 524.781262430
      L 783.089484752 526.457678145
      L 782.048836805 528.160395308
      L 781.031655152 529.889159764
      L 780.038495894 531.643706694
      L 779.069913456 533.423760588
      L 778.126460399 535.229035220
      L 777.208687229 537.059233630
      L 776.317142205 538.914048095
      L 775.452371149 540.793160122
      L 774.614917252 542.696240433
      L 773.805320877 544.622948951
      L 773.024119365 546.572934800
      L 772.271846837 548.545836297
      L 771.549033998 550.541280954
      L 770.856207934 552.558885483
      L 770.193891916 554.598255797
      L 769.562605196 556.658987030
      L 768.962862807 558.740663540
      L 768.395175362 560.842858935
      L 767.860048847 562.965136088
      L 767.357984418 565.107047163
      L 766.889478201 567.268133644
      L 766.455021079 569.447926363
      L 766.055098495 571.645945540
      L 765.690190239 573.861700815
      L 765.360770246 576.094691296
      L 765.067306387 578.344405604
      L 764.810260262 580.610321918
      L 764.590086996 582.891908033
      L 764.407235028 585.188621417
      L 764.262145903 587.499909269
      L 764.155254069 589.825208586
      L 764.086986666 592.163946231
      L 764.057763320 594.515539004
      L 764.067995937 596.879393721
      L 764.118088492 599.254907291
      L 764.208436830 601.641466802
      L 764.339428450 604.038449608
      L 764.511442310 606.445223421
      L 764.724848613 608.861146406
      L 764.980008607 611.285567281
      L 765.277274381 613.717825423
      L 765.616988659 616.157250969
      L 765.999484602 618.603164935
      L 766.425085602 621.054879327
      L 766.894105084 623.511697262
      L 767.406846305 625.972913090
      L 767.963602158 628.437812521
      L 768.564654972 630.905672761
      L 769.210276316 633.375762640
      L 769.900726806 635.847342758
      L 770.636255909 638.319665623
      L 771.417101755 640.791975803
      L 772.243490941 643.263510073
      L 773.115638346 645.733497572
      L 774.033746944 648.201159962
      L 774.998007616 650.665711594
      L 776.008598968 653.126359669
      L 777.065687147 655.582304412
      L 778.169425665 658.032739251
      L 779.319955220 660.476850986
      L 780.517403516 662.913819983
      L 781.761885096 665.342820353
      L 783.053501166 667.763020142
      L 784.392339430 670.173581531
      L 785.778473920 672.573661030
      L 787.211964833 674.962409679
      L 788.692858372 677.338973258
      L 790.221186585 679.702492490
      L 791.796967209 682.052103260
      L 793.420203520 684.386936829
      L 795.090884176 686.706120054
      L 796.808983079 689.008775613
      L 798.574459221 691.294022235
      L 800.387256552 693.560974924
      L 802.247303833 695.808745203
      L 804.154514511 698.036441344
      L 806.108786578 700.243168618
      L 808.110002451 702.428029532
      L 810.158028842 704.590124082
      L 812.252716640 706.728550005
      L 814.393900794 708.842403032
      L 816.581400198 710.930777149
      L 818.815017580 712.992764857
      L 821.094539401 715.027457437
      L 823.419735746 717.033945216
      L 825.790360233 719.011317844
      L 828.206149915 720.958664560
      L 830.666825192 722.875074475
      L 833.172089722 724.759636849
      L 835.721630345 726.611441374
      L 838.315117003 728.429578461
      L 840.952202667 730.213139524
      L 843.632523272 731.961217277
      L 846.355697648 733.672906022
      L 849.121327470 735.347301948
      L 851.928997193 736.983503428
      L 854.778274012 738.580611319
      L 857.668707813 740.137729270
      L 860.599831134 741.653964021
      L 863.571159129 743.128425714
      L 866.582189540 744.560228203
      L 869.632402674 745.948489364
      L 872.721261380 747.292331412
      L 875.848211035 748.590881212
      L 879.012679537 749.843270601
      L 882.214077301 751.048636705
      L 885.451797259 752.206122260
      L 888.725214868 753.314875934
      L 892.033688122 754.374052652
      L 895.376557570 755.382813924
      L 898.753146339 756.340328164
      L 902.162760167 757.245771026
      L 905.604687431 758.098325730
      L 909.078199192 758.897183390
      L 912.582549243 759.641543350
      L 916.116974156 760.330613511
      L 919.680693344 760.963610667
      L 923.272909122 761.539760838
      L 926.892806781 762.058299603
      L 930.539554657 762.518472435
      L 934.212304221 762.919535038
      L 937.910190161 763.260753677
      L 941.632330476 763.541405522
      L 945.377826580 763.760778975
      L 949.145763404 763.918174009
      L 952.935209512 764.012902505
      L 956.745217216 764.044288586
      L 960.574822704 764.011668952
      L 964.423046169 763.914393213
      L 968.288891947 763.751824225
      L 972.171348662 763.523338423
      L 976.069389372 763.228326152
      L 979.981971732 762.866192003
      L 983.908038149 762.436355136
      L 987.846515959 761.938249619
      L 991.796317595 761.371324749
      L 995.756340775 760.735045382
      L 999.725468687 760.028892260
      L 1003.702570185 759.252362334
      L 1007.686499989 758.404969084
      L 1011.676098894 757.486242845
      L 1015.670193985 756.495731122
      L 1019.667598855 755.432998907
      L 1023.667113833 754.297628995
      L 1027.667526218 753.089222297
      L 1031.667610518 751.807398148
      L 1035.666128698 750.451794616
      L 1039.661830431 749.022068808
      L 1043.653453356 747.517897169
      L 1047.639723346 745.938975785
      L 1051.619354781 744.285020677
      L 1055.591050821 742.555768097
      L 1059.553503694 740.750974813
      L 1063.505394988 738.870418404
      L 1067.445395945 736.913897535
      L 1071.372167767 734.881232242
      L 1075.284361925 732.772264205
      L 1079.180620472 730.586857024
      L 1083.059576369 728.324896483
      L 1086.919853812 725.986290816
      L 1090.760068566 723.570970968
      L 1094.578828302 721.078890851
      L 1098.374732949 718.510027590
      L 1102.146375042 715.864381778
      L 1105.892340083 713.141977711
      L 1109.611206902 710.342863627
      L 1113.301548029 707.467111941
      L 1116.961930068 704.514819469
      L 1120.590914083 701.486107649
      L 1124.187055975 698.381122763
      L 1127.748906886 695.200036141
      L 1131.275013590 691.943044372
      L 1134.763918896 688.610369503
      L 1138.214162064 685.202259230
      L 1141.624279209 681.718987089
      L 1144.992803728 678.160852640
      L 1148.318266725 674.528181638
      L 1151.599197433 670.821326208
      L 1154.834123657 667.040665003
      L 1158.021572210 663.186603366
      L 1161.160069358 659.259573477
      L 1164.248141267 655.260034500
      L 1167.284314462 651.188472714
      L 1170.267116280 647.045401648
      L 1173.195075337 642.831362202
      L 1176.066721992 638.546922760
      L 1178.880588824 634.192679304
      L 1181.635211099 629.769255508
      L 1184.329127259 625.277302835
      L 1186.960879401 620.717500624
      L 1189.529013764 616.090556165
      L 1192.032081224 611.397204769
      L 1194.468637786 606.638209833
      L 1196.837245084 601.814362891
      L 1199.136470883 596.926483664
      L 1201.364889586 591.975420094
      L 1203.521082736 586.962048374
      L 1205.603639538 581.887272971
      L 1207.611157362 576.752026637
      L 1209.542242271 571.557270416
      L 1211.395509533 566.303993633
      L 1213.169584146 560.993213887
      L 1214.863101364 555.625977024
      L 1216.474707223 550.203357110
      L 1218.003059070 544.726456387
      L 1219.446826094 539.196405224
      L 1220.804689861 533.614362061
      L 1222.075344845 527.981513337
      L 1223.257498968 522.299073418
      L 1224.349874133 516.568284505
      L 1225.351206769 510.790416540
      L 1226.260248364 504.966767103
      L 1227.075766012 499.098661290
      L 1227.796542949 493.187451597
      L 1228.421379101 487.234517775
      L 1228.949091621 481.241266695
      L 1229.378515435 475.209132187
      L 1229.708503784 469.139574880
      L 1229.937928769 463.034082022
      L 1230.065681889 456.894167302
      L 1230.090674589 450.721370653
      L 1230.011838799 444.517258047
      L 1229.828127472 438.283421278
      L 1229.538515132 432.021477745
      L 1229.141998404 425.733070206
      L 1228.637596559 419.419866544
      L 1228.024352047 413.083559503
      L 1227.301331032 406.725866423
      L 1226.467623924 400.348528970
      L 1225.522345913 393.953312843
      L 1224.464637494 387.542007479
      L 1223.293664999 381.116425745
      L 1222.008621112 374.678403623
      L 1220.608725399 368.229799879
      L 1219.093224823 361.772495723
      L 1217.461394256 355.308394467
      L 1215.712536995 348.839421155
      L 1213.845985269 342.367522203
      L 1211.861100745 335.894665013
      L 1209.757275024 329.422837584
      L 1207.533930143 322.954048110
      L 1205.190519067 316.490324571
      L 1202.726526172 310.033714308
      L 1200.141467735 303.586283593
      L 1197.434892406 297.150117187
      L 1194.606381688 290.727317884
      L 1191.655550400 284.320006051
      L 1188.582047140 277.930319157
      L 1185.385554746 271.560411283
      L 1182.065790743 265.212452635
      L 1178.622507791 258.888629036
      L 1175.055494122 252.591141416
      L 1171.364573972 246.322205288
      L 1167.549608009 240.084050210
      L 1163.610493751 233.878919250
      L 1159.547165978 227.709068425
      L 1155.359597134 221.576766144
      L 1151.047797729 215.484292631
      L 1146.611816724 209.433939349
      L 1142.051741917 203.428008402
      L 1137.367700311 197.468811940
      L 1132.559858485 191.558671546
      L 1127.628422949 185.699917616
      L 1122.573640489 179.894888733
      L 1117.395798513 174.145931029
      L 1112.095225375 168.455397538
      L 1106.672290699 162.825647541
      L 1101.127405693 157.259045903
      L 1095.461023447 151.757962400
      L 1089.673639226 146.324771039
      L 1083.765790757 140.961849368
      L 1077.738058495 135.671577779
      L 1071.591065888 130.456338803
      L 1065.325479628 125.318516395
      L 1058.942009890 120.260495218
      L 1052.441410565 115.284659906
      L 1045.824479472 110.393394335
      L 1039.092058573 105.589080877
      L 1032.245034163 100.874099646
      L 1025.284337054 96.250827746
      L 1018.210942752 91.721638500
      L 1011.025871610 87.288900685
      L 1003.730188981 82.954977746
      L 996.325005353 78.722227021
      L 988.811476470 74.592998941
      L 981.190803443 70.569636240
      L 973.464232848 66.654473148
      L 965.633056810 62.849834588
      L 957.698613074 59.158035357
      L 949.662285064 55.581379308
      L 941.525501924 52.122158530
      L 933.289738554 48.782652515
      L 924.956515622 45.565127326
      L 916.527399568 42.471834757
      L 908.004002598 39.505011496
      L 899.387982648 36.666878272
      L 890.681043357 33.959639010
      L 881.884934000 31.385479975
      L 873.001449430 28.946568915
      L 864.032429987 26.645054202
      L 854.979761402 24.483063967
      L 845.845374684 22.462705238
      L 836.631245991 20.586063067
      L 827.339396482 18.855199663
      L 817.971892165 17.272153518
      L 808.530843715 15.838938536
      L 799.018406287 14.557543154
      L 789.436779310 13.429929468
      L 779.788206263 12.458032352
      L 770.074974438 11.643758587
      L 760.299414688 10.988985976
      L 750.463901154 10.495562465
      L 740.570850980 10.165305272
      L 730.622724010 10.000000000
      L 720.622022474 10.001399766
      L 710.571290645 10.171224322
      L 700.473114495 10.511159179
      L 690.330121321 11.022854736
      L 680.144979366 11.707925408
      L 669.920397414 12.567948753
      L 659.659124373 13.604464609
      L 649.363948843 14.818974227
      L 639.037698662 16.212939410
      L 628.683240439 17.787781655
      L 618.303479070 19.544881299
      L 607.901357234 21.485576667
      L 597.479854878 23.611163225
      L 587.041988681 25.922892739
      L 576.590811499 28.421972439
      L 566.129411798 31.109564184
      L 555.660913071 33.986783636
      L 545.188473231 37.054699441
      L 534.715283991 40.314332412
      L 524.244570234 43.766654720
      L 513.779589352 47.412589094
      L 503.323630581 51.253008023
      L 492.880014314 55.288732972
      L 482.452091394 59.520533599
      L 472.043242400 63.949126986
      L 461.656876904 68.575176869
      L 451.296432723 73.399292891
      L 440.965375145 78.422029850
      L 430.667196147 83.643886961
      L 420.405413589 89.065307133
      L 410.183570398 94.686676250
      L 400.005233731 100.508322459
      L 389.873994126 106.530515479
      L 379.793464634 112.753465911
      L 369.767279934 119.177324564
      L 359.799095440 125.802181792
      L 349.892586379 132.628066843
      L 340.051446869 139.654947217
      L 330.279388967 146.882728039
      L 320.580141712 154.311251449
      L 310.957450151 161.940295996
      L 301.415074341 169.769576050
      L 291.956788353 177.798741233
      L 282.586379242 186.027375855
      L 273.307646022 194.454998367
      L 264.124398606 203.081060834
      L 255.040456754 211.904948418
      L 246.059648985 220.925978875
      L 237.185811493 230.143402073
      L 228.422787039 239.556399520
      L 219.774423834 249.164083917
      L 211.244574404 258.965498712
      L 202.837094453 268.959617692
      L 194.555841696 279.145344573
      L 186.404674696 289.521512617
      L 178.387451681 300.086884267
      L 170.508029346 310.840150799
      L 162.770261651 321.779931985
      L 155.177998600 332.904775791
      L 147.735085014 344.213158076
      L 140.445359291 355.703482323
      L 133.312652151 367.374079382
      L 126.340785380 379.223207238
      L 119.533570556 391.249050798
      L 112.894807765 403.449721691
      L 106.428284311 415.823258103
      L 100.137773419 428.367624617
      L 94.027032916 441.080712089
      L 88.099803924 453.960337531
      L 82.359809521 467.004244029
      L 76.810753414 480.210100674
      L 71.456318594 493.575502516
      L 66.300165984 507.097970546
      L 61.345933081 520.774951695
      L 56.597232594 534.603818859
      L 52.057651071 548.581870943
      L 47.730747522 562.706332936
      L 43.620052040 576.974356000
      L 39.729064406 591.383017590
      L 36.061252704 605.929321596
      L 32.620051918 620.610198508
      L 29.408862530 635.422505603
      L 26.431049119 650.363027167
      L 23.689938948 665.428474725
      L 21.188820554 680.615487314
      L 18.930942332 695.920631765
      L 16.919511117 711.340403023
      L 15.157690771 726.871224484
      L 13.648600757 742.509448363
      L 12.395314718 758.251356084
      L 11.400859061 774.093158695
      L 10.668211531 790.030997316
      L 10.200299791 806.060943605
      L 10.000000000 822.179000256
      L 10.070135397 838.381101520
      L 10.413474881 854.663113752
      L 11.032731597 871.020835990
      L 11.930561522 887.450000554
      L 13.109562056 903.946273677
      L 14.572270615 920.505256158
      L 16.321163233 937.122484048
      L 18.358653157 953.793429356
      L 20.687089461 970.513500789
      L 23.308755655 987.278044515
      L 26.225868305 1004.082344951
      L 29.440575658 1020.921625589
      L 32.954956272 1037.791049831
      L 36.771017660 1054.685721871
      L 40.890694933 1071.600687592
      L 45.315849457 1088.530935491
      L 50.048267516 1105.471397636
      L 55.089658991 1122.416950649
      L 60.441656036 1139.362416713
      L 66.105811780 1156.302564610
      L 72.083599028 1173.232110783
      L 78.376408975 1190.145720428
      L 84.985549942 1207.038008613
      L 91.912246110 1223.903541419
      L 99.157636278 1240.736837116
      L 106.722772628 1257.532367358
      L 114.608619509 1274.284558412
      L 122.816052230 1290.987792407
      L 131.345855873 1307.636408613
      L 140.198724122 1324.224704747
      L 149.375258098 1340.746938305
      L 158.875965228 1357.197327917
      L 168.701258114 1373.570054732
      L 178.851453432 1389.859263828
      L 189.326770842 1406.059065643
      L 200.127331920 1422.163537442
      L 211.253159106 1438.166724797
      L 222.704174680 1454.062643100
      L 234.480199745 1469.845279099
      L 246.580953245 1485.508592459
      L 259.006050991 1501.046517344
      L 271.755004721 1516.452964031
      L 284.827221176 1531.721820537
      L 298.222001194 1546.846954283
      L 311.938538843 1561.822213767
      L 325.975920556 1576.641430273
      L 340.333124315 1591.298419596
      L 355.009018836 1605.786983787
      L 370.002362799 1620.100912930
      L 385.311804091 1634.233986934
      L 400.935879081 1648.179977343
      L 416.873011923 1661.932649179
      L 433.121513883 1675.485762793
      L 449.679582694 1688.833075749
      L 466.545301944 1701.968344716
      L 483.716640485 1714.885327389
      L 501.191451884 1727.577784426
      L 518.967473885 1740.039481406
      L 537.042327922 1752.264190798
      L 555.413518647 1764.245693962
      L 574.078433498 1775.977783155
      L 593.034342294 1787.454263562
      L 612.278396865 1798.668955341
      L 631.807630715 1809.615695682
      L 651.618958714 1820.288340891
      L 671.709176828 1830.680768477
      L 692.074961878 1840.786879266
      L 712.712871343 1850.600599519
      L 733.619343182 1860.115883076
      L 754.790695709 1869.326713497
      L 776.223127487 1878.227106237
      L 797.912717272 1886.811110812
      L 819.855423983 1895.072812995
      L 842.047086715 1903.006337010
      L 864.483424784 1910.605847747
      L 887.160037818 1917.865552977
      L 910.072405872 1924.779705589
      L 933.215889598 1931.342605825
      L 956.585730436 1937.548603528
      L 980.177050862 1943.392100398
      L 1003.984854657 1948.867552259
      L 1028.004027231 1953.969471323
      L 1052.229335977 1958.692428468
      L 1076.655430668 1963.031055521
      L 1101.276843898 1966.980047540
      L 1126.087991556 1970.534165108
      L 1151.083173348 1973.688236623
      L 1176.256573358 1976.437160595
      L 1201.602260646 1978.775907946
      L 1227.114189898 1980.699524307
      L 1252.786202108 1982.203132318
      L 1278.612025304 1983.281933930
      L 1304.585275323 1983.931212703
      L 1330.699456620 1984.146336105
      L 1356.947963125 1983.922757805
      L 1383.324079144 1983.256019970
      L 1409.820980293 1982.141755549
      L 1436.431734494 1980.575690563
      L 1463.149302992 1978.553646381
      L 1489.966541436 1976.071541994
      L 1516.876200988 1973.125396283
      L 1543.870929487 1969.711330278
      L 1570.943272648 1965.825569409
      L 1598.085675313 1961.464445751
      L 1625.290482739 1956.624400250
      L 1652.549941934 1951.301984954
      L 1679.856203036 1945.493865216
      L 1707.201320739 1939.196821896
      L 1734.577255756 1932.407753546
      L 1761.975876334 1925.123678580
      L 1789.388959807 1917.341737436
      L 1816.808194199 1909.059194711
      L 1844.225179867 1900.273441291
      L 1871.631431187 1890.981996460
      L 1899.018378288 1881.182509986
      L 1926.377368827 1870.872764197
      L 1953.699669809 1860.050676034
      L 1980.976469450 1848.714299078
      L 2008.198879084 1836.861825565
      L 2035.357935114 1824.491588374
      L 2062.444601002 1811.602062992
      L 2089.449769310 1798.191869457
      L 2116.364263778 1784.259774273
      L 2143.178841444 1769.804692307
      L 2169.884194812 1754.825688648
      L 2196.470954056 1739.321980454
      L 2222.929689271 1723.292938755
      L 2249.250912762 1706.738090239
      L 2275.425081377 1689.657119004
      L 2301.442598881 1672.049868280
      L 2327.293818369 1653.916342117
      L 2352.969044721 1635.256707045
      L 2378.458537096 1616.071293700
      L 2403.752511471 1596.360598415
      L 2428.841143208 1576.125284775
      L 2453.714569674 1555.366185139
      L 2478.362892891 1534.084302124
      L 2502.776182224 1512.280810055
      L 2526.944477114 1489.957056370
      L 2550.857789837 1467.114562994
      L 2574.506108313 1443.755027669
      L 2597.879398941 1419.880325243
      L 2620.967609476 1395.492508919
      L 2643.760671938 1370.593811463
      L 2666.248505556 1345.186646367
      L 2688.421019751 1319.273608967
      L 2710.268117146 1292.857477524
      L 2731.779696615 1265.941214245
      L 2752.945656360 1238.527966276
      L 2773.755897024 1210.621066633
      L 2794.200324830 1182.224035095
      L 2814.268854758 1153.340579039
      L 2833.951413749 1123.974594239
      L 2853.237943930 1094.130165603
      L 2872.118405884 1063.811567864
      L 2890.582781934 1033.023266219
      L 2908.621079462 1001.769916919
      L 2926.223334250 970.056367802
      L 2943.379613848 937.887658770
      L 2960.080020969 905.269022220
      L 2976.314696909 872.205883415
      L 2992.073824983 838.703860794
      L 3007.347633992 804.768766241
      L 3022.126401705 770.406605276
      L 3036.400458372 735.623577208
      L 3050.160190242 700.426075218
      L 3063.396043113 664.820686386
      L 3076.098525894 628.814191658
      L 3088.258214186 592.413565757
      L 3099.865753880 555.625977024
    "
    fill="none"
    stroke="white"
    stroke-width="35"
    />
</svg>
